<svg width="222" height="80" viewBox="0 0 222 80" fill="none" xmlns="http://www.w3.org/2000/svg">
<path d="M81.9118 39.8863C81.9118 55.9442 68.8944 68.9616 52.8365 68.9616C36.7787 68.9616 23.7612 55.9442 23.7612 39.8863C23.7612 23.8285 36.7787 10.811 52.8365 10.811C68.8944 10.811 81.9118 23.8285 81.9118 39.8863Z" fill="#131313"/>
<path d="M52.9449 45.6916C52.096 45.7853 51.7386 46.2198 51.5923 47.1178C51.3141 48.8344 50.8944 50.5294 50.5467 52.234C50.2301 53.7802 49.3572 54.8558 47.9254 55.5136C45.3017 56.7189 42.4837 57.3143 39.7377 58.1306C38.493 58.5003 37.5026 57.7081 37.704 56.5412C37.8287 55.8162 37.9462 55.0887 38.0733 54.3636C38.0853 54.3468 38.0949 54.33 38.1069 54.3108C43.3279 46.1406 52.7939 45.5572 52.7939 45.5572L52.9449 45.6916Z" fill="#D84848"/>
<path d="M52.9449 45.6916C52.096 45.7853 51.7386 46.2198 51.5923 47.1178C51.3141 48.8344 50.8944 50.5294 50.5467 52.234C50.2301 53.7802 49.3572 54.8558 47.9254 55.5136C45.3017 56.7189 42.4837 57.3143 39.7377 58.1306C38.493 58.5003 37.5026 57.7081 37.704 56.5412C37.8287 55.8162 37.9462 55.0887 38.0733 54.3636C38.0853 54.3468 38.0949 54.33 38.1069 54.3108C43.3279 46.1406 52.7939 45.5572 52.7939 45.5572L52.9449 45.6916Z" fill="url(#paint0_linear_1749_228)"/>
<path d="M52.9449 45.6916C52.096 45.7853 51.7386 46.2198 51.5923 47.1178C51.3141 48.8344 50.8944 50.5294 50.5467 52.234C50.2301 53.7802 49.3572 54.8558 47.9254 55.5136C45.3017 56.7189 42.4837 57.3143 39.7377 58.1306C38.493 58.5003 37.5026 57.7081 37.704 56.5412C37.8287 55.8162 37.9462 55.0887 38.0733 54.3636C38.0853 54.3468 38.0949 54.33 38.1069 54.3108C43.3279 46.1406 52.7939 45.5572 52.7939 45.5572L52.9449 45.6916Z" fill="url(#paint1_linear_1749_228)"/>
<path d="M70.0324 38.2155C68.0491 42.5035 64.6531 44.7459 60.0221 45.1853C57.938 45.3846 55.8491 45.5286 53.7579 45.6438C53.5492 45.6559 53.3406 45.6655 53.1319 45.6775C53.0672 45.6799 53.0072 45.6847 52.9472 45.6919L52.9449 45.6916L52.681 45.6919C52.681 45.6919 43.3278 46.1408 38.1092 54.3134C38.0972 54.3303 38.0876 54.3471 38.0756 54.3663C38.4498 52.2199 38.9102 50.0903 39.9415 48.1192C41.7857 44.5899 44.7236 42.6644 48.1363 41.4351C49.0597 41.1038 50.0166 40.8205 50.9975 40.5732C53.1933 40.0165 55.4436 39.8132 57.9454 39.5515C58.3638 39.5078 58.4691 38.9347 58.1035 38.7266C57.0954 38.1526 56.2184 37.5435 55.4991 36.8889C55.1982 36.6152 54.7524 36.5747 54.3629 36.6921C54.1321 36.7617 53.8872 36.799 53.6331 36.799C52.2422 36.799 51.115 35.6706 51.115 34.2781C51.115 33.2301 51.7536 32.3318 52.6619 31.9512C53.0206 31.8009 53.3241 31.5052 53.4054 31.1249C53.5854 30.2826 53.9431 29.3841 54.4967 28.4226C54.7103 28.0518 54.3246 27.5954 53.9409 27.7849C48.5478 30.4495 44.475 34.4017 41.4212 39.5192C41.3085 39.4712 41.1982 39.4256 41.0854 39.3775C41.5795 36.8062 42.0735 34.2325 42.5676 31.6611C42.6467 31.2458 42.7546 30.8328 42.805 30.4126C43.4405 25.2459 45.9323 22.7106 51.5826 21.8559C57.2089 21.006 62.6098 22.0768 67.2073 25.6205C71.1524 28.6648 72.1333 33.673 70.0324 38.2155Z" fill="#F01B16"/>
<path d="M70.0324 38.2155C68.0491 42.5035 64.6531 44.7459 60.0221 45.1853C57.938 45.3846 55.8491 45.5286 53.7579 45.6438C53.5492 45.6559 53.3406 45.6655 53.1319 45.6775C53.0672 45.6799 53.0072 45.6847 52.9472 45.6919L52.9449 45.6916L52.681 45.6919C52.681 45.6919 43.3278 46.1408 38.1092 54.3134C38.0972 54.3303 38.0876 54.3471 38.0756 54.3663C38.4498 52.2199 38.9102 50.0903 39.9415 48.1192C41.7857 44.5899 44.7236 42.6644 48.1363 41.4351C49.0597 41.1038 50.0166 40.8205 50.9975 40.5732C53.1933 40.0165 55.4436 39.8132 57.9454 39.5515C58.3638 39.5078 58.4691 38.9347 58.1035 38.7266C57.0954 38.1526 56.2184 37.5435 55.4991 36.8889C55.1982 36.6152 54.7524 36.5747 54.3629 36.6921C54.1321 36.7617 53.8872 36.799 53.6331 36.799C52.2422 36.799 51.115 35.6706 51.115 34.2781C51.115 33.2301 51.7536 32.3318 52.6619 31.9512C53.0206 31.8009 53.3241 31.5052 53.4054 31.1249C53.5854 30.2826 53.9431 29.3841 54.4967 28.4226C54.7103 28.0518 54.3246 27.5954 53.9409 27.7849C48.5478 30.4495 44.475 34.4017 41.4212 39.5192C41.3085 39.4712 41.1982 39.4256 41.0854 39.3775C41.5795 36.8062 42.0735 34.2325 42.5676 31.6611C42.6467 31.2458 42.7546 30.8328 42.805 30.4126C43.4405 25.2459 45.9323 22.7106 51.5826 21.8559C57.2089 21.006 62.6098 22.0768 67.2073 25.6205C71.1524 28.6648 72.1333 33.673 70.0324 38.2155Z" fill="url(#paint2_linear_1749_228)" fill-opacity="0.6"/>
<path d="M70.0324 38.2155C68.0491 42.5035 64.6531 44.7459 60.0221 45.1853C57.938 45.3846 55.8491 45.5286 53.7579 45.6438C53.5492 45.6559 53.3406 45.6655 53.1319 45.6775C53.0672 45.6799 53.0072 45.6847 52.9472 45.6919L52.9449 45.6916L52.681 45.6919C52.681 45.6919 43.3278 46.1408 38.1092 54.3134C38.0972 54.3303 38.0876 54.3471 38.0756 54.3663C38.4498 52.2199 38.9102 50.0903 39.9415 48.1192C41.7857 44.5899 44.7236 42.6644 48.1363 41.4351C49.0597 41.1038 50.0166 40.8205 50.9975 40.5732C53.1933 40.0165 55.4436 39.8132 57.9454 39.5515C58.3638 39.5078 58.4691 38.9347 58.1035 38.7266C57.0954 38.1526 56.2184 37.5435 55.4991 36.8889C55.1982 36.6152 54.7524 36.5747 54.3629 36.6921C54.1321 36.7617 53.8872 36.799 53.6331 36.799C52.2422 36.799 51.115 35.6706 51.115 34.2781C51.115 33.2301 51.7536 32.3318 52.6619 31.9512C53.0206 31.8009 53.3241 31.5052 53.4054 31.1249C53.5854 30.2826 53.9431 29.3841 54.4967 28.4226C54.7103 28.0518 54.3246 27.5954 53.9409 27.7849C48.5478 30.4495 44.475 34.4017 41.4212 39.5192C41.3085 39.4712 41.1982 39.4256 41.0854 39.3775C41.5795 36.8062 42.0735 34.2325 42.5676 31.6611C42.6467 31.2458 42.7546 30.8328 42.805 30.4126C43.4405 25.2459 45.9323 22.7106 51.5826 21.8559C57.2089 21.006 62.6098 22.0768 67.2073 25.6205C71.1524 28.6648 72.1333 33.673 70.0324 38.2155Z" fill="url(#paint3_linear_1749_228)"/>
<path d="M106.556 30.5616C107.378 31.3184 107.983 32.2265 108.373 33.286C108.762 34.3238 108.913 35.3616 108.827 36.3995C108.74 37.3941 108.427 38.313 107.886 39.1562C107.346 39.9779 106.524 40.6049 105.421 41.0373C104.556 41.4049 103.702 41.6643 102.859 41.8157C102.016 41.9671 101.086 42.086 100.07 42.1725C99.6159 42.2157 99.2267 42.2481 98.9024 42.2698C98.5997 42.2698 98.2429 42.2806 97.8321 42.3022C97.7456 42.3022 97.5943 42.3022 97.378 42.3022C97.1835 42.3022 97.0429 42.313 96.9564 42.3346V49.0481C96.8916 49.4589 96.8051 49.8806 96.697 50.313C96.6105 50.7454 96.3618 51.0806 95.951 51.3184C95.7132 51.4481 95.4213 51.5238 95.0753 51.5454C94.7294 51.5671 94.4159 51.5562 94.1348 51.513C93.8321 51.4698 93.5726 51.3941 93.3564 51.286C93.1618 51.1562 92.9997 50.94 92.8699 50.6373C92.7835 50.4427 92.697 50.2265 92.6105 49.9887C92.5456 49.7292 92.5132 49.4157 92.5132 49.0481V31.113C92.5132 30.9616 92.524 30.8211 92.5456 30.6914C92.5672 30.5616 92.5889 30.4319 92.6105 30.3022C92.6537 30.1941 92.6862 30.0752 92.7078 29.9454C92.7294 29.8157 92.7618 29.6968 92.8051 29.5887C92.8483 29.4806 92.8916 29.3833 92.9348 29.2968C92.9997 29.2103 93.0753 29.1346 93.1618 29.0698C93.2699 28.9616 93.4321 28.8643 93.6483 28.7779C93.8862 28.6914 94.2321 28.6481 94.6862 28.6481H94.751C95.4213 28.6049 96.1672 28.5725 96.9889 28.5508C97.8105 28.5076 98.4916 28.5184 99.0321 28.5833C99.3348 28.6265 99.6159 28.6589 99.8753 28.6806C100.135 28.6806 100.383 28.6914 100.621 28.713C100.881 28.7346 101.14 28.7562 101.4 28.7779C101.659 28.7995 101.919 28.8319 102.178 28.8752C102.394 28.9184 102.589 28.9508 102.762 28.9725C102.956 28.9941 103.151 29.0265 103.346 29.0698C103.519 29.113 103.702 29.1562 103.897 29.1995C104.113 29.2427 104.308 29.3184 104.481 29.4265C104.935 29.5562 105.313 29.7184 105.616 29.913C105.919 30.1076 106.232 30.3238 106.556 30.5616ZM104.61 35.913C104.632 35.3941 104.524 34.94 104.286 34.5508C104.07 34.1616 103.756 33.8373 103.346 33.5779C102.935 33.3184 102.47 33.113 101.951 32.9616C101.432 32.8103 100.913 32.7022 100.394 32.6373C100.265 32.6373 100.081 32.6373 99.8429 32.6373C99.6267 32.6157 99.3889 32.6049 99.1294 32.6049C98.8699 32.5833 98.6213 32.5725 98.3835 32.5725C98.1672 32.5508 97.9943 32.54 97.8645 32.54C97.7564 32.5184 97.6267 32.5076 97.4753 32.5076C97.324 32.5076 97.151 32.5076 96.9564 32.5076C96.978 33.1779 96.9889 33.8265 96.9889 34.4535C96.9889 35.0589 96.9889 35.7184 96.9889 36.4319C96.9672 36.8211 96.9564 37.2103 96.9564 37.5995C96.9564 37.9887 96.9564 38.3671 96.9564 38.7346L98.9672 38.7022C99.4862 38.7022 100.059 38.6698 100.686 38.6049C101.313 38.54 101.908 38.4103 102.47 38.2157C103.032 38.0211 103.508 37.74 103.897 37.3725C104.308 37.0049 104.546 36.5184 104.61 35.913Z" fill="#F91F19"/>
<path d="M106.556 30.5616C107.378 31.3184 107.983 32.2265 108.373 33.286C108.762 34.3238 108.913 35.3616 108.827 36.3995C108.74 37.3941 108.427 38.313 107.886 39.1562C107.346 39.9779 106.524 40.6049 105.421 41.0373C104.556 41.4049 103.702 41.6643 102.859 41.8157C102.016 41.9671 101.086 42.086 100.07 42.1725C99.6159 42.2157 99.2267 42.2481 98.9024 42.2698C98.5997 42.2698 98.2429 42.2806 97.8321 42.3022C97.7456 42.3022 97.5943 42.3022 97.378 42.3022C97.1835 42.3022 97.0429 42.313 96.9564 42.3346V49.0481C96.8916 49.4589 96.8051 49.8806 96.697 50.313C96.6105 50.7454 96.3618 51.0806 95.951 51.3184C95.7132 51.4481 95.4213 51.5238 95.0753 51.5454C94.7294 51.5671 94.4159 51.5562 94.1348 51.513C93.8321 51.4698 93.5726 51.3941 93.3564 51.286C93.1618 51.1562 92.9997 50.94 92.8699 50.6373C92.7835 50.4427 92.697 50.2265 92.6105 49.9887C92.5456 49.7292 92.5132 49.4157 92.5132 49.0481V31.113C92.5132 30.9616 92.524 30.8211 92.5456 30.6914C92.5672 30.5616 92.5889 30.4319 92.6105 30.3022C92.6537 30.1941 92.6862 30.0752 92.7078 29.9454C92.7294 29.8157 92.7618 29.6968 92.8051 29.5887C92.8483 29.4806 92.8916 29.3833 92.9348 29.2968C92.9997 29.2103 93.0753 29.1346 93.1618 29.0698C93.2699 28.9616 93.4321 28.8643 93.6483 28.7779C93.8862 28.6914 94.2321 28.6481 94.6862 28.6481H94.751C95.4213 28.6049 96.1672 28.5725 96.9889 28.5508C97.8105 28.5076 98.4916 28.5184 99.0321 28.5833C99.3348 28.6265 99.6159 28.6589 99.8753 28.6806C100.135 28.6806 100.383 28.6914 100.621 28.713C100.881 28.7346 101.14 28.7562 101.4 28.7779C101.659 28.7995 101.919 28.8319 102.178 28.8752C102.394 28.9184 102.589 28.9508 102.762 28.9725C102.956 28.9941 103.151 29.0265 103.346 29.0698C103.519 29.113 103.702 29.1562 103.897 29.1995C104.113 29.2427 104.308 29.3184 104.481 29.4265C104.935 29.5562 105.313 29.7184 105.616 29.913C105.919 30.1076 106.232 30.3238 106.556 30.5616ZM104.61 35.913C104.632 35.3941 104.524 34.94 104.286 34.5508C104.07 34.1616 103.756 33.8373 103.346 33.5779C102.935 33.3184 102.47 33.113 101.951 32.9616C101.432 32.8103 100.913 32.7022 100.394 32.6373C100.265 32.6373 100.081 32.6373 99.8429 32.6373C99.6267 32.6157 99.3889 32.6049 99.1294 32.6049C98.8699 32.5833 98.6213 32.5725 98.3835 32.5725C98.1672 32.5508 97.9943 32.54 97.8645 32.54C97.7564 32.5184 97.6267 32.5076 97.4753 32.5076C97.324 32.5076 97.151 32.5076 96.9564 32.5076C96.978 33.1779 96.9889 33.8265 96.9889 34.4535C96.9889 35.0589 96.9889 35.7184 96.9889 36.4319C96.9672 36.8211 96.9564 37.2103 96.9564 37.5995C96.9564 37.9887 96.9564 38.3671 96.9564 38.7346L98.9672 38.7022C99.4862 38.7022 100.059 38.6698 100.686 38.6049C101.313 38.54 101.908 38.4103 102.47 38.2157C103.032 38.0211 103.508 37.74 103.897 37.3725C104.308 37.0049 104.546 36.5184 104.61 35.913Z" fill="url(#paint4_linear_1749_228)"/>
<path d="M111.517 39.9995C111.517 39.74 111.517 39.4481 111.517 39.1238C111.517 38.7779 111.528 38.4319 111.55 38.086C111.571 37.7184 111.604 37.3725 111.647 37.0481C111.712 36.7022 111.798 36.3995 111.907 36.14C112.079 35.7508 112.35 35.4914 112.717 35.3616C113.085 35.2103 113.485 35.1454 113.917 35.1671C114.371 35.1671 114.728 35.2427 114.988 35.3941C115.247 35.5454 115.442 35.7508 115.571 36.0103C115.701 36.2481 115.777 36.5292 115.798 36.8535C115.842 37.1562 115.863 37.4806 115.863 37.8265C116.058 37.4806 116.317 37.1995 116.642 36.9833C116.988 36.7671 117.334 36.5941 117.679 36.4643C118.025 36.3346 118.339 36.2481 118.62 36.2049C118.901 36.14 119.063 36.1076 119.107 36.1076C119.647 36.0643 120.134 36.0535 120.566 36.0752C121.02 36.0968 121.517 36.1941 122.058 36.3671C122.404 36.4968 122.761 36.6806 123.128 36.9184C123.496 37.1346 123.82 37.3941 124.101 37.6968C124.382 37.9995 124.566 38.3346 124.652 38.7022C124.761 39.0481 124.717 39.4157 124.523 39.8049C124.22 40.3454 123.885 40.6157 123.517 40.6157C123.15 40.5941 122.75 40.5292 122.317 40.4211C122.079 40.3779 121.798 40.2806 121.474 40.1292C121.15 39.9779 120.869 39.8806 120.631 39.8373C119.896 39.7292 119.247 39.7833 118.685 39.9995C118.123 40.2157 117.636 40.4752 117.225 40.7779C116.75 41.1454 116.339 41.5671 115.993 42.0427V46.713C115.993 47.2968 115.982 47.9022 115.961 48.5292C115.961 49.1562 115.874 49.7292 115.701 50.2481C115.55 50.7454 115.279 51.1562 114.89 51.4806C114.523 51.7833 113.982 51.913 113.269 51.8698C112.879 51.8481 112.534 51.6643 112.231 51.3184C111.928 50.9508 111.744 50.5941 111.679 50.2481C111.636 49.9238 111.604 49.5346 111.582 49.0806C111.561 48.6265 111.539 48.1508 111.517 47.6535C111.517 47.1562 111.517 46.6589 111.517 46.1616C111.517 45.6427 111.517 45.1671 111.517 44.7346V39.9995Z" fill="#F91F19"/>
<path d="M111.517 39.9995C111.517 39.74 111.517 39.4481 111.517 39.1238C111.517 38.7779 111.528 38.4319 111.55 38.086C111.571 37.7184 111.604 37.3725 111.647 37.0481C111.712 36.7022 111.798 36.3995 111.907 36.14C112.079 35.7508 112.35 35.4914 112.717 35.3616C113.085 35.2103 113.485 35.1454 113.917 35.1671C114.371 35.1671 114.728 35.2427 114.988 35.3941C115.247 35.5454 115.442 35.7508 115.571 36.0103C115.701 36.2481 115.777 36.5292 115.798 36.8535C115.842 37.1562 115.863 37.4806 115.863 37.8265C116.058 37.4806 116.317 37.1995 116.642 36.9833C116.988 36.7671 117.334 36.5941 117.679 36.4643C118.025 36.3346 118.339 36.2481 118.62 36.2049C118.901 36.14 119.063 36.1076 119.107 36.1076C119.647 36.0643 120.134 36.0535 120.566 36.0752C121.02 36.0968 121.517 36.1941 122.058 36.3671C122.404 36.4968 122.761 36.6806 123.128 36.9184C123.496 37.1346 123.82 37.3941 124.101 37.6968C124.382 37.9995 124.566 38.3346 124.652 38.7022C124.761 39.0481 124.717 39.4157 124.523 39.8049C124.22 40.3454 123.885 40.6157 123.517 40.6157C123.15 40.5941 122.75 40.5292 122.317 40.4211C122.079 40.3779 121.798 40.2806 121.474 40.1292C121.15 39.9779 120.869 39.8806 120.631 39.8373C119.896 39.7292 119.247 39.7833 118.685 39.9995C118.123 40.2157 117.636 40.4752 117.225 40.7779C116.75 41.1454 116.339 41.5671 115.993 42.0427V46.713C115.993 47.2968 115.982 47.9022 115.961 48.5292C115.961 49.1562 115.874 49.7292 115.701 50.2481C115.55 50.7454 115.279 51.1562 114.89 51.4806C114.523 51.7833 113.982 51.913 113.269 51.8698C112.879 51.8481 112.534 51.6643 112.231 51.3184C111.928 50.9508 111.744 50.5941 111.679 50.2481C111.636 49.9238 111.604 49.5346 111.582 49.0806C111.561 48.6265 111.539 48.1508 111.517 47.6535C111.517 47.1562 111.517 46.6589 111.517 46.1616C111.517 45.6427 111.517 45.1671 111.517 44.7346V39.9995Z" fill="url(#paint5_linear_1749_228)"/>
<path d="M136.611 47.0373C136.87 46.9725 137.13 46.9292 137.389 46.9076C137.67 46.886 137.919 46.9184 138.135 47.0049C138.373 47.0914 138.567 47.2427 138.719 47.4589C138.87 47.6535 138.946 47.9346 138.946 48.3022C138.946 48.5616 138.881 48.8103 138.751 49.0481C138.621 49.286 138.459 49.5022 138.265 49.6968C138.07 49.8914 137.854 50.0643 137.616 50.2157C137.378 50.3454 137.151 50.4535 136.935 50.54C136.308 50.8211 135.584 51.0373 134.762 51.1887C133.962 51.34 133.13 51.3941 132.265 51.3508C131.097 51.3076 129.973 51.0806 128.892 50.6698C127.832 50.2373 127 49.5346 126.394 48.5616C125.832 47.6103 125.497 46.5508 125.389 45.3833C125.281 44.2157 125.335 43.113 125.551 42.0752C125.789 40.8211 126.189 39.8049 126.751 39.0265C127.335 38.2265 128.027 37.5887 128.827 37.113C129.8 36.5508 130.892 36.2589 132.103 36.2373C133.313 36.2157 134.47 36.4535 135.573 36.9508C136.308 37.2752 136.967 37.7184 137.551 38.2806C138.135 38.8211 138.578 39.4806 138.881 40.2589C138.967 40.4535 139.032 40.6914 139.076 40.9725C139.14 41.2535 139.184 41.5562 139.205 41.8806C139.227 42.1833 139.227 42.486 139.205 42.7887C139.184 43.0914 139.13 43.3616 139.043 43.5995C138.913 43.9887 138.751 44.2914 138.557 44.5076C138.362 44.7238 138.113 44.886 137.811 44.9941C137.508 45.1022 137.14 45.1779 136.708 45.2211C136.297 45.2427 135.8 45.2643 135.216 45.286C134.697 45.3076 134.211 45.3184 133.757 45.3184C133.303 45.3184 132.838 45.3184 132.362 45.3184C131.886 45.2968 131.389 45.286 130.87 45.286C130.373 45.2643 129.811 45.2427 129.184 45.2211C129.119 45.6535 129.173 46.0319 129.346 46.3562C129.54 46.6589 129.8 46.9184 130.124 47.1346C130.448 47.3292 130.816 47.4806 131.227 47.5887C131.638 47.6968 132.038 47.7616 132.427 47.7833C133.162 47.8265 133.865 47.7725 134.535 47.6211C135.205 47.4481 135.897 47.2535 136.611 47.0373ZM135.216 40.7454C134.805 40.2698 134.373 39.9238 133.919 39.7076C133.573 39.5562 133.205 39.4914 132.816 39.513C132.448 39.513 132.092 39.5671 131.746 39.6752C131.119 39.8265 130.589 40.1508 130.157 40.6481C130.113 40.6914 130.038 40.7995 129.93 40.9725C129.821 41.1238 129.713 41.286 129.605 41.4589C129.519 41.6319 129.454 41.7941 129.411 41.9454C129.367 42.0968 129.389 42.1725 129.476 42.1725H135.832C135.811 41.8698 135.757 41.6211 135.67 41.4265C135.584 41.2103 135.432 40.9833 135.216 40.7454Z" fill="#F91F19"/>
<path d="M136.611 47.0373C136.87 46.9725 137.13 46.9292 137.389 46.9076C137.67 46.886 137.919 46.9184 138.135 47.0049C138.373 47.0914 138.567 47.2427 138.719 47.4589C138.87 47.6535 138.946 47.9346 138.946 48.3022C138.946 48.5616 138.881 48.8103 138.751 49.0481C138.621 49.286 138.459 49.5022 138.265 49.6968C138.07 49.8914 137.854 50.0643 137.616 50.2157C137.378 50.3454 137.151 50.4535 136.935 50.54C136.308 50.8211 135.584 51.0373 134.762 51.1887C133.962 51.34 133.13 51.3941 132.265 51.3508C131.097 51.3076 129.973 51.0806 128.892 50.6698C127.832 50.2373 127 49.5346 126.394 48.5616C125.832 47.6103 125.497 46.5508 125.389 45.3833C125.281 44.2157 125.335 43.113 125.551 42.0752C125.789 40.8211 126.189 39.8049 126.751 39.0265C127.335 38.2265 128.027 37.5887 128.827 37.113C129.8 36.5508 130.892 36.2589 132.103 36.2373C133.313 36.2157 134.47 36.4535 135.573 36.9508C136.308 37.2752 136.967 37.7184 137.551 38.2806C138.135 38.8211 138.578 39.4806 138.881 40.2589C138.967 40.4535 139.032 40.6914 139.076 40.9725C139.14 41.2535 139.184 41.5562 139.205 41.8806C139.227 42.1833 139.227 42.486 139.205 42.7887C139.184 43.0914 139.13 43.3616 139.043 43.5995C138.913 43.9887 138.751 44.2914 138.557 44.5076C138.362 44.7238 138.113 44.886 137.811 44.9941C137.508 45.1022 137.14 45.1779 136.708 45.2211C136.297 45.2427 135.8 45.2643 135.216 45.286C134.697 45.3076 134.211 45.3184 133.757 45.3184C133.303 45.3184 132.838 45.3184 132.362 45.3184C131.886 45.2968 131.389 45.286 130.87 45.286C130.373 45.2643 129.811 45.2427 129.184 45.2211C129.119 45.6535 129.173 46.0319 129.346 46.3562C129.54 46.6589 129.8 46.9184 130.124 47.1346C130.448 47.3292 130.816 47.4806 131.227 47.5887C131.638 47.6968 132.038 47.7616 132.427 47.7833C133.162 47.8265 133.865 47.7725 134.535 47.6211C135.205 47.4481 135.897 47.2535 136.611 47.0373ZM135.216 40.7454C134.805 40.2698 134.373 39.9238 133.919 39.7076C133.573 39.5562 133.205 39.4914 132.816 39.513C132.448 39.513 132.092 39.5671 131.746 39.6752C131.119 39.8265 130.589 40.1508 130.157 40.6481C130.113 40.6914 130.038 40.7995 129.93 40.9725C129.821 41.1238 129.713 41.286 129.605 41.4589C129.519 41.6319 129.454 41.7941 129.411 41.9454C129.367 42.0968 129.389 42.1725 129.476 42.1725H135.832C135.811 41.8698 135.757 41.6211 135.67 41.4265C135.584 41.2103 135.432 40.9833 135.216 40.7454Z" fill="url(#paint6_linear_1749_228)"/>
<path d="M148.281 44.0211C148.757 44.5184 149.103 44.886 149.319 45.1238C149.557 45.34 149.719 45.5022 149.805 45.6103C149.913 45.7184 149.989 45.7833 150.032 45.8049C150.076 45.8265 150.151 45.8914 150.259 45.9995C150.367 46.1076 150.54 46.2806 150.778 46.5184C151.016 46.7346 151.373 47.0914 151.849 47.5887C152.238 47.9779 152.551 48.4319 152.789 48.9508C153.049 49.4481 153.027 49.9887 152.724 50.5725C152.551 50.8752 152.357 51.0914 152.14 51.2211C151.924 51.3292 151.686 51.3725 151.427 51.3508C151.189 51.3292 150.93 51.2535 150.649 51.1238C150.389 50.9941 150.13 50.8319 149.87 50.6373C149.373 50.2698 148.897 49.8481 148.443 49.3725C147.989 48.8752 147.622 48.4968 147.34 48.2373C147.146 48.0427 147.027 47.913 146.984 47.8481C146.94 47.8049 146.897 47.7725 146.854 47.7508C146.811 47.7076 146.767 47.6643 146.724 47.6211C146.573 47.4698 146.411 47.3184 146.238 47.1671C146.065 47.0157 145.892 46.8535 145.719 46.6806V47.9454C145.719 48.1833 145.73 48.3562 145.751 48.4643C145.751 48.6806 145.74 48.8427 145.719 48.9508C145.654 49.1887 145.622 49.4157 145.622 49.6319C145.6 49.74 145.578 49.8481 145.557 49.9562C145.535 50.0427 145.503 50.14 145.459 50.2481C145.438 50.2914 145.416 50.3238 145.395 50.3454C145.395 50.3671 145.395 50.3995 145.395 50.4427C145.373 50.486 145.351 50.5184 145.33 50.54C145.33 50.5616 145.319 50.5941 145.297 50.6373C145.189 50.8535 145.016 51.0589 144.778 51.2535C144.367 51.4914 143.859 51.5562 143.254 51.4481C142.93 51.3833 142.681 51.2643 142.508 51.0914C142.313 50.9616 142.184 50.7779 142.119 50.54C142.076 50.4319 142.032 50.3238 141.989 50.2157C141.967 50.086 141.935 49.9671 141.892 49.8589C141.849 49.7508 141.827 49.6535 141.827 49.5671C141.827 49.4589 141.827 49.3725 141.827 49.3076V30.8535C141.827 30.7238 141.827 30.5941 141.827 30.4643C141.827 30.3346 141.838 30.2049 141.859 30.0752C141.881 29.9454 141.903 29.8265 141.924 29.7184C141.967 29.5887 142.011 29.4698 142.054 29.3616C142.14 29.1454 142.249 28.9725 142.378 28.8427C142.486 28.7346 142.595 28.6589 142.703 28.6157C142.832 28.5508 142.951 28.4968 143.059 28.4535C143.167 28.4319 143.286 28.4211 143.416 28.4211C143.567 28.3995 143.708 28.3887 143.838 28.3887C144.14 28.3887 144.443 28.4752 144.746 28.6481C145.027 28.8427 145.232 29.0914 145.362 29.3941C145.535 29.8049 145.622 30.2049 145.622 30.5941C145.643 30.8103 145.665 31.1454 145.686 31.5995C145.708 32.0319 145.719 32.3562 145.719 32.5725V32.7022C145.74 33.4157 145.751 34.0968 145.751 34.7454C145.751 35.3941 145.751 36.0968 145.751 36.8535C145.73 37.6103 145.719 38.3346 145.719 39.0265C145.719 39.6968 145.719 40.3671 145.719 41.0373V41.3941C145.892 41.2211 146.065 41.0589 146.238 40.9076C146.411 40.7562 146.573 40.5941 146.724 40.4211C146.811 40.3562 146.897 40.2806 146.984 40.1941L147.34 39.8373C147.622 39.5562 147.989 39.1779 148.443 38.7022C148.897 38.2049 149.373 37.7725 149.87 37.4049C150.411 37.0157 150.93 36.7779 151.427 36.6914C151.946 36.6049 152.378 36.8643 152.724 37.4698C153.027 38.0535 153.049 38.6049 152.789 39.1238C152.551 39.6211 152.238 40.086 151.849 40.5184C151.373 41.0157 151.016 41.3833 150.778 41.6211C150.54 41.8373 150.367 41.9995 150.259 42.1076C150.151 42.1941 150.076 42.2481 150.032 42.2698C149.989 42.2914 149.913 42.3562 149.805 42.4643C149.719 42.5508 149.557 42.713 149.319 42.9508C149.103 43.1671 148.757 43.5238 148.281 44.0211Z" fill="#F91F19"/>
<path d="M148.281 44.0211C148.757 44.5184 149.103 44.886 149.319 45.1238C149.557 45.34 149.719 45.5022 149.805 45.6103C149.913 45.7184 149.989 45.7833 150.032 45.8049C150.076 45.8265 150.151 45.8914 150.259 45.9995C150.367 46.1076 150.54 46.2806 150.778 46.5184C151.016 46.7346 151.373 47.0914 151.849 47.5887C152.238 47.9779 152.551 48.4319 152.789 48.9508C153.049 49.4481 153.027 49.9887 152.724 50.5725C152.551 50.8752 152.357 51.0914 152.14 51.2211C151.924 51.3292 151.686 51.3725 151.427 51.3508C151.189 51.3292 150.93 51.2535 150.649 51.1238C150.389 50.9941 150.13 50.8319 149.87 50.6373C149.373 50.2698 148.897 49.8481 148.443 49.3725C147.989 48.8752 147.622 48.4968 147.34 48.2373C147.146 48.0427 147.027 47.913 146.984 47.8481C146.94 47.8049 146.897 47.7725 146.854 47.7508C146.811 47.7076 146.767 47.6643 146.724 47.6211C146.573 47.4698 146.411 47.3184 146.238 47.1671C146.065 47.0157 145.892 46.8535 145.719 46.6806V47.9454C145.719 48.1833 145.73 48.3562 145.751 48.4643C145.751 48.6806 145.74 48.8427 145.719 48.9508C145.654 49.1887 145.622 49.4157 145.622 49.6319C145.6 49.74 145.578 49.8481 145.557 49.9562C145.535 50.0427 145.503 50.14 145.459 50.2481C145.438 50.2914 145.416 50.3238 145.395 50.3454C145.395 50.3671 145.395 50.3995 145.395 50.4427C145.373 50.486 145.351 50.5184 145.33 50.54C145.33 50.5616 145.319 50.5941 145.297 50.6373C145.189 50.8535 145.016 51.0589 144.778 51.2535C144.367 51.4914 143.859 51.5562 143.254 51.4481C142.93 51.3833 142.681 51.2643 142.508 51.0914C142.313 50.9616 142.184 50.7779 142.119 50.54C142.076 50.4319 142.032 50.3238 141.989 50.2157C141.967 50.086 141.935 49.9671 141.892 49.8589C141.849 49.7508 141.827 49.6535 141.827 49.5671C141.827 49.4589 141.827 49.3725 141.827 49.3076V30.8535C141.827 30.7238 141.827 30.5941 141.827 30.4643C141.827 30.3346 141.838 30.2049 141.859 30.0752C141.881 29.9454 141.903 29.8265 141.924 29.7184C141.967 29.5887 142.011 29.4698 142.054 29.3616C142.14 29.1454 142.249 28.9725 142.378 28.8427C142.486 28.7346 142.595 28.6589 142.703 28.6157C142.832 28.5508 142.951 28.4968 143.059 28.4535C143.167 28.4319 143.286 28.4211 143.416 28.4211C143.567 28.3995 143.708 28.3887 143.838 28.3887C144.14 28.3887 144.443 28.4752 144.746 28.6481C145.027 28.8427 145.232 29.0914 145.362 29.3941C145.535 29.8049 145.622 30.2049 145.622 30.5941C145.643 30.8103 145.665 31.1454 145.686 31.5995C145.708 32.0319 145.719 32.3562 145.719 32.5725V32.7022C145.74 33.4157 145.751 34.0968 145.751 34.7454C145.751 35.3941 145.751 36.0968 145.751 36.8535C145.73 37.6103 145.719 38.3346 145.719 39.0265C145.719 39.6968 145.719 40.3671 145.719 41.0373V41.3941C145.892 41.2211 146.065 41.0589 146.238 40.9076C146.411 40.7562 146.573 40.5941 146.724 40.4211C146.811 40.3562 146.897 40.2806 146.984 40.1941L147.34 39.8373C147.622 39.5562 147.989 39.1779 148.443 38.7022C148.897 38.2049 149.373 37.7725 149.87 37.4049C150.411 37.0157 150.93 36.7779 151.427 36.6914C151.946 36.6049 152.378 36.8643 152.724 37.4698C153.027 38.0535 153.049 38.6049 152.789 39.1238C152.551 39.6211 152.238 40.086 151.849 40.5184C151.373 41.0157 151.016 41.3833 150.778 41.6211C150.54 41.8373 150.367 41.9995 150.259 42.1076C150.151 42.1941 150.076 42.2481 150.032 42.2698C149.989 42.2914 149.913 42.3562 149.805 42.4643C149.719 42.5508 149.557 42.713 149.319 42.9508C149.103 43.1671 148.757 43.5238 148.281 44.0211Z" fill="url(#paint7_linear_1749_228)"/>
<path d="M166.794 47.0373C167.054 46.9725 167.313 46.9292 167.573 46.9076C167.854 46.886 168.102 46.9184 168.319 47.0049C168.557 47.0914 168.751 47.2427 168.902 47.4589C169.054 47.6535 169.129 47.9346 169.129 48.3022C169.129 48.5616 169.065 48.8103 168.935 49.0481C168.805 49.286 168.643 49.5022 168.448 49.6968C168.254 49.8914 168.038 50.0643 167.8 50.2157C167.562 50.3454 167.335 50.4535 167.119 50.54C166.492 50.8211 165.767 51.0373 164.946 51.1887C164.146 51.34 163.313 51.3941 162.448 51.3508C161.281 51.3076 160.157 51.0806 159.075 50.6698C158.016 50.2373 157.184 49.5346 156.578 48.5616C156.016 47.6103 155.681 46.5508 155.573 45.3833C155.465 44.2157 155.519 43.113 155.735 42.0752C155.973 40.8211 156.373 39.8049 156.935 39.0265C157.519 38.2265 158.211 37.5887 159.011 37.113C159.984 36.5508 161.075 36.2589 162.286 36.2373C163.497 36.2157 164.654 36.4535 165.757 36.9508C166.492 37.2752 167.151 37.7184 167.735 38.2806C168.319 38.8211 168.762 39.4806 169.065 40.2589C169.151 40.4535 169.216 40.6914 169.259 40.9725C169.324 41.2535 169.367 41.5562 169.389 41.8806C169.411 42.1833 169.411 42.486 169.389 42.7887C169.367 43.0914 169.313 43.3616 169.227 43.5995C169.097 43.9887 168.935 44.2914 168.74 44.5076C168.546 44.7238 168.297 44.886 167.994 44.9941C167.692 45.1022 167.324 45.1779 166.892 45.2211C166.481 45.2427 165.984 45.2643 165.4 45.286C164.881 45.3076 164.394 45.3184 163.94 45.3184C163.486 45.3184 163.021 45.3184 162.546 45.3184C162.07 45.2968 161.573 45.286 161.054 45.286C160.557 45.2643 159.994 45.2427 159.367 45.2211C159.302 45.6535 159.357 46.0319 159.529 46.3562C159.724 46.6589 159.984 46.9184 160.308 47.1346C160.632 47.3292 161 47.4806 161.411 47.5887C161.821 47.6968 162.221 47.7616 162.611 47.7833C163.346 47.8265 164.048 47.7725 164.719 47.6211C165.389 47.4481 166.081 47.2535 166.794 47.0373ZM165.4 40.7454C164.989 40.2698 164.557 39.9238 164.102 39.7076C163.757 39.5562 163.389 39.4914 163 39.513C162.632 39.513 162.275 39.5671 161.929 39.6752C161.302 39.8265 160.773 40.1508 160.34 40.6481C160.297 40.6914 160.221 40.7995 160.113 40.9725C160.005 41.1238 159.897 41.286 159.789 41.4589C159.702 41.6319 159.638 41.7941 159.594 41.9454C159.551 42.0968 159.573 42.1725 159.659 42.1725H166.016C165.994 41.8698 165.94 41.6211 165.854 41.4265C165.767 41.2103 165.616 40.9833 165.4 40.7454Z" fill="#F91F19"/>
<path d="M166.794 47.0373C167.054 46.9725 167.313 46.9292 167.573 46.9076C167.854 46.886 168.102 46.9184 168.319 47.0049C168.557 47.0914 168.751 47.2427 168.902 47.4589C169.054 47.6535 169.129 47.9346 169.129 48.3022C169.129 48.5616 169.065 48.8103 168.935 49.0481C168.805 49.286 168.643 49.5022 168.448 49.6968C168.254 49.8914 168.038 50.0643 167.8 50.2157C167.562 50.3454 167.335 50.4535 167.119 50.54C166.492 50.8211 165.767 51.0373 164.946 51.1887C164.146 51.34 163.313 51.3941 162.448 51.3508C161.281 51.3076 160.157 51.0806 159.075 50.6698C158.016 50.2373 157.184 49.5346 156.578 48.5616C156.016 47.6103 155.681 46.5508 155.573 45.3833C155.465 44.2157 155.519 43.113 155.735 42.0752C155.973 40.8211 156.373 39.8049 156.935 39.0265C157.519 38.2265 158.211 37.5887 159.011 37.113C159.984 36.5508 161.075 36.2589 162.286 36.2373C163.497 36.2157 164.654 36.4535 165.757 36.9508C166.492 37.2752 167.151 37.7184 167.735 38.2806C168.319 38.8211 168.762 39.4806 169.065 40.2589C169.151 40.4535 169.216 40.6914 169.259 40.9725C169.324 41.2535 169.367 41.5562 169.389 41.8806C169.411 42.1833 169.411 42.486 169.389 42.7887C169.367 43.0914 169.313 43.3616 169.227 43.5995C169.097 43.9887 168.935 44.2914 168.74 44.5076C168.546 44.7238 168.297 44.886 167.994 44.9941C167.692 45.1022 167.324 45.1779 166.892 45.2211C166.481 45.2427 165.984 45.2643 165.4 45.286C164.881 45.3076 164.394 45.3184 163.94 45.3184C163.486 45.3184 163.021 45.3184 162.546 45.3184C162.07 45.2968 161.573 45.286 161.054 45.286C160.557 45.2643 159.994 45.2427 159.367 45.2211C159.302 45.6535 159.357 46.0319 159.529 46.3562C159.724 46.6589 159.984 46.9184 160.308 47.1346C160.632 47.3292 161 47.4806 161.411 47.5887C161.821 47.6968 162.221 47.7616 162.611 47.7833C163.346 47.8265 164.048 47.7725 164.719 47.6211C165.389 47.4481 166.081 47.2535 166.794 47.0373ZM165.4 40.7454C164.989 40.2698 164.557 39.9238 164.102 39.7076C163.757 39.5562 163.389 39.4914 163 39.513C162.632 39.513 162.275 39.5671 161.929 39.6752C161.302 39.8265 160.773 40.1508 160.34 40.6481C160.297 40.6914 160.221 40.7995 160.113 40.9725C160.005 41.1238 159.897 41.286 159.789 41.4589C159.702 41.6319 159.638 41.7941 159.594 41.9454C159.551 42.0968 159.573 42.1725 159.659 42.1725H166.016C165.994 41.8698 165.94 41.6211 165.854 41.4265C165.767 41.2103 165.616 40.9833 165.4 40.7454Z" fill="url(#paint8_linear_1749_228)"/>
<path d="M184.561 37.1779C184.734 37.5887 184.745 38.0427 184.593 38.54C184.463 39.0373 184.215 39.3616 183.847 39.513C183.653 39.5995 183.393 39.6752 183.069 39.74C182.745 39.7833 182.388 39.8265 181.999 39.8698C181.631 39.913 181.263 39.9454 180.896 39.9671C180.528 39.9887 180.215 39.9995 179.955 39.9995C179.977 40.6481 179.999 41.3184 180.02 42.0103C180.042 42.6806 180.063 43.34 180.085 43.9887C180.107 44.6373 180.117 45.2643 180.117 45.8698C180.117 46.4535 180.107 46.9833 180.085 47.4589C180.085 47.7833 180.085 48.1616 180.085 48.5941C180.085 49.0049 180.053 49.4049 179.988 49.7941C179.945 50.1833 179.869 50.5292 179.761 50.8319C179.653 51.113 179.49 51.2968 179.274 51.3833C178.604 51.6643 177.988 51.74 177.426 51.6103C176.885 51.5022 176.496 51.2752 176.258 50.9292C176.085 50.6481 175.955 50.3238 175.869 49.9562C175.782 49.5671 175.717 49.1779 175.674 48.7887C175.653 48.3779 175.642 47.9887 175.642 47.6211C175.663 47.2319 175.674 46.8968 175.674 46.6157C175.696 45.7076 175.707 44.6806 175.707 43.5346C175.728 42.3671 175.739 41.1995 175.739 40.0319H175.253C174.993 40.0319 174.658 40.0319 174.247 40.0319C173.858 40.0103 173.458 39.9779 173.047 39.9346C172.658 39.8698 172.29 39.7941 171.945 39.7076C171.599 39.5995 171.35 39.4481 171.199 39.2535C170.961 38.9725 170.809 38.6698 170.745 38.3454C170.701 38.0211 170.723 37.7184 170.809 37.4373C170.917 37.1346 171.08 36.8752 171.296 36.6589C171.512 36.4211 171.761 36.2698 172.042 36.2049C172.431 36.0968 172.982 36.0427 173.696 36.0427C174.409 36.0211 175.08 36.0211 175.707 36.0427C175.685 35.8265 175.674 35.6211 175.674 35.4265C175.674 35.2103 175.663 35.0049 175.642 34.8103C175.62 34.5508 175.609 34.2265 175.609 33.8373C175.609 33.4265 175.631 33.0265 175.674 32.6373C175.739 32.2265 175.836 31.8481 175.966 31.5022C176.096 31.1346 176.28 30.8535 176.517 30.6589C176.842 30.3995 177.166 30.2589 177.49 30.2373C177.836 30.1941 178.15 30.2373 178.431 30.3671C178.734 30.4968 178.982 30.6914 179.177 30.9508C179.393 31.1887 179.545 31.4589 179.631 31.7616C179.696 32.0211 179.75 32.3346 179.793 32.7022C179.836 33.0481 179.858 33.4157 179.858 33.8049C179.88 34.1941 179.89 34.5833 179.89 34.9725C179.89 35.3616 179.89 35.7184 179.89 36.0427H180.215C180.539 36.0427 180.917 36.0319 181.35 36.0103C181.782 35.9887 182.204 35.9995 182.615 36.0427C183.047 36.086 183.436 36.1941 183.782 36.3671C184.128 36.5184 184.388 36.7887 184.561 37.1779Z" fill="#F91F19"/>
<path d="M184.561 37.1779C184.734 37.5887 184.745 38.0427 184.593 38.54C184.463 39.0373 184.215 39.3616 183.847 39.513C183.653 39.5995 183.393 39.6752 183.069 39.74C182.745 39.7833 182.388 39.8265 181.999 39.8698C181.631 39.913 181.263 39.9454 180.896 39.9671C180.528 39.9887 180.215 39.9995 179.955 39.9995C179.977 40.6481 179.999 41.3184 180.02 42.0103C180.042 42.6806 180.063 43.34 180.085 43.9887C180.107 44.6373 180.117 45.2643 180.117 45.8698C180.117 46.4535 180.107 46.9833 180.085 47.4589C180.085 47.7833 180.085 48.1616 180.085 48.5941C180.085 49.0049 180.053 49.4049 179.988 49.7941C179.945 50.1833 179.869 50.5292 179.761 50.8319C179.653 51.113 179.49 51.2968 179.274 51.3833C178.604 51.6643 177.988 51.74 177.426 51.6103C176.885 51.5022 176.496 51.2752 176.258 50.9292C176.085 50.6481 175.955 50.3238 175.869 49.9562C175.782 49.5671 175.717 49.1779 175.674 48.7887C175.653 48.3779 175.642 47.9887 175.642 47.6211C175.663 47.2319 175.674 46.8968 175.674 46.6157C175.696 45.7076 175.707 44.6806 175.707 43.5346C175.728 42.3671 175.739 41.1995 175.739 40.0319H175.253C174.993 40.0319 174.658 40.0319 174.247 40.0319C173.858 40.0103 173.458 39.9779 173.047 39.9346C172.658 39.8698 172.29 39.7941 171.945 39.7076C171.599 39.5995 171.35 39.4481 171.199 39.2535C170.961 38.9725 170.809 38.6698 170.745 38.3454C170.701 38.0211 170.723 37.7184 170.809 37.4373C170.917 37.1346 171.08 36.8752 171.296 36.6589C171.512 36.4211 171.761 36.2698 172.042 36.2049C172.431 36.0968 172.982 36.0427 173.696 36.0427C174.409 36.0211 175.08 36.0211 175.707 36.0427C175.685 35.8265 175.674 35.6211 175.674 35.4265C175.674 35.2103 175.663 35.0049 175.642 34.8103C175.62 34.5508 175.609 34.2265 175.609 33.8373C175.609 33.4265 175.631 33.0265 175.674 32.6373C175.739 32.2265 175.836 31.8481 175.966 31.5022C176.096 31.1346 176.28 30.8535 176.517 30.6589C176.842 30.3995 177.166 30.2589 177.49 30.2373C177.836 30.1941 178.15 30.2373 178.431 30.3671C178.734 30.4968 178.982 30.6914 179.177 30.9508C179.393 31.1887 179.545 31.4589 179.631 31.7616C179.696 32.0211 179.75 32.3346 179.793 32.7022C179.836 33.0481 179.858 33.4157 179.858 33.8049C179.88 34.1941 179.89 34.5833 179.89 34.9725C179.89 35.3616 179.89 35.7184 179.89 36.0427H180.215C180.539 36.0427 180.917 36.0319 181.35 36.0103C181.782 35.9887 182.204 35.9995 182.615 36.0427C183.047 36.086 183.436 36.1941 183.782 36.3671C184.128 36.5184 184.388 36.7887 184.561 37.1779Z" fill="url(#paint9_linear_1749_228)"/>
<path d="M193.698 45.7725C193.287 45.513 192.822 45.3076 192.303 45.1562C191.806 45.0049 191.287 44.8643 190.746 44.7346C190.228 44.6049 189.719 44.4643 189.222 44.313C188.725 44.14 188.271 43.9022 187.86 43.5995C186.973 42.9292 186.455 42.1076 186.303 41.1346C186.173 40.14 186.39 39.1454 186.952 38.1508C187.255 37.6319 187.655 37.2103 188.152 36.886C188.649 36.54 189.19 36.2806 189.773 36.1076C190.379 35.913 190.995 35.8049 191.622 35.7833C192.249 35.7616 192.844 35.7941 193.406 35.8806C193.773 35.9454 194.163 36.0427 194.573 36.1725C194.984 36.2806 195.363 36.4319 195.709 36.6265C196.076 36.8211 196.401 37.0698 196.682 37.3725C196.984 37.6535 197.201 38.0103 197.33 38.4427C197.417 38.7238 197.428 38.9941 197.363 39.2535C197.319 39.513 197.211 39.7292 197.038 39.9022C196.887 40.0752 196.682 40.2049 196.422 40.2914C196.184 40.3779 195.925 40.3995 195.644 40.3562C195.319 40.2914 195.017 40.1941 194.736 40.0643C194.455 39.9346 194.173 39.7941 193.892 39.6427C193.611 39.4914 193.319 39.3616 193.017 39.2535C192.736 39.1454 192.433 39.0914 192.109 39.0914C191.611 39.0698 191.201 39.1562 190.876 39.3508C190.552 39.5454 190.325 39.7833 190.195 40.0643C190.087 40.3454 190.098 40.6481 190.228 40.9725C190.379 41.2968 190.682 41.5779 191.136 41.8157C191.546 42.0319 192.001 42.2049 192.498 42.3346C192.995 42.4643 193.482 42.5941 193.957 42.7238C194.455 42.8535 194.93 43.0049 195.384 43.1779C195.86 43.3508 196.282 43.5887 196.649 43.8914C197.363 44.4752 197.795 45.1562 197.946 45.9346C198.119 46.713 198.076 47.4806 197.817 48.2373C197.557 48.9941 197.103 49.6643 196.455 50.2481C195.828 50.8319 195.082 51.2211 194.217 51.4157C193.59 51.5454 192.909 51.6103 192.173 51.6103C191.46 51.6103 190.746 51.5346 190.033 51.3833C189.341 51.2319 188.671 50.9941 188.022 50.6698C187.395 50.3454 186.865 49.9346 186.433 49.4373C186.13 49.0914 185.968 48.7022 185.946 48.2698C185.946 47.8157 186.033 47.4265 186.206 47.1022C186.401 46.7562 186.671 46.5184 187.017 46.3887C187.363 46.2589 187.752 46.3346 188.184 46.6157C188.53 46.8535 188.941 47.0914 189.417 47.3292C189.892 47.5454 190.368 47.7184 190.844 47.8481C191.319 47.9779 191.773 48.0427 192.206 48.0427C192.66 48.0427 193.049 47.9454 193.373 47.7508C193.849 47.4481 194.098 47.1022 194.119 46.713C194.141 46.3022 194.001 45.9887 193.698 45.7725Z" fill="#F91F19"/>
<path d="M193.698 45.7725C193.287 45.513 192.822 45.3076 192.303 45.1562C191.806 45.0049 191.287 44.8643 190.746 44.7346C190.228 44.6049 189.719 44.4643 189.222 44.313C188.725 44.14 188.271 43.9022 187.86 43.5995C186.973 42.9292 186.455 42.1076 186.303 41.1346C186.173 40.14 186.39 39.1454 186.952 38.1508C187.255 37.6319 187.655 37.2103 188.152 36.886C188.649 36.54 189.19 36.2806 189.773 36.1076C190.379 35.913 190.995 35.8049 191.622 35.7833C192.249 35.7616 192.844 35.7941 193.406 35.8806C193.773 35.9454 194.163 36.0427 194.573 36.1725C194.984 36.2806 195.363 36.4319 195.709 36.6265C196.076 36.8211 196.401 37.0698 196.682 37.3725C196.984 37.6535 197.201 38.0103 197.33 38.4427C197.417 38.7238 197.428 38.9941 197.363 39.2535C197.319 39.513 197.211 39.7292 197.038 39.9022C196.887 40.0752 196.682 40.2049 196.422 40.2914C196.184 40.3779 195.925 40.3995 195.644 40.3562C195.319 40.2914 195.017 40.1941 194.736 40.0643C194.455 39.9346 194.173 39.7941 193.892 39.6427C193.611 39.4914 193.319 39.3616 193.017 39.2535C192.736 39.1454 192.433 39.0914 192.109 39.0914C191.611 39.0698 191.201 39.1562 190.876 39.3508C190.552 39.5454 190.325 39.7833 190.195 40.0643C190.087 40.3454 190.098 40.6481 190.228 40.9725C190.379 41.2968 190.682 41.5779 191.136 41.8157C191.546 42.0319 192.001 42.2049 192.498 42.3346C192.995 42.4643 193.482 42.5941 193.957 42.7238C194.455 42.8535 194.93 43.0049 195.384 43.1779C195.86 43.3508 196.282 43.5887 196.649 43.8914C197.363 44.4752 197.795 45.1562 197.946 45.9346C198.119 46.713 198.076 47.4806 197.817 48.2373C197.557 48.9941 197.103 49.6643 196.455 50.2481C195.828 50.8319 195.082 51.2211 194.217 51.4157C193.59 51.5454 192.909 51.6103 192.173 51.6103C191.46 51.6103 190.746 51.5346 190.033 51.3833C189.341 51.2319 188.671 50.9941 188.022 50.6698C187.395 50.3454 186.865 49.9346 186.433 49.4373C186.13 49.0914 185.968 48.7022 185.946 48.2698C185.946 47.8157 186.033 47.4265 186.206 47.1022C186.401 46.7562 186.671 46.5184 187.017 46.3887C187.363 46.2589 187.752 46.3346 188.184 46.6157C188.53 46.8535 188.941 47.0914 189.417 47.3292C189.892 47.5454 190.368 47.7184 190.844 47.8481C191.319 47.9779 191.773 48.0427 192.206 48.0427C192.66 48.0427 193.049 47.9454 193.373 47.7508C193.849 47.4481 194.098 47.1022 194.119 46.713C194.141 46.3022 194.001 45.9887 193.698 45.7725Z" fill="url(#paint10_linear_1749_228)"/>
<defs>
<linearGradient id="paint0_linear_1749_228" x1="65.8593" y1="17.3026" x2="9.86326" y2="49.1344" gradientUnits="userSpaceOnUse">
<stop stop-color="#130707" stop-opacity="0.4"/>
<stop offset="0.5625" stop-opacity="0"/>
</linearGradient>
<linearGradient id="paint1_linear_1749_228" x1="69.5799" y1="10.1173" x2="17.9144" y2="55.0183" gradientUnits="userSpaceOnUse">
<stop stop-color="#5E0D0F"/>
<stop offset="1" stop-color="#FF221B"/>
</linearGradient>
<linearGradient id="paint2_linear_1749_228" x1="66.8351" y1="34.6362" x2="41.8438" y2="37.2894" gradientUnits="userSpaceOnUse">
<stop stop-color="#FF0000" stop-opacity="0.8"/>
<stop offset="0.630208" stop-color="#FF0000" stop-opacity="0"/>
</linearGradient>
<linearGradient id="paint3_linear_1749_228" x1="70.7882" y1="33.5142" x2="39.9773" y2="42.4331" gradientUnits="userSpaceOnUse">
<stop stop-color="#FF221B"/>
<stop offset="1" stop-color="#BB0006"/>
</linearGradient>
<linearGradient id="paint4_linear_1749_228" x1="177.101" y1="27.1469" x2="163.443" y2="73.3552" gradientUnits="userSpaceOnUse">
<stop stop-color="#5E0D0F"/>
<stop offset="1" stop-color="#FF221B"/>
</linearGradient>
<linearGradient id="paint5_linear_1749_228" x1="177.101" y1="27.1469" x2="163.443" y2="73.3552" gradientUnits="userSpaceOnUse">
<stop stop-color="#5E0D0F"/>
<stop offset="1" stop-color="#FF221B"/>
</linearGradient>
<linearGradient id="paint6_linear_1749_228" x1="177.101" y1="27.1469" x2="163.443" y2="73.3552" gradientUnits="userSpaceOnUse">
<stop stop-color="#5E0D0F"/>
<stop offset="1" stop-color="#FF221B"/>
</linearGradient>
<linearGradient id="paint7_linear_1749_228" x1="177.101" y1="27.1469" x2="163.443" y2="73.3552" gradientUnits="userSpaceOnUse">
<stop stop-color="#5E0D0F"/>
<stop offset="1" stop-color="#FF221B"/>
</linearGradient>
<linearGradient id="paint8_linear_1749_228" x1="177.101" y1="27.1469" x2="163.443" y2="73.3552" gradientUnits="userSpaceOnUse">
<stop stop-color="#5E0D0F"/>
<stop offset="1" stop-color="#FF221B"/>
</linearGradient>
<linearGradient id="paint9_linear_1749_228" x1="177.101" y1="27.1469" x2="163.443" y2="73.3552" gradientUnits="userSpaceOnUse">
<stop stop-color="#5E0D0F"/>
<stop offset="1" stop-color="#FF221B"/>
</linearGradient>
<linearGradient id="paint10_linear_1749_228" x1="177.101" y1="27.1469" x2="163.443" y2="73.3552" gradientUnits="userSpaceOnUse">
<stop stop-color="#5E0D0F"/>
<stop offset="1" stop-color="#FF221B"/>
</linearGradient>
</defs>
</svg>
