<svg width="11" height="12" viewBox="0 0 11 12" fill="none" xmlns="http://www.w3.org/2000/svg">
<path id="Vector" d="M10.5707 6.00647C10.7459 6.18158 10.8335 6.40444 10.8335 6.67507C10.8335 6.94569 10.7459 7.16856 10.5707 7.34367L6.17547 11.7373C6.07992 11.8328 5.97641 11.9003 5.86494 11.9398C5.75347 11.9793 5.63403 11.9994 5.50663 12C5.37923 12 5.25979 11.9799 5.14832 11.9398C5.03685 11.8997 4.93334 11.8322 4.83779 11.7373L0.442525 7.34367C0.267352 7.16856 0.175624 6.94951 0.167344 6.68653C0.159062 6.42354 0.25079 6.19686 0.442525 6.00647C0.617698 5.83136 0.840645 5.7438 1.11137 5.7438C1.38209 5.7438 1.60504 5.83136 1.78021 6.00647L5.50663 9.70765L9.23305 6.00647C9.40822 5.83136 9.62735 5.73966 9.89043 5.73138C10.1535 5.72311 10.3803 5.8148 10.5707 6.00647ZM10.5707 0.275596C10.7459 0.450706 10.8335 0.673573 10.8335 0.944198C10.8335 1.21482 10.7459 1.43769 10.5707 1.6128L6.17547 6.00647C6.07993 6.10198 5.97641 6.16948 5.86494 6.20896C5.75347 6.24844 5.63403 6.26849 5.50663 6.26913C5.37923 6.26913 5.2598 6.24907 5.14832 6.20896C5.03685 6.16884 4.93334 6.10134 4.83779 6.00647L0.442526 1.6128C0.267352 1.43769 0.175625 1.21864 0.167344 0.955657C0.159062 0.692675 0.250791 0.465986 0.442526 0.275595C0.617699 0.100485 0.840646 0.01293 1.11137 0.01293C1.38209 0.01293 1.60504 0.100485 1.78021 0.275595L5.50663 3.97678L9.23305 0.275596C9.40822 0.100486 9.62735 0.00879086 9.89043 0.000512994C10.1535 -0.00776488 10.3803 0.08393 10.5707 0.275596Z" fill="#B3B3B3"/>
</svg>
