<svg width="637" height="361" viewBox="0 0 637 361" fill="none" xmlns="http://www.w3.org/2000/svg">
<path d="M375.295 158.512H86.5675C83.4432 158.512 80.9067 155.974 80.9067 152.847V127.955C80.9067 124.828 83.4432 123.79 86.5675 123.79H361.795C364.919 123.79 380.956 124.828 380.956 127.955V152.847C380.956 155.974 378.419 158.512 375.295 158.512Z" fill="white"/>
<path d="M71.6211 91.3313L356.204 0L365.793 29.7214L79.973 121.472L71.6211 91.3313Z" fill="white"/>
<path d="M208.004 179.997H310.004V275.997H208.004V179.997Z" fill="white"/>
<path d="M79.9132 122.505C89.1003 132.474 97.1428 140.926 104.845 149.718C107.846 153.124 110.939 154.424 115.455 154.27C125.972 153.929 136.52 154.177 148.801 154.177C138.902 143.31 129.994 133.527 120.033 122.629C132.994 122.629 144.656 122.629 156.287 122.629C158.854 122.629 159.968 124.703 161.39 126.251C168.938 134.362 176.455 142.536 183.91 150.709C185.735 152.722 187.498 154.27 190.591 154.208C202.098 154.022 213.605 154.146 226.721 154.146C217.039 143.465 208.316 133.805 198.293 122.753C212.399 122.753 224.927 122.629 237.454 122.907C238.908 122.938 240.455 125.105 241.754 126.499C249.116 134.455 256.416 142.474 263.747 150.462C265.356 152.195 266.717 154.239 269.563 154.208C281.503 154.146 293.474 154.177 306.899 154.177C296.938 143.248 287.999 133.403 278.069 122.505C290.875 122.505 302.321 122.536 313.766 122.474C316.581 122.474 318.004 124.455 319.612 126.22C326.789 134.022 334.12 141.7 341.018 149.749C343.987 153.217 347.142 154.486 351.628 154.301C359.577 153.96 367.527 154.393 375.477 154.115C379.282 153.991 381.045 154.61 381.045 159.068C380.89 210.152 380.983 261.266 380.859 312.35C380.828 320.647 376.621 324.486 368.239 324.889C367.032 324.951 365.826 324.92 364.619 324.92C359.082 324.92 353.02 326.282 348.132 324.486C342.502 322.443 344.637 315.013 342.533 310.214C335.604 294.548 320.262 285.167 302.444 286.499C286.452 287.706 271.945 300.028 268.913 316.653C267.614 323.681 265.047 326.127 258.365 324.951C257.654 324.827 256.911 324.951 256.2 324.92C251.622 324.858 246.58 326.003 242.62 324.455C238.197 322.722 240.269 316.777 238.846 312.814C232.629 295.539 216.575 285.013 197.675 286.53C180.754 287.892 165.783 302.04 163.556 319.626C162.968 324.177 161.421 325.044 157.369 325.013C127.983 324.889 98.5967 324.951 69.2104 324.951C65.0964 324.951 60.9514 324.486 60.9204 319.223C60.9204 313.743 65.251 313.805 69.2723 313.836C83.718 313.867 98.1636 313.836 112.64 313.836C116.909 313.836 121.456 313.712 121.456 307.954C121.456 302.009 116.785 302.319 112.578 302.319C84.646 302.319 56.7136 302.319 28.7502 302.319C26.3684 302.319 23.9556 302.691 21.6666 301.421C19.2229 300.09 18.3259 298.078 18.728 295.415C19.0682 292.969 20.6458 291.514 22.9658 291.143C24.8527 290.864 26.8015 290.957 28.7193 290.957C62.6836 290.957 96.6479 290.957 130.612 290.957C132.53 290.957 134.479 291.05 136.397 290.833C139.459 290.462 141.16 288.356 141.315 285.477C141.47 282.195 139.614 279.997 136.273 279.502C134.386 279.223 132.437 279.378 130.488 279.378C105.68 279.378 80.8721 279.347 56.064 279.378C51.8262 279.378 46.9388 279.595 46.9697 273.929C46.9697 268.635 51.4859 267.985 55.9402 268.016C80.2535 268.17 104.567 268.294 128.88 268.201C133.798 268.17 141.098 270.121 141.47 262.474C141.841 254.641 134.355 256.777 129.901 256.684C110.444 256.282 90.9872 256.344 71.5304 256.282C55.1978 256.22 38.8653 256.158 22.5637 256.189C17.5216 256.189 12.4795 256.406 7.43748 256.684C3.66367 256.901 1.1581 255.291 1.00344 251.576C0.848776 247.83 3.32341 246.096 7.06629 246.065C28.1625 246.003 49.2897 245.818 70.3859 245.787C96.1221 245.787 121.858 245.972 147.594 245.972C151.925 245.972 155.328 244.239 154.956 239.161C154.585 233.991 150.502 233.124 146.512 233.434C127.797 234.92 109.083 233.186 90.3685 233.712C87.7392 233.774 85.079 233.588 82.4497 233.341C79.3874 233.031 76.6962 232.04 76.8818 228.17C77.0674 224.393 79.6658 223.403 82.8209 223.372C96.3077 223.217 109.763 223.093 123.25 223C124.704 223 126.127 223.155 127.581 223.186C131.88 223.341 133.829 220.616 133.922 216.901C134.015 213.279 131.695 211.297 127.89 211.266C112.733 211.205 97.545 211.05 82.3879 211.019C72.0253 211.019 61.6937 211.112 51.3312 211.266C47.1862 211.328 43.7836 209.997 43.9073 205.446C44.0311 200.895 47.5574 199.842 51.6096 199.873C73.0461 199.935 94.4826 199.873 115.919 199.873C120.25 199.873 125.57 200.585 125.632 194.301C125.694 187.582 120.095 188.294 115.517 188.294C102.742 188.263 89.9973 188.263 77.2221 188.294C73.4482 188.294 69.4579 188.387 69.3032 183.279C69.1486 178.047 73.0771 177.149 77.253 177.118C88.8219 177.056 100.36 177.118 111.929 177.087C115.857 177.087 120.281 177.242 120.435 171.731C120.59 165.941 116.259 165.601 111.867 165.601C96.6788 165.57 81.5217 165.477 66.3337 165.384C62.1887 165.353 57.425 165.663 57.7034 159.533C57.9509 153.991 62.4671 154.424 66.3337 154.331C79.8514 153.991 79.8513 154.022 79.8513 140.616C79.9132 135.229 79.9132 129.811 79.9132 122.505ZM224.122 252.412C224.122 256.746 223.844 261.081 224.184 265.353C224.865 274.177 227.401 275.353 235.073 271.328C255.705 260.492 275.347 248.016 295.515 236.406C298.176 234.889 301.949 234.331 302.166 230.585C302.413 226.375 298.33 225.446 295.577 223.836C275.687 212.195 255.736 200.678 235.753 189.161C227.308 184.301 224.617 185.818 224.524 195.446C224.277 214.424 223.411 233.434 224.122 252.412Z" fill="#131313"/>
<path d="M249.394 34.1148C243.486 46.9321 238.32 58.0157 233.247 69.1303C232.227 71.3594 231.33 73.2479 228.577 74.0838C217.193 77.5823 205.903 81.3284 193.251 85.4151C199.221 72.3501 204.635 60.4925 210.048 48.6349C210.666 47.2727 211.718 46.3439 213.172 45.8795C224.741 42.1334 236.279 38.3563 249.394 34.1148Z" fill="#131313"/>
<path d="M118.92 109.223C124.797 96.3748 129.994 85.0436 135.221 73.6813C135.902 72.1953 136.397 70.4615 138.253 69.8733C149.358 66.3439 160.462 62.7835 173.052 58.7897C166.989 71.9786 161.638 83.7123 156.225 95.3841C155.761 96.4058 154.895 97.6442 153.936 97.9847C142.676 101.669 131.386 105.229 118.92 109.223Z" fill="#131313"/>
<path d="M323.633 10.3377C317.756 23.186 312.498 34.5173 307.394 45.9104C306.311 48.3253 304.702 49.7185 302.259 50.4925C291.773 53.7742 281.286 57.0869 269.47 60.833C275.502 47.7061 281.07 35.6008 286.607 23.4956C287.411 21.7309 289.174 21.3284 290.721 20.833C301.207 17.4275 311.693 14.1148 323.633 10.3377Z" fill="#131313"/>
<path d="M306.961 290.74C326.015 290.864 341.265 306.282 341.203 325.322C341.141 344.146 325.551 359.873 306.775 360.028C287.689 360.183 271.728 344.27 271.821 325.136C271.914 305.694 287.349 290.585 306.961 290.74ZM319.674 296.777C311.291 291.081 299.042 291.421 293.443 297.52C290.288 298.232 287.751 299.966 285.648 302.412C273.491 306.839 269.625 334.579 281.998 345.26C283.761 346.87 285.493 348.511 287.256 350.121C298.021 360.09 315.034 360.09 325.799 350.121C330.098 346.963 332.356 342.195 335.388 338.047C344.451 323.155 333.841 299.657 319.396 296.592L319.674 296.777Z" fill="#131313"/>
<path d="M79.9132 123.465C76.4487 112.66 73.7266 103.836 70.6952 95.0745C69.6435 91.9786 71.1592 91.4522 73.4482 90.7092C81.398 88.2324 89.3168 85.6009 98.6895 82.5668C95.3487 89.9043 92.5029 96.251 89.5952 102.567C86.7184 108.852 83.7798 115.105 79.9132 123.465Z" fill="#131313"/>
<path d="M202.005 290.74C221.122 290.771 236.403 305.848 236.681 324.92C236.929 343.898 220.905 360.059 201.912 359.997C182.951 359.935 167.577 344.517 167.515 325.508C167.453 305.694 182.332 290.709 202.005 290.74ZM224.03 347.489C235.011 338.728 237.64 322.164 229.845 310.771C227.741 306.251 223.968 303.155 220.627 299.657C208.872 289.935 190.993 290.647 182.085 301.174L182.363 300.926C172.403 306.189 169.557 315.756 169.742 325.601C169.928 336.653 174.011 346.653 185.24 351.793L184.961 351.576C196.406 361.143 214.904 359.099 224.277 347.211L224.03 347.489Z" fill="#131313"/>
<path d="M45.6087 188.201C40.8141 188.201 36.0195 188.17 31.2558 188.201C27.6057 188.232 25.0692 186.592 24.8527 182.907C24.6362 179.13 27.2345 177.087 30.699 176.994C40.5047 176.777 50.3105 176.808 60.1471 176.994C63.6116 177.056 66.3028 179.037 66.21 182.753C66.1172 186.375 63.7044 188.201 59.9924 188.201C55.1978 188.17 50.4032 188.201 45.6087 188.201Z" fill="#131313"/>
<path d="M356.503 122.247C357.253 122.247 359.318 122.247 359.503 122.247C365.218 122.247 370.213 121.527 374.413 122.07C377.962 122.529 381.007 125.104 381.666 128.622C382.739 134.358 380.836 141.959 380.859 149.471C372.229 140.09 364.391 130.792 356.503 122.247Z" fill="#131313"/>
<path d="M343.833 36.9321C348.72 26.251 353.051 16.8083 358.031 5.94141C360.691 13.9909 362.949 20.833 365.238 27.6751C365.857 29.5637 364.96 30.1829 363.351 30.6782C357.257 32.5668 351.195 34.5482 343.833 36.9321Z" fill="#131313"/>
<path d="M43.8455 313.836C45.0519 313.836 46.2582 313.836 47.4646 313.836C51.6715 313.805 56.3733 313.588 56.3114 319.533C56.2496 324.951 51.8262 324.92 47.8668 324.92C44.0001 324.92 40.1645 324.982 36.2979 324.827C32.7715 324.672 30.2041 323.155 30.3278 319.13C30.4515 315.105 33.0499 313.836 36.6381 313.867C39.0199 313.867 41.4327 313.867 43.8455 313.836Z" fill="#131313"/>
<path d="M335.388 338.047C332.356 342.195 330.098 346.994 325.799 350.121C321.839 351.607 317.942 353.186 313.951 354.517C304.331 357.706 295.887 353.341 287.256 350.121C285.493 348.511 283.761 346.87 281.998 345.26C274.326 330.214 273.46 315.756 285.648 302.412C287.751 299.966 290.257 298.232 293.443 297.52C302.104 293.805 310.889 295.013 319.674 296.777L319.396 296.592C327.222 302.722 334.491 309.161 336.532 319.749C337.77 326.096 335.079 331.948 335.388 338.047ZM288.989 321.824C283.792 322.691 280.575 325.415 280.42 330.802C280.296 335.756 284.751 340.028 289.576 339.811C294.556 339.595 298.392 335.198 297.959 330.09C297.464 324.641 293.938 322.381 288.989 321.824ZM332.604 329.626C331.985 325.291 329.047 322.226 323.819 321.886C318.87 321.576 314.787 326.034 315.034 331.143C315.312 336.622 318.653 339.378 323.726 339.78C328.552 340.152 332.82 335.415 332.604 329.626ZM304.857 309.935C304.146 305.229 301.3 302.009 296.103 301.514C291.278 301.081 286.576 305.694 286.916 310.554C287.318 315.725 290.35 318.975 295.608 319.44C300.279 319.873 304.919 315.075 304.857 309.935ZM326.108 310.492C325.706 305.446 322.984 302.195 317.725 301.576C313.023 301.019 308.074 305.539 308.229 310.307C308.414 315.601 311.539 318.728 316.643 319.471C321.375 320.121 325.953 315.632 326.108 310.492ZM315.312 344.548C315.467 338.573 311.353 334.053 306.466 334.424C301.3 334.796 298.083 337.644 297.773 343.062C297.495 348.14 301.547 352.381 306.589 352.164C311.91 351.948 314.663 348.79 315.312 344.548Z" fill="#131313"/>
<path d="M220.627 299.657C223.968 303.155 227.741 306.251 229.845 310.771C233.928 323.96 232.474 336.282 224.03 347.489L224.277 347.242C219.018 349.254 214.873 353.248 209.182 354.734C200.49 357.025 192.88 353.774 184.961 351.607L185.24 351.824C179.61 345.167 173.052 339.316 171.969 329.657C170.701 318.14 175.156 309.161 182.363 300.957L182.085 301.205C189.694 297.118 197.489 294.084 206.491 295.229C211.564 295.818 215.616 299.13 220.627 299.657ZM221.369 309.223C220.967 304.796 217.812 301.917 212.677 301.545C207.79 301.205 203.521 305.787 203.799 310.771C204.109 316.189 207.449 319.006 212.553 319.44C217.348 319.842 221.524 315.198 221.369 309.223ZM201.603 352.195C206.521 352.381 211.192 348.17 210.883 343.341C210.543 338.201 207.542 334.951 202.315 334.424C197.52 333.96 192.849 338.511 193.128 343.372C193.375 348.573 196.221 351.7 201.603 352.195ZM200.026 310.121C199.871 305.446 195.757 301.421 191.21 301.452C186.446 301.483 181.837 306.158 182.301 310.864C182.827 316.096 186.075 319.099 191.241 319.471C196.128 319.78 200.18 315.198 200.026 310.121ZM175.836 331.359C176.331 336.437 179.393 339.409 184.559 339.78C189.23 340.121 193.994 335.229 193.561 330.554C193.066 325.353 189.941 322.226 184.745 321.886C179.795 321.576 175.681 326.065 175.836 331.359ZM210.233 330.833C210.264 335.725 214.812 340.276 219.544 339.749C224.71 339.161 227.834 336.034 228.144 330.802C228.422 326.034 223.596 321.452 218.833 321.917C213.605 322.443 210.759 325.57 210.233 330.833Z" fill="#131313"/>
<path d="M208.009 180.054H310.01V276.054H208.009V180.054Z" fill="white"/>
<path d="M79.9191 122.562C89.1061 132.531 97.1487 140.983 104.851 149.776C107.851 153.181 110.945 154.481 115.461 154.327C125.978 153.986 136.526 154.234 148.807 154.234C138.908 143.367 129.999 133.584 120.039 122.686C133 122.686 144.662 122.686 156.292 122.686C158.86 122.686 159.973 124.76 161.396 126.308C168.944 134.42 176.461 142.593 183.915 150.766C185.74 152.779 187.504 154.327 190.597 154.265C202.104 154.079 213.611 154.203 226.727 154.203C217.045 143.522 208.321 133.862 198.299 122.81C212.405 122.81 224.932 122.686 237.46 122.964C238.914 122.995 240.461 125.163 241.76 126.556C249.122 134.512 256.422 142.531 263.753 150.519C265.362 152.252 266.723 154.296 269.569 154.265C281.509 154.203 293.48 154.234 306.905 154.234C296.944 143.305 288.005 133.46 278.075 122.562C290.881 122.562 302.327 122.593 313.772 122.531C316.587 122.531 318.009 124.512 319.618 126.277C326.794 134.079 334.125 141.757 341.024 149.807C343.993 153.274 347.148 154.543 351.634 154.358C359.583 154.017 367.533 154.451 375.483 154.172C379.288 154.048 381.051 154.667 381.051 159.125C380.896 210.209 380.989 261.324 380.865 312.407C380.834 320.704 376.627 324.543 368.244 324.946C367.038 325.008 365.832 324.977 364.625 324.977C359.088 324.977 353.025 326.339 348.138 324.543C342.508 322.5 344.643 315.07 342.539 310.271C335.61 294.605 320.268 285.225 302.45 286.556C286.458 287.763 271.95 300.085 268.919 316.711C267.62 323.738 265.052 326.184 258.371 325.008C257.659 324.884 256.917 325.008 256.206 324.977C251.627 324.915 246.585 326.06 242.626 324.512C238.203 322.779 240.275 316.834 238.852 312.872C232.635 295.596 216.581 285.07 197.681 286.587C180.76 287.949 165.789 302.098 163.562 319.683C162.974 324.234 161.427 325.101 157.375 325.07C127.989 324.946 98.6025 325.008 69.2163 325.008C65.1022 325.008 60.9572 324.543 60.9263 319.28C60.9263 313.8 65.2569 313.862 69.2782 313.893C83.7238 313.924 98.1695 313.893 112.646 313.893C116.915 313.893 121.462 313.769 121.462 308.011C121.462 302.067 116.791 302.376 112.584 302.376C84.6518 302.376 56.7194 302.376 28.7561 302.376C26.3743 302.376 23.9615 302.748 21.6725 301.478C19.2288 300.147 18.3317 298.135 18.7338 295.472C19.0741 293.026 20.6517 291.571 22.9716 291.2C24.8586 290.921 26.8073 291.014 28.7252 291.014C62.6895 291.014 96.6538 291.014 130.618 291.014C132.536 291.014 134.485 291.107 136.403 290.89C139.465 290.519 141.166 288.413 141.321 285.534C141.476 282.252 139.62 280.054 136.279 279.559C134.392 279.28 132.443 279.435 130.494 279.435C105.686 279.435 80.878 279.404 56.0698 279.435C51.832 279.435 46.9446 279.652 46.9756 273.986C46.9756 268.692 51.4918 268.042 55.9461 268.073C80.2593 268.228 104.573 268.351 128.886 268.259C133.804 268.228 141.104 270.178 141.476 262.531C141.847 254.698 134.361 256.834 129.907 256.742C110.45 256.339 90.9931 256.401 71.5363 256.339C55.2037 256.277 38.8711 256.215 22.5695 256.246C17.5275 256.246 12.4854 256.463 7.44334 256.742C3.66953 256.958 1.16396 255.348 1.0093 251.633C0.854635 247.887 3.32927 246.153 7.07215 246.122C28.1684 246.06 49.2955 245.875 70.3918 245.844C96.1279 245.844 121.864 246.029 147.6 246.029C151.931 246.029 155.333 244.296 154.962 239.218C154.591 234.048 150.508 233.181 146.518 233.491C127.803 234.977 109.089 233.243 90.3744 233.769C87.7451 233.831 85.0849 233.646 82.4556 233.398C79.3932 233.088 76.7021 232.098 76.8877 228.228C77.0733 224.451 79.6716 223.46 82.8268 223.429C96.3135 223.274 109.769 223.15 123.256 223.057C124.71 223.057 126.133 223.212 127.587 223.243C131.886 223.398 133.835 220.673 133.928 216.958C134.021 213.336 131.701 211.355 127.896 211.324C112.739 211.262 97.5508 211.107 82.3937 211.076C72.0312 211.076 61.6996 211.169 51.3371 211.324C47.1921 211.386 43.7895 210.054 43.9132 205.503C44.0369 200.952 47.5633 199.899 51.6155 199.93C73.052 199.992 94.4885 199.93 115.925 199.93C120.256 199.93 125.576 200.642 125.638 194.358C125.7 187.639 120.101 188.351 115.523 188.351C102.748 188.32 90.0032 188.32 77.2279 188.351C73.4541 188.351 69.4638 188.444 69.3091 183.336C69.1544 178.104 73.0829 177.206 77.2589 177.175C88.8277 177.113 100.366 177.175 111.935 177.144C115.863 177.144 120.286 177.299 120.441 171.788C120.596 165.999 116.265 165.658 111.873 165.658C96.6847 165.627 81.5276 165.534 66.3395 165.441C62.1945 165.41 57.4309 165.72 57.7093 159.59C57.9567 154.048 62.4729 154.481 66.3395 154.389C79.8572 154.048 79.8572 154.079 79.8572 140.673C79.9191 135.286 79.9191 129.868 79.9191 122.562ZM224.128 252.469C224.128 256.803 223.85 261.138 224.19 265.41C224.871 274.234 227.407 275.41 235.078 271.385C255.711 260.55 275.353 248.073 295.521 236.463C298.181 234.946 301.955 234.389 302.172 230.642C302.419 226.432 298.336 225.503 295.583 223.893C275.693 212.252 255.742 200.735 235.759 189.218C227.314 184.358 224.623 185.875 224.53 195.503C224.283 214.481 223.417 233.491 224.128 252.469Z" fill="#131313"/>
<path d="M249.4 34.1719C243.492 46.9892 238.326 58.0728 233.253 69.1874C232.233 71.4165 231.336 73.305 228.582 74.1409C217.199 77.6394 205.909 81.3855 193.257 85.4722C199.227 72.4072 204.64 60.5496 210.054 48.692C210.672 47.3298 211.724 46.401 213.178 45.9366C224.747 42.1905 236.285 38.4134 249.4 34.1719Z" fill="#131313"/>
<path d="M118.925 109.28C124.803 96.432 129.999 85.1007 135.227 73.7385C135.908 72.2524 136.403 70.5187 138.258 69.9304C149.363 66.401 160.468 62.8406 173.058 58.8468C166.995 72.0357 161.644 83.7694 156.23 95.4413C155.766 96.4629 154.9 97.7013 153.941 98.0419C142.682 101.726 131.391 105.286 118.925 109.28Z" fill="#131313"/>
<path d="M323.639 10.3948C317.762 23.2431 312.503 34.5744 307.399 45.9676C306.317 48.3824 304.708 49.7756 302.265 50.5496C291.778 53.8314 281.292 57.144 269.476 60.8902C275.508 47.7632 281.076 35.658 286.613 23.5527C287.417 21.788 289.18 21.3855 290.727 20.8902C301.213 17.4846 311.699 14.1719 323.639 10.3948Z" fill="#131313"/>
<path d="M306.966 290.797C326.021 290.921 341.271 306.339 341.209 325.379C341.147 344.203 325.557 359.93 306.781 360.085C287.695 360.24 271.734 344.327 271.827 325.194C271.919 305.751 287.355 290.643 306.966 290.797ZM319.68 296.834C311.297 291.138 299.048 291.478 293.449 297.577C290.294 298.29 287.757 300.023 285.654 302.469C273.497 306.896 269.63 334.636 282.004 345.317C283.767 346.927 285.499 348.568 287.262 350.178C298.027 360.147 315.04 360.147 325.805 350.178C330.104 347.02 332.362 342.252 335.394 338.104C344.457 323.212 333.847 299.714 319.401 296.649L319.68 296.834Z" fill="#131313"/>
<path d="M79.9191 123.522C76.4546 112.717 73.7325 103.893 70.7011 95.1317C69.6494 92.0357 71.1651 91.5094 73.4541 90.7663C81.4039 88.2895 89.3227 85.658 98.6953 82.6239C95.3546 89.9614 92.5088 96.3081 89.6011 102.624C86.7243 108.909 83.7857 115.163 79.9191 123.522Z" fill="#131313"/>
<path d="M202.011 290.797C221.128 290.828 236.409 305.906 236.687 324.977C236.934 343.955 220.911 360.116 201.918 360.054C182.956 359.992 167.583 344.574 167.521 325.565C167.459 305.751 182.338 290.766 202.011 290.797ZM224.035 347.546C235.017 338.785 237.646 322.221 229.851 310.828C227.747 306.308 223.974 303.212 220.633 299.714C208.878 289.992 190.999 290.704 182.09 301.231L182.369 300.983C172.408 306.246 169.563 315.813 169.748 325.658C169.934 336.711 174.017 346.711 185.246 351.85L184.967 351.633C196.412 361.2 214.91 359.156 224.283 347.268L224.035 347.546Z" fill="#131313"/>
<path d="M45.6145 188.259C40.8199 188.259 36.0253 188.228 31.2617 188.259C27.6116 188.29 25.0751 186.649 24.8586 182.964C24.642 179.187 27.2404 177.144 30.7049 177.051C40.5106 176.834 50.3163 176.865 60.153 177.051C63.6174 177.113 66.3086 179.094 66.2158 182.81C66.123 186.432 63.7102 188.259 59.9983 188.259C55.2037 188.228 50.4091 188.259 45.6145 188.259Z" fill="#131313"/>
<path d="M356.509 122.304C357.259 122.304 359.324 122.304 359.509 122.304C365.224 122.304 370.219 121.585 374.419 122.128C377.968 122.586 381.013 125.161 381.671 128.679C382.745 134.415 380.842 142.016 380.865 149.528C372.235 140.147 364.397 130.849 356.509 122.304Z" fill="#131313"/>
<path d="M343.838 36.9892C348.726 26.3081 353.056 16.8654 358.037 5.99853C360.697 14.0481 362.955 20.8902 365.244 27.7323C365.863 29.6208 364.966 30.24 363.357 30.7354C357.263 32.6239 351.2 34.6053 343.838 36.9892Z" fill="#131313"/>
<path d="M43.8513 313.893C45.0577 313.893 46.2641 313.893 47.4705 313.893C51.6774 313.862 56.3792 313.646 56.3173 319.59C56.2554 325.008 51.832 324.977 47.8726 324.977C44.006 324.977 40.1703 325.039 36.3037 324.884C32.7774 324.729 30.2099 323.212 30.3337 319.187C30.4574 315.163 33.0558 313.893 36.644 313.924C39.0258 313.924 41.4386 313.924 43.8513 313.893Z" fill="#131313"/>
<path d="M335.394 338.104C332.362 342.252 330.104 347.051 325.805 350.178C321.845 351.664 317.948 353.243 313.957 354.574C304.337 357.763 295.892 353.398 287.262 350.178C285.499 348.568 283.767 346.927 282.004 345.317C274.332 330.271 273.466 315.813 285.654 302.469C287.757 300.023 290.263 298.29 293.449 297.577C302.11 293.862 310.895 295.07 319.68 296.834L319.401 296.649C327.227 302.779 334.497 309.218 336.538 319.807C337.776 326.153 335.084 332.005 335.394 338.104ZM288.994 321.881C283.798 322.748 280.581 325.472 280.426 330.859C280.302 335.813 284.757 340.085 289.582 339.868C294.562 339.652 298.398 335.255 297.965 330.147C297.47 324.698 293.944 322.438 288.994 321.881ZM332.61 329.683C331.991 325.348 329.052 322.283 323.825 321.943C318.876 321.633 314.792 326.091 315.04 331.2C315.318 336.68 318.659 339.435 323.732 339.838C328.558 340.209 332.826 335.472 332.61 329.683ZM304.863 309.992C304.152 305.286 301.306 302.067 296.109 301.571C291.283 301.138 286.582 305.751 286.922 310.612C287.324 315.782 290.355 319.033 295.614 319.497C300.285 319.93 304.925 315.132 304.863 309.992ZM326.114 310.55C325.712 305.503 322.99 302.252 317.731 301.633C313.029 301.076 308.08 305.596 308.235 310.364C308.42 315.658 311.544 318.785 316.648 319.528C321.381 320.178 325.959 315.689 326.114 310.55ZM315.318 344.605C315.473 338.63 311.359 334.11 306.471 334.481C301.306 334.853 298.089 337.701 297.779 343.119C297.501 348.197 301.553 352.438 306.595 352.221C311.916 352.005 314.669 348.847 315.318 344.605Z" fill="#131313"/>
<path d="M220.633 299.714C223.974 303.212 227.747 306.308 229.851 310.828C233.934 324.017 232.48 336.339 224.035 347.546L224.283 347.299C219.024 349.311 214.879 353.305 209.188 354.791C200.495 357.082 192.886 353.831 184.967 351.664L185.246 351.881C179.616 345.225 173.058 339.373 171.975 329.714C170.707 318.197 175.161 309.218 182.369 301.014L182.09 301.262C189.7 297.175 197.495 294.141 206.496 295.286C211.569 295.875 215.622 299.187 220.633 299.714ZM221.375 309.28C220.973 304.853 217.818 301.974 212.683 301.602C207.796 301.262 203.527 305.844 203.805 310.828C204.115 316.246 207.455 319.064 212.559 319.497C217.354 319.899 221.53 315.255 221.375 309.28ZM201.609 352.252C206.527 352.438 211.198 348.228 210.889 343.398C210.549 338.259 207.548 335.008 202.32 334.481C197.526 334.017 192.855 338.568 193.133 343.429C193.381 348.63 196.227 351.757 201.609 352.252ZM200.031 310.178C199.877 305.503 195.763 301.478 191.216 301.509C186.452 301.54 181.843 306.215 182.307 310.921C182.833 316.153 186.081 319.156 191.247 319.528C196.134 319.838 200.186 315.255 200.031 310.178ZM175.842 331.416C176.337 336.494 179.399 339.466 184.565 339.838C189.236 340.178 194 335.286 193.566 330.612C193.072 325.41 189.947 322.283 184.751 321.943C179.801 321.633 175.687 326.122 175.842 331.416ZM210.239 330.89C210.27 335.782 214.817 340.333 219.55 339.807C224.716 339.218 227.84 336.091 228.149 330.859C228.428 326.091 223.602 321.509 218.839 321.974C213.611 322.5 210.765 325.627 210.239 330.89Z" fill="#131313"/>
<path d="M341.501 325.498C341.501 344.552 326.055 359.998 307.001 359.998C287.947 359.998 272.501 344.552 272.501 325.498C272.501 306.445 287.947 290.998 307.001 290.998C326.055 290.998 341.501 306.445 341.501 325.498Z" fill="#3E3E3E"/>
<path d="M338.502 325.498C338.502 342.895 324.399 356.998 307.002 356.998C289.605 356.998 275.502 342.895 275.502 325.498C275.502 308.101 289.605 293.998 307.002 293.998C324.399 293.998 338.502 308.101 338.502 325.498Z" fill="#D9D9D9"/>
<path d="M337.001 325.501C337.001 342.069 323.57 355.501 307.001 355.501C290.432 355.501 277.001 342.069 277.001 325.501C277.001 308.932 290.432 295.501 307.001 295.501C323.57 295.501 337.001 308.932 337.001 325.501Z" fill="#3E3E3E"/>
<path d="M305.505 310.5C305.505 315.471 301.476 319.5 296.505 319.5C291.535 319.5 287.505 315.471 287.505 310.5C287.505 305.529 291.535 301.5 296.505 301.5C301.476 301.5 305.505 305.529 305.505 310.5Z" fill="#FAFAFA"/>
<path d="M326.502 310.498C326.502 315.468 322.473 319.498 317.502 319.498C312.532 319.498 308.502 315.468 308.502 310.498C308.502 305.527 312.532 301.498 317.502 301.498C322.473 301.498 326.502 305.527 326.502 310.498Z" fill="#FAFAFA"/>
<path d="M334.004 329.998C334.004 334.969 329.974 338.998 325.004 338.998C320.033 338.998 316.004 334.969 316.004 329.998C316.004 325.028 320.033 320.998 325.004 320.998C329.974 320.998 334.004 325.028 334.004 329.998Z" fill="#FAFAFA"/>
<path d="M316.004 343.498C316.004 348.469 311.974 352.498 307.004 352.498C302.033 352.498 298.004 348.469 298.004 343.498C298.004 338.528 302.033 334.498 307.004 334.498C311.974 334.498 316.004 338.528 316.004 343.498Z" fill="#FAFAFA"/>
<path d="M298.004 331.497C298.004 336.468 293.974 340.497 289.004 340.497C284.033 340.497 280.004 336.468 280.004 331.497C280.004 326.526 284.033 322.497 289.004 322.497C293.974 322.497 298.004 326.526 298.004 331.497Z" fill="#FAFAFA"/>
<path d="M236.504 325.498C236.504 344.552 221.058 359.998 202.004 359.998C182.95 359.998 167.504 344.552 167.504 325.498C167.504 306.445 182.95 290.998 202.004 290.998C221.058 290.998 236.504 306.445 236.504 325.498Z" fill="#3E3E3E"/>
<path d="M233.505 325.498C233.505 342.895 219.402 356.998 202.005 356.998C184.608 356.998 170.505 342.895 170.505 325.498C170.505 308.101 184.608 293.998 202.005 293.998C219.402 293.998 233.505 308.101 233.505 325.498Z" fill="#D9D9D9"/>
<path d="M232.004 325.501C232.004 342.069 218.572 355.501 202.004 355.501C185.435 355.501 172.004 342.069 172.004 325.501C172.004 308.932 185.435 295.501 202.004 295.501C218.572 295.501 232.004 308.932 232.004 325.501Z" fill="#3E3E3E"/>
<path d="M200.507 310.499C200.507 315.47 196.477 319.499 191.507 319.499C186.536 319.499 182.507 315.47 182.507 310.499C182.507 305.529 186.536 301.499 191.507 301.499C196.477 301.499 200.507 305.529 200.507 310.499Z" fill="#FAFAFA"/>
<path d="M221.508 310.499C221.508 315.47 217.479 319.499 212.508 319.499C207.538 319.499 203.508 315.47 203.508 310.499C203.508 305.529 207.538 301.499 212.508 301.499C217.479 301.499 221.508 305.529 221.508 310.499Z" fill="#FAFAFA"/>
<path d="M229.005 330C229.005 334.971 224.976 339 220.005 339C215.035 339 211.005 334.971 211.005 330C211.005 325.029 215.035 321 220.005 321C224.976 321 229.005 325.029 229.005 330Z" fill="#FAFAFA"/>
<path d="M211.005 343.5C211.005 348.471 206.976 352.5 202.005 352.5C197.035 352.5 193.005 348.471 193.005 343.5C193.005 338.529 197.035 334.5 202.005 334.5C206.976 334.5 211.005 338.529 211.005 343.5Z" fill="#FAFAFA"/>
<path d="M193.005 331.498C193.005 336.469 188.976 340.498 184.005 340.498C179.035 340.498 175.005 336.469 175.005 331.498C175.005 326.528 179.035 322.498 184.005 322.498C188.976 322.498 193.005 326.528 193.005 331.498Z" fill="#FAFAFA"/>
<path d="M208.001 181.499H307.001V275.999H208.001V181.499Z" fill="#131313"/>
<mask id="path-2-inside-1_1602_182" fill="white">
<path d="M282.281 195.571C282.941 196.351 283.271 197.161 283.271 198.001C283.271 198.361 283.241 198.751 283.181 199.171C283.181 199.531 283.151 199.861 283.091 200.161C282.911 200.821 282.521 201.451 281.921 202.051C281.441 202.411 280.781 202.681 279.941 202.861C279.521 202.981 279.101 203.071 278.681 203.131C278.261 203.191 277.811 203.281 277.331 203.401C276.911 203.461 276.491 203.491 276.071 203.491C275.651 203.491 275.201 203.491 274.721 203.491H270.131C269.051 203.551 267.971 203.581 266.891 203.581C265.871 203.581 264.851 203.581 263.831 203.581C263.891 205.441 263.921 207.451 263.921 209.611C263.921 211.711 263.891 214.171 263.831 216.991C263.831 219.811 263.801 223.081 263.741 226.801C263.741 230.521 263.741 234.841 263.741 239.761V246.601C263.741 247.201 263.771 247.651 263.831 247.951C263.831 248.191 263.831 248.431 263.831 248.671C263.831 248.851 263.801 249.091 263.741 249.391C263.621 249.931 263.531 250.561 263.471 251.281C263.471 251.581 263.441 251.881 263.381 252.181C263.321 252.421 263.231 252.691 263.111 252.991C262.871 253.231 262.751 253.411 262.751 253.531L262.481 254.071C262.181 254.671 261.611 255.241 260.771 255.781C259.451 256.441 257.981 256.591 256.361 256.231C255.341 256.111 254.561 255.841 254.021 255.421C253.481 254.881 253.091 254.341 252.851 253.801C252.491 253.141 252.281 252.511 252.221 251.911C252.041 251.371 251.951 250.801 251.951 250.201V203.941C251.591 203.941 250.841 203.941 249.701 203.941C248.561 203.941 247.331 203.941 246.011 203.941C244.751 203.881 243.551 203.821 242.411 203.761C241.271 203.701 240.491 203.641 240.071 203.581C239.711 203.521 239.141 203.431 238.361 203.311C237.641 203.191 237.041 203.071 236.561 202.951C235.301 202.591 234.311 202.021 233.591 201.241C232.931 200.461 232.601 199.591 232.601 198.631C232.601 198.271 232.601 197.911 232.601 197.551C232.601 197.191 232.661 196.861 232.781 196.561C232.961 195.841 233.441 195.241 234.221 194.761C234.461 194.581 234.821 194.371 235.301 194.131C235.841 193.831 236.351 193.621 236.831 193.501C237.551 193.261 238.451 193.081 239.531 192.961C240.011 192.901 240.491 192.871 240.971 192.871C241.451 192.871 241.961 192.871 242.501 192.871C244.601 192.871 246.581 192.871 248.441 192.871C250.361 192.871 252.371 192.841 254.471 192.781C257.951 192.721 261.401 192.721 264.821 192.781C268.301 192.781 271.751 192.841 275.171 192.961C275.951 193.021 276.701 193.111 277.421 193.231C278.141 193.351 278.861 193.561 279.581 193.861C280.121 194.041 280.631 194.281 281.111 194.581C281.591 194.821 281.981 195.151 282.281 195.571ZM336.873 252.541C336.933 253.141 336.873 253.711 336.693 254.251C336.573 254.611 336.393 254.911 336.153 255.151C335.973 255.391 335.733 255.631 335.433 255.871C334.893 256.231 334.233 256.561 333.453 256.861C332.973 256.981 332.493 257.071 332.013 257.131C331.593 257.251 331.143 257.251 330.663 257.131C329.703 257.071 328.863 256.711 328.143 256.051C327.123 255.211 326.283 254.281 325.623 253.261C325.323 252.781 324.993 252.241 324.633 251.641C324.273 251.041 323.943 250.411 323.643 249.751L313.653 230.761C313.173 230.761 312.693 230.791 312.213 230.851C311.733 230.851 311.253 230.881 310.773 230.941C309.513 231.061 308.313 231.091 307.173 231.031C306.093 230.971 304.953 230.971 303.753 231.031H302.043V247.321C302.043 247.801 302.013 248.251 301.953 248.671C301.953 249.091 301.953 249.541 301.953 250.021C301.953 250.321 301.923 250.711 301.863 251.191C301.863 251.671 301.833 252.121 301.773 252.541C301.653 253.201 301.383 253.891 300.963 254.611C300.543 255.271 299.973 255.841 299.253 256.321C297.993 257.101 296.463 257.311 294.663 256.951C293.883 256.771 293.133 256.471 292.413 256.051C292.173 255.871 291.963 255.661 291.783 255.421C291.603 255.121 291.453 254.821 291.333 254.521C291.213 254.221 291.093 253.921 290.973 253.621C290.913 253.261 290.823 252.931 290.703 252.631C290.523 252.031 290.433 251.461 290.433 250.921V199.801C290.433 199.441 290.433 199.081 290.433 198.721C290.493 198.301 290.553 197.941 290.613 197.641C290.673 196.981 290.883 196.321 291.243 195.661C291.423 194.941 291.723 194.431 292.143 194.131C292.503 193.771 293.043 193.471 293.763 193.231C294.543 192.931 295.653 192.811 297.093 192.871C299.793 192.931 302.463 192.961 305.103 192.961C307.743 192.961 310.383 193.021 313.023 193.141C314.763 193.261 316.593 193.471 318.513 193.771C320.493 194.011 322.323 194.461 324.003 195.121C325.083 195.541 326.073 195.961 326.973 196.381C328.113 197.041 329.013 197.671 329.673 198.271C331.773 200.191 333.363 202.501 334.443 205.201C335.523 207.901 336.063 210.631 336.063 213.391C336.063 216.631 335.283 219.601 333.723 222.301C332.223 225.001 329.793 227.011 326.433 228.331C326.313 228.451 326.133 228.541 325.893 228.601C325.713 228.601 325.563 228.631 325.443 228.691L333.723 245.341L334.533 246.781C334.653 247.021 334.803 247.291 334.983 247.591C335.163 247.891 335.313 248.191 335.433 248.491C335.613 248.791 335.763 249.121 335.883 249.481C336.063 249.841 336.243 250.171 336.423 250.471C336.603 251.311 336.753 252.001 336.873 252.541ZM314.373 220.501C315.453 220.501 316.473 220.321 317.433 219.961C318.453 219.541 319.353 219.001 320.133 218.341C320.973 217.681 321.663 216.931 322.203 216.091C322.743 215.191 323.043 214.231 323.103 213.211C323.343 210.211 322.563 207.991 320.763 206.551C318.963 205.051 316.593 204.241 313.653 204.121C311.913 204.001 309.993 203.941 307.893 203.941C305.853 203.941 303.903 203.941 302.043 203.941C302.103 206.401 302.103 208.921 302.043 211.501C302.043 214.021 302.043 217.021 302.043 220.501H314.373ZM346.924 246.961L347.014 239.851L347.104 226.621C347.164 224.701 347.194 222.721 347.194 220.681C347.194 218.641 347.194 216.541 347.194 214.381C347.194 212.221 347.194 210.301 347.194 208.621C347.194 206.941 347.254 205.051 347.374 202.951V202.591C347.434 201.991 347.464 201.391 347.464 200.791C347.524 200.131 347.554 199.471 347.554 198.811C347.614 197.731 347.944 196.561 348.544 195.301C348.964 194.461 349.594 193.741 350.434 193.141C351.394 192.661 352.324 192.421 353.224 192.421C353.704 192.421 354.124 192.451 354.484 192.511C354.904 192.511 355.294 192.541 355.654 192.601C356.434 192.721 357.124 193.081 357.724 193.681C358.084 193.981 358.414 194.461 358.714 195.121C358.834 195.481 358.924 195.841 358.984 196.201C359.104 196.501 359.194 196.831 359.254 197.191C359.314 197.611 359.344 198.001 359.344 198.361C359.404 198.721 359.434 199.081 359.434 199.441C359.434 199.861 359.404 200.251 359.344 200.611C359.344 200.911 359.344 201.241 359.344 201.601V203.131L358.804 249.841V250.741C358.804 250.921 358.774 251.161 358.714 251.461C358.714 251.701 358.684 252.001 358.624 252.361C358.504 252.661 358.384 252.991 358.264 253.351C358.204 253.651 358.114 253.981 357.994 254.341C357.814 254.641 357.604 254.941 357.364 255.241C357.184 255.481 356.944 255.721 356.644 255.961C356.164 256.441 355.384 256.771 354.304 256.951C352.684 257.311 351.154 257.161 349.714 256.501C348.994 256.021 348.484 255.421 348.184 254.701C348.004 254.521 347.914 254.341 347.914 254.161C347.854 254.041 347.794 253.951 347.734 253.891C347.674 253.831 347.614 253.741 347.554 253.621C347.434 253.321 347.344 253.021 347.284 252.721C347.224 252.361 347.194 252.001 347.194 251.641C347.134 251.341 347.074 251.041 347.014 250.741C347.014 250.441 346.984 250.141 346.924 249.841C346.864 249.361 346.864 248.851 346.924 248.311V246.961ZM404.819 223.291C406.559 224.431 408.029 225.781 409.229 227.341C410.489 228.841 411.479 230.701 412.199 232.921C412.979 235.381 413.369 237.871 413.369 240.391C413.429 242.851 412.979 245.161 412.019 247.321C411.119 249.421 409.649 251.281 407.609 252.901C405.629 254.461 403.019 255.571 399.779 256.231C398.039 256.651 395.999 256.981 393.659 257.221C391.319 257.461 389.219 257.581 387.359 257.581C385.019 257.641 382.589 257.641 380.069 257.581C377.609 257.581 375.209 257.341 372.869 256.861C371.849 256.561 371.099 256.051 370.619 255.331C370.199 254.551 369.899 253.681 369.719 252.721C369.479 252.181 369.359 251.641 369.359 251.101V199.981C369.359 198.301 369.689 197.011 370.349 196.111C371.069 195.151 371.999 194.461 373.139 194.041C374.279 193.561 375.569 193.291 377.009 193.231C378.449 193.111 379.949 193.051 381.509 193.051C382.709 193.051 383.909 193.051 385.109 193.051C386.369 192.991 387.629 192.991 388.889 193.051C390.869 193.111 392.909 193.291 395.009 193.591C397.169 193.831 399.209 194.311 401.129 195.031C402.029 195.331 402.989 195.751 404.009 196.291C405.029 196.771 405.839 197.371 406.439 198.091C408.359 199.831 409.769 201.871 410.669 204.211C411.629 206.491 412.049 208.831 411.929 211.231C411.809 213.571 411.149 215.821 409.949 217.981C408.809 220.141 407.099 221.911 404.819 223.291ZM389.069 247.141C390.929 247.021 392.819 246.811 394.739 246.511C396.659 246.211 397.979 245.641 398.699 244.801C399.479 243.841 400.019 242.731 400.319 241.471C400.679 240.151 400.769 238.831 400.589 237.511C400.469 236.131 400.079 234.841 399.419 233.641C398.819 232.381 398.009 231.391 396.989 230.671C395.609 229.591 394.019 228.901 392.219 228.601C390.419 228.241 388.649 228.061 386.909 228.061C386.069 228.061 385.289 228.091 384.569 228.151C383.909 228.151 383.309 228.241 382.769 228.421C382.289 228.541 381.929 228.811 381.689 229.231C381.449 229.651 381.329 230.281 381.329 231.121C381.449 232.681 381.449 234.241 381.329 235.801C381.209 237.361 381.149 238.861 381.149 240.301C381.149 241.141 381.119 242.071 381.059 243.091C381.059 244.051 381.389 244.861 382.049 245.521C382.709 246.181 383.669 246.631 384.929 246.871C386.189 247.111 387.569 247.201 389.069 247.141ZM390.869 203.941C389.009 203.881 387.449 203.851 386.189 203.851C384.989 203.791 384.029 203.881 383.309 204.121C382.649 204.301 382.169 204.751 381.869 205.471C381.629 206.131 381.539 207.151 381.599 208.531C381.599 209.671 381.569 210.811 381.509 211.951C381.509 213.031 381.509 214.111 381.509 215.191C381.509 216.391 381.899 217.291 382.679 217.891C383.459 218.431 384.419 218.761 385.559 218.881C386.759 219.001 387.989 219.001 389.249 218.881C390.569 218.761 391.709 218.611 392.669 218.431C394.829 218.071 396.479 217.351 397.619 216.271C398.819 215.131 399.509 213.481 399.689 211.321C399.929 208.621 399.209 206.761 397.529 205.741C395.909 204.661 393.689 204.061 390.869 203.941ZM468.597 197.731C468.957 200.611 469.167 203.971 469.227 207.811C469.287 211.591 469.227 215.431 469.047 219.331C468.927 223.171 468.657 226.831 468.237 230.311C467.817 233.731 467.307 236.491 466.707 238.591C466.287 239.851 465.777 241.171 465.177 242.551C464.637 243.871 464.037 245.071 463.377 246.151C462.417 247.771 461.247 249.211 459.867 250.471C458.487 251.671 456.957 252.721 455.277 253.621C453.657 254.461 451.917 255.121 450.057 255.601C448.257 256.081 446.457 256.351 444.657 256.411C441.477 256.531 438.447 256.081 435.567 255.061C432.747 253.981 430.137 252.301 427.737 250.021C425.937 248.281 424.497 246.421 423.417 244.441C422.337 242.461 421.497 240.391 420.897 238.231C420.297 236.011 419.907 233.731 419.727 231.391C419.607 229.051 419.547 226.651 419.547 224.191C419.547 223.051 419.517 221.641 419.457 219.961C419.457 218.221 419.457 216.451 419.457 214.651C419.457 212.791 419.457 210.991 419.457 209.251C419.457 207.511 419.487 206.041 419.547 204.841C419.547 204.061 419.547 203.221 419.547 202.321C419.547 201.361 419.577 200.431 419.637 199.531C419.757 198.571 419.937 197.671 420.177 196.831C420.417 195.931 420.777 195.121 421.257 194.401C421.797 193.621 422.547 193.051 423.507 192.691C424.467 192.331 425.457 192.151 426.477 192.151C427.557 192.151 428.577 192.361 429.537 192.781C430.497 193.201 431.277 193.801 431.877 194.581C432.177 195.061 432.387 195.541 432.507 196.021C432.627 196.501 432.717 197.041 432.777 197.641C432.897 199.621 432.957 201.871 432.957 204.391C433.017 206.911 433.017 209.371 432.957 211.771C432.957 214.111 432.927 216.271 432.867 218.251C432.807 220.231 432.777 221.701 432.777 222.661C432.777 226.261 432.957 229.531 433.317 232.471C433.677 235.351 434.517 237.751 435.837 239.671C437.037 241.411 438.447 242.521 440.067 243.001C441.687 243.481 443.307 243.631 444.927 243.451C446.427 243.271 447.927 242.731 449.427 241.831C450.987 240.871 452.217 239.491 453.117 237.691C453.477 237.031 453.777 236.281 454.017 235.441C454.257 234.601 454.437 233.821 454.557 233.101C454.797 230.821 455.007 228.181 455.187 225.181C455.367 222.121 455.517 219.001 455.637 215.821C455.757 212.641 455.817 209.521 455.817 206.461C455.817 203.401 455.787 200.641 455.727 198.181C455.847 197.101 456.177 196.111 456.717 195.211C457.197 194.431 457.887 193.741 458.787 193.141C459.687 192.541 460.917 192.241 462.477 192.241C463.737 192.301 464.757 192.631 465.537 193.231C466.317 193.771 466.947 194.371 467.427 195.031C467.967 195.811 468.357 196.711 468.597 197.731ZM526.178 195.571C526.838 196.351 527.168 197.161 527.168 198.001C527.168 198.361 527.138 198.751 527.078 199.171C527.078 199.531 527.048 199.861 526.988 200.161C526.808 200.821 526.418 201.451 525.818 202.051C525.338 202.411 524.678 202.681 523.838 202.861C523.418 202.981 522.998 203.071 522.578 203.131C522.158 203.191 521.708 203.281 521.228 203.401C520.808 203.461 520.388 203.491 519.968 203.491C519.548 203.491 519.098 203.491 518.618 203.491H514.028C512.948 203.551 511.868 203.581 510.788 203.581C509.768 203.581 508.748 203.581 507.728 203.581C507.788 205.441 507.818 207.451 507.818 209.611C507.818 211.711 507.788 214.171 507.728 216.991C507.728 219.811 507.698 223.081 507.638 226.801C507.638 230.521 507.638 234.841 507.638 239.761V246.601C507.638 247.201 507.668 247.651 507.728 247.951C507.728 248.191 507.728 248.431 507.728 248.671C507.728 248.851 507.698 249.091 507.638 249.391C507.518 249.931 507.428 250.561 507.368 251.281C507.368 251.581 507.338 251.881 507.278 252.181C507.218 252.421 507.128 252.691 507.008 252.991C506.768 253.231 506.648 253.411 506.648 253.531L506.378 254.071C506.078 254.671 505.508 255.241 504.668 255.781C503.348 256.441 501.878 256.591 500.258 256.231C499.238 256.111 498.458 255.841 497.918 255.421C497.378 254.881 496.988 254.341 496.748 253.801C496.388 253.141 496.178 252.511 496.118 251.911C495.938 251.371 495.848 250.801 495.848 250.201V203.941C495.488 203.941 494.738 203.941 493.598 203.941C492.458 203.941 491.228 203.941 489.908 203.941C488.648 203.881 487.448 203.821 486.308 203.761C485.168 203.701 484.388 203.641 483.968 203.581C483.608 203.521 483.038 203.431 482.258 203.311C481.538 203.191 480.938 203.071 480.458 202.951C479.198 202.591 478.208 202.021 477.488 201.241C476.828 200.461 476.498 199.591 476.498 198.631C476.498 198.271 476.498 197.911 476.498 197.551C476.498 197.191 476.558 196.861 476.678 196.561C476.858 195.841 477.338 195.241 478.118 194.761C478.358 194.581 478.718 194.371 479.198 194.131C479.738 193.831 480.248 193.621 480.728 193.501C481.448 193.261 482.348 193.081 483.428 192.961C483.908 192.901 484.388 192.871 484.868 192.871C485.348 192.871 485.858 192.871 486.398 192.871C488.498 192.871 490.478 192.871 492.338 192.871C494.258 192.871 496.268 192.841 498.368 192.781C501.848 192.721 505.298 192.721 508.718 192.781C512.198 192.781 515.648 192.841 519.068 192.961C519.848 193.021 520.598 193.111 521.318 193.231C522.038 193.351 522.758 193.561 523.478 193.861C524.018 194.041 524.528 194.281 525.008 194.581C525.488 194.821 525.878 195.151 526.178 195.571ZM544.898 194.941C548.918 193.441 552.548 192.781 555.788 192.961C559.088 193.141 562.028 193.981 564.608 195.481C567.188 196.921 569.378 198.871 571.178 201.331C573.038 203.791 574.538 206.551 575.678 209.611C576.578 211.891 577.268 214.291 577.748 216.811C578.228 219.331 578.498 221.851 578.558 224.371C578.678 226.831 578.588 229.261 578.288 231.661C578.048 234.061 577.628 236.281 577.028 238.321C576.668 239.701 576.248 240.961 575.768 242.101C575.288 243.241 574.718 244.381 574.058 245.521C572.558 248.101 570.608 250.201 568.208 251.821C565.868 253.441 563.288 254.581 560.468 255.241C558.548 255.721 556.568 255.961 554.528 255.961C552.488 255.901 550.478 255.631 548.498 255.151C546.518 254.611 544.598 253.861 542.738 252.901C540.938 251.881 539.288 250.621 537.788 249.121C535.928 247.321 534.398 245.251 533.198 242.911C531.998 240.511 531.068 238.021 530.408 235.441C529.748 232.801 529.328 230.161 529.148 227.521C528.968 224.881 528.968 222.361 529.148 219.961C529.328 217.741 529.748 215.371 530.408 212.851C531.128 210.331 532.148 207.901 533.468 205.561C534.788 203.221 536.378 201.121 538.238 199.261C540.158 197.341 542.378 195.901 544.898 194.941ZM565.958 233.461C566.678 230.641 566.978 227.461 566.858 223.921C566.738 220.381 566.168 217.051 565.148 213.931C564.488 212.011 563.648 210.331 562.628 208.891C561.668 207.391 560.498 206.251 559.118 205.471C557.798 204.691 556.238 204.301 554.438 204.301C552.638 204.301 550.628 204.841 548.408 205.921C547.088 206.581 545.948 207.481 544.988 208.621C544.088 209.761 543.338 211.051 542.738 212.491C542.198 213.931 541.748 215.431 541.388 216.991C541.088 218.551 540.908 220.051 540.848 221.491C540.728 223.051 540.698 224.701 540.758 226.441C540.818 228.121 540.998 229.831 541.298 231.571C541.658 233.251 542.138 234.871 542.738 236.431C543.338 237.931 544.148 239.281 545.168 240.481C546.728 242.281 548.528 243.541 550.568 244.261C552.668 244.921 554.738 245.011 556.778 244.531C560.078 243.811 562.598 241.621 564.338 237.961C565.058 236.641 565.598 235.141 565.958 233.461ZM632.362 252.541C632.422 253.141 632.362 253.711 632.182 254.251C632.062 254.611 631.882 254.911 631.642 255.151C631.462 255.391 631.222 255.631 630.922 255.871C630.382 256.231 629.722 256.561 628.942 256.861C628.462 256.981 627.982 257.071 627.502 257.131C627.082 257.251 626.632 257.251 626.152 257.131C625.192 257.071 624.352 256.711 623.632 256.051C622.612 255.211 621.772 254.281 621.112 253.261C620.812 252.781 620.482 252.241 620.122 251.641C619.762 251.041 619.432 250.411 619.132 249.751L609.142 230.761C608.662 230.761 608.182 230.791 607.702 230.851C607.222 230.851 606.742 230.881 606.262 230.941C605.002 231.061 603.802 231.091 602.662 231.031C601.582 230.971 600.442 230.971 599.242 231.031H597.532V247.321C597.532 247.801 597.502 248.251 597.442 248.671C597.442 249.091 597.442 249.541 597.442 250.021C597.442 250.321 597.412 250.711 597.352 251.191C597.352 251.671 597.322 252.121 597.262 252.541C597.142 253.201 596.872 253.891 596.452 254.611C596.032 255.271 595.462 255.841 594.742 256.321C593.482 257.101 591.952 257.311 590.152 256.951C589.372 256.771 588.622 256.471 587.902 256.051C587.662 255.871 587.452 255.661 587.272 255.421C587.092 255.121 586.942 254.821 586.822 254.521C586.702 254.221 586.582 253.921 586.462 253.621C586.402 253.261 586.311 252.931 586.191 252.631C586.011 252.031 585.922 251.461 585.922 250.921V199.801C585.922 199.441 585.922 199.081 585.922 198.721C585.982 198.301 586.042 197.941 586.102 197.641C586.162 196.981 586.372 196.321 586.732 195.661C586.912 194.941 587.211 194.431 587.632 194.131C587.992 193.771 588.531 193.471 589.251 193.231C590.031 192.931 591.142 192.811 592.582 192.871C595.282 192.931 597.952 192.961 600.592 192.961C603.232 192.961 605.872 193.021 608.512 193.141C610.252 193.261 612.082 193.471 614.002 193.771C615.982 194.011 617.812 194.461 619.492 195.121C620.572 195.541 621.562 195.961 622.462 196.381C623.602 197.041 624.502 197.671 625.162 198.271C627.262 200.191 628.852 202.501 629.932 205.201C631.012 207.901 631.552 210.631 631.552 213.391C631.552 216.631 630.772 219.601 629.212 222.301C627.712 225.001 625.282 227.011 621.922 228.331C621.802 228.451 621.622 228.541 621.382 228.601C621.202 228.601 621.052 228.631 620.932 228.691L629.212 245.341L630.022 246.781C630.142 247.021 630.292 247.291 630.472 247.591C630.652 247.891 630.802 248.191 630.922 248.491C631.102 248.791 631.252 249.121 631.372 249.481C631.552 249.841 631.732 250.171 631.912 250.471C632.092 251.311 632.242 252.001 632.362 252.541ZM609.862 220.501C610.942 220.501 611.962 220.321 612.922 219.961C613.942 219.541 614.842 219.001 615.622 218.341C616.462 217.681 617.152 216.931 617.692 216.091C618.232 215.191 618.532 214.231 618.592 213.211C618.832 210.211 618.052 207.991 616.252 206.551C614.452 205.051 612.082 204.241 609.142 204.121C607.402 204.001 605.482 203.941 603.382 203.941C601.342 203.941 599.392 203.941 597.532 203.941C597.592 206.401 597.592 208.921 597.532 211.501C597.532 214.021 597.532 217.021 597.532 220.501H609.862Z"/>
</mask>
<path d="M282.281 195.571C282.941 196.351 283.271 197.161 283.271 198.001C283.271 198.361 283.241 198.751 283.181 199.171C283.181 199.531 283.151 199.861 283.091 200.161C282.911 200.821 282.521 201.451 281.921 202.051C281.441 202.411 280.781 202.681 279.941 202.861C279.521 202.981 279.101 203.071 278.681 203.131C278.261 203.191 277.811 203.281 277.331 203.401C276.911 203.461 276.491 203.491 276.071 203.491C275.651 203.491 275.201 203.491 274.721 203.491H270.131C269.051 203.551 267.971 203.581 266.891 203.581C265.871 203.581 264.851 203.581 263.831 203.581C263.891 205.441 263.921 207.451 263.921 209.611C263.921 211.711 263.891 214.171 263.831 216.991C263.831 219.811 263.801 223.081 263.741 226.801C263.741 230.521 263.741 234.841 263.741 239.761V246.601C263.741 247.201 263.771 247.651 263.831 247.951C263.831 248.191 263.831 248.431 263.831 248.671C263.831 248.851 263.801 249.091 263.741 249.391C263.621 249.931 263.531 250.561 263.471 251.281C263.471 251.581 263.441 251.881 263.381 252.181C263.321 252.421 263.231 252.691 263.111 252.991C262.871 253.231 262.751 253.411 262.751 253.531L262.481 254.071C262.181 254.671 261.611 255.241 260.771 255.781C259.451 256.441 257.981 256.591 256.361 256.231C255.341 256.111 254.561 255.841 254.021 255.421C253.481 254.881 253.091 254.341 252.851 253.801C252.491 253.141 252.281 252.511 252.221 251.911C252.041 251.371 251.951 250.801 251.951 250.201V203.941C251.591 203.941 250.841 203.941 249.701 203.941C248.561 203.941 247.331 203.941 246.011 203.941C244.751 203.881 243.551 203.821 242.411 203.761C241.271 203.701 240.491 203.641 240.071 203.581C239.711 203.521 239.141 203.431 238.361 203.311C237.641 203.191 237.041 203.071 236.561 202.951C235.301 202.591 234.311 202.021 233.591 201.241C232.931 200.461 232.601 199.591 232.601 198.631C232.601 198.271 232.601 197.911 232.601 197.551C232.601 197.191 232.661 196.861 232.781 196.561C232.961 195.841 233.441 195.241 234.221 194.761C234.461 194.581 234.821 194.371 235.301 194.131C235.841 193.831 236.351 193.621 236.831 193.501C237.551 193.261 238.451 193.081 239.531 192.961C240.011 192.901 240.491 192.871 240.971 192.871C241.451 192.871 241.961 192.871 242.501 192.871C244.601 192.871 246.581 192.871 248.441 192.871C250.361 192.871 252.371 192.841 254.471 192.781C257.951 192.721 261.401 192.721 264.821 192.781C268.301 192.781 271.751 192.841 275.171 192.961C275.951 193.021 276.701 193.111 277.421 193.231C278.141 193.351 278.861 193.561 279.581 193.861C280.121 194.041 280.631 194.281 281.111 194.581C281.591 194.821 281.981 195.151 282.281 195.571ZM336.873 252.541C336.933 253.141 336.873 253.711 336.693 254.251C336.573 254.611 336.393 254.911 336.153 255.151C335.973 255.391 335.733 255.631 335.433 255.871C334.893 256.231 334.233 256.561 333.453 256.861C332.973 256.981 332.493 257.071 332.013 257.131C331.593 257.251 331.143 257.251 330.663 257.131C329.703 257.071 328.863 256.711 328.143 256.051C327.123 255.211 326.283 254.281 325.623 253.261C325.323 252.781 324.993 252.241 324.633 251.641C324.273 251.041 323.943 250.411 323.643 249.751L313.653 230.761C313.173 230.761 312.693 230.791 312.213 230.851C311.733 230.851 311.253 230.881 310.773 230.941C309.513 231.061 308.313 231.091 307.173 231.031C306.093 230.971 304.953 230.971 303.753 231.031H302.043V247.321C302.043 247.801 302.013 248.251 301.953 248.671C301.953 249.091 301.953 249.541 301.953 250.021C301.953 250.321 301.923 250.711 301.863 251.191C301.863 251.671 301.833 252.121 301.773 252.541C301.653 253.201 301.383 253.891 300.963 254.611C300.543 255.271 299.973 255.841 299.253 256.321C297.993 257.101 296.463 257.311 294.663 256.951C293.883 256.771 293.133 256.471 292.413 256.051C292.173 255.871 291.963 255.661 291.783 255.421C291.603 255.121 291.453 254.821 291.333 254.521C291.213 254.221 291.093 253.921 290.973 253.621C290.913 253.261 290.823 252.931 290.703 252.631C290.523 252.031 290.433 251.461 290.433 250.921V199.801C290.433 199.441 290.433 199.081 290.433 198.721C290.493 198.301 290.553 197.941 290.613 197.641C290.673 196.981 290.883 196.321 291.243 195.661C291.423 194.941 291.723 194.431 292.143 194.131C292.503 193.771 293.043 193.471 293.763 193.231C294.543 192.931 295.653 192.811 297.093 192.871C299.793 192.931 302.463 192.961 305.103 192.961C307.743 192.961 310.383 193.021 313.023 193.141C314.763 193.261 316.593 193.471 318.513 193.771C320.493 194.011 322.323 194.461 324.003 195.121C325.083 195.541 326.073 195.961 326.973 196.381C328.113 197.041 329.013 197.671 329.673 198.271C331.773 200.191 333.363 202.501 334.443 205.201C335.523 207.901 336.063 210.631 336.063 213.391C336.063 216.631 335.283 219.601 333.723 222.301C332.223 225.001 329.793 227.011 326.433 228.331C326.313 228.451 326.133 228.541 325.893 228.601C325.713 228.601 325.563 228.631 325.443 228.691L333.723 245.341L334.533 246.781C334.653 247.021 334.803 247.291 334.983 247.591C335.163 247.891 335.313 248.191 335.433 248.491C335.613 248.791 335.763 249.121 335.883 249.481C336.063 249.841 336.243 250.171 336.423 250.471C336.603 251.311 336.753 252.001 336.873 252.541ZM314.373 220.501C315.453 220.501 316.473 220.321 317.433 219.961C318.453 219.541 319.353 219.001 320.133 218.341C320.973 217.681 321.663 216.931 322.203 216.091C322.743 215.191 323.043 214.231 323.103 213.211C323.343 210.211 322.563 207.991 320.763 206.551C318.963 205.051 316.593 204.241 313.653 204.121C311.913 204.001 309.993 203.941 307.893 203.941C305.853 203.941 303.903 203.941 302.043 203.941C302.103 206.401 302.103 208.921 302.043 211.501C302.043 214.021 302.043 217.021 302.043 220.501H314.373ZM346.924 246.961L347.014 239.851L347.104 226.621C347.164 224.701 347.194 222.721 347.194 220.681C347.194 218.641 347.194 216.541 347.194 214.381C347.194 212.221 347.194 210.301 347.194 208.621C347.194 206.941 347.254 205.051 347.374 202.951V202.591C347.434 201.991 347.464 201.391 347.464 200.791C347.524 200.131 347.554 199.471 347.554 198.811C347.614 197.731 347.944 196.561 348.544 195.301C348.964 194.461 349.594 193.741 350.434 193.141C351.394 192.661 352.324 192.421 353.224 192.421C353.704 192.421 354.124 192.451 354.484 192.511C354.904 192.511 355.294 192.541 355.654 192.601C356.434 192.721 357.124 193.081 357.724 193.681C358.084 193.981 358.414 194.461 358.714 195.121C358.834 195.481 358.924 195.841 358.984 196.201C359.104 196.501 359.194 196.831 359.254 197.191C359.314 197.611 359.344 198.001 359.344 198.361C359.404 198.721 359.434 199.081 359.434 199.441C359.434 199.861 359.404 200.251 359.344 200.611C359.344 200.911 359.344 201.241 359.344 201.601V203.131L358.804 249.841V250.741C358.804 250.921 358.774 251.161 358.714 251.461C358.714 251.701 358.684 252.001 358.624 252.361C358.504 252.661 358.384 252.991 358.264 253.351C358.204 253.651 358.114 253.981 357.994 254.341C357.814 254.641 357.604 254.941 357.364 255.241C357.184 255.481 356.944 255.721 356.644 255.961C356.164 256.441 355.384 256.771 354.304 256.951C352.684 257.311 351.154 257.161 349.714 256.501C348.994 256.021 348.484 255.421 348.184 254.701C348.004 254.521 347.914 254.341 347.914 254.161C347.854 254.041 347.794 253.951 347.734 253.891C347.674 253.831 347.614 253.741 347.554 253.621C347.434 253.321 347.344 253.021 347.284 252.721C347.224 252.361 347.194 252.001 347.194 251.641C347.134 251.341 347.074 251.041 347.014 250.741C347.014 250.441 346.984 250.141 346.924 249.841C346.864 249.361 346.864 248.851 346.924 248.311V246.961ZM404.819 223.291C406.559 224.431 408.029 225.781 409.229 227.341C410.489 228.841 411.479 230.701 412.199 232.921C412.979 235.381 413.369 237.871 413.369 240.391C413.429 242.851 412.979 245.161 412.019 247.321C411.119 249.421 409.649 251.281 407.609 252.901C405.629 254.461 403.019 255.571 399.779 256.231C398.039 256.651 395.999 256.981 393.659 257.221C391.319 257.461 389.219 257.581 387.359 257.581C385.019 257.641 382.589 257.641 380.069 257.581C377.609 257.581 375.209 257.341 372.869 256.861C371.849 256.561 371.099 256.051 370.619 255.331C370.199 254.551 369.899 253.681 369.719 252.721C369.479 252.181 369.359 251.641 369.359 251.101V199.981C369.359 198.301 369.689 197.011 370.349 196.111C371.069 195.151 371.999 194.461 373.139 194.041C374.279 193.561 375.569 193.291 377.009 193.231C378.449 193.111 379.949 193.051 381.509 193.051C382.709 193.051 383.909 193.051 385.109 193.051C386.369 192.991 387.629 192.991 388.889 193.051C390.869 193.111 392.909 193.291 395.009 193.591C397.169 193.831 399.209 194.311 401.129 195.031C402.029 195.331 402.989 195.751 404.009 196.291C405.029 196.771 405.839 197.371 406.439 198.091C408.359 199.831 409.769 201.871 410.669 204.211C411.629 206.491 412.049 208.831 411.929 211.231C411.809 213.571 411.149 215.821 409.949 217.981C408.809 220.141 407.099 221.911 404.819 223.291ZM389.069 247.141C390.929 247.021 392.819 246.811 394.739 246.511C396.659 246.211 397.979 245.641 398.699 244.801C399.479 243.841 400.019 242.731 400.319 241.471C400.679 240.151 400.769 238.831 400.589 237.511C400.469 236.131 400.079 234.841 399.419 233.641C398.819 232.381 398.009 231.391 396.989 230.671C395.609 229.591 394.019 228.901 392.219 228.601C390.419 228.241 388.649 228.061 386.909 228.061C386.069 228.061 385.289 228.091 384.569 228.151C383.909 228.151 383.309 228.241 382.769 228.421C382.289 228.541 381.929 228.811 381.689 229.231C381.449 229.651 381.329 230.281 381.329 231.121C381.449 232.681 381.449 234.241 381.329 235.801C381.209 237.361 381.149 238.861 381.149 240.301C381.149 241.141 381.119 242.071 381.059 243.091C381.059 244.051 381.389 244.861 382.049 245.521C382.709 246.181 383.669 246.631 384.929 246.871C386.189 247.111 387.569 247.201 389.069 247.141ZM390.869 203.941C389.009 203.881 387.449 203.851 386.189 203.851C384.989 203.791 384.029 203.881 383.309 204.121C382.649 204.301 382.169 204.751 381.869 205.471C381.629 206.131 381.539 207.151 381.599 208.531C381.599 209.671 381.569 210.811 381.509 211.951C381.509 213.031 381.509 214.111 381.509 215.191C381.509 216.391 381.899 217.291 382.679 217.891C383.459 218.431 384.419 218.761 385.559 218.881C386.759 219.001 387.989 219.001 389.249 218.881C390.569 218.761 391.709 218.611 392.669 218.431C394.829 218.071 396.479 217.351 397.619 216.271C398.819 215.131 399.509 213.481 399.689 211.321C399.929 208.621 399.209 206.761 397.529 205.741C395.909 204.661 393.689 204.061 390.869 203.941ZM468.597 197.731C468.957 200.611 469.167 203.971 469.227 207.811C469.287 211.591 469.227 215.431 469.047 219.331C468.927 223.171 468.657 226.831 468.237 230.311C467.817 233.731 467.307 236.491 466.707 238.591C466.287 239.851 465.777 241.171 465.177 242.551C464.637 243.871 464.037 245.071 463.377 246.151C462.417 247.771 461.247 249.211 459.867 250.471C458.487 251.671 456.957 252.721 455.277 253.621C453.657 254.461 451.917 255.121 450.057 255.601C448.257 256.081 446.457 256.351 444.657 256.411C441.477 256.531 438.447 256.081 435.567 255.061C432.747 253.981 430.137 252.301 427.737 250.021C425.937 248.281 424.497 246.421 423.417 244.441C422.337 242.461 421.497 240.391 420.897 238.231C420.297 236.011 419.907 233.731 419.727 231.391C419.607 229.051 419.547 226.651 419.547 224.191C419.547 223.051 419.517 221.641 419.457 219.961C419.457 218.221 419.457 216.451 419.457 214.651C419.457 212.791 419.457 210.991 419.457 209.251C419.457 207.511 419.487 206.041 419.547 204.841C419.547 204.061 419.547 203.221 419.547 202.321C419.547 201.361 419.577 200.431 419.637 199.531C419.757 198.571 419.937 197.671 420.177 196.831C420.417 195.931 420.777 195.121 421.257 194.401C421.797 193.621 422.547 193.051 423.507 192.691C424.467 192.331 425.457 192.151 426.477 192.151C427.557 192.151 428.577 192.361 429.537 192.781C430.497 193.201 431.277 193.801 431.877 194.581C432.177 195.061 432.387 195.541 432.507 196.021C432.627 196.501 432.717 197.041 432.777 197.641C432.897 199.621 432.957 201.871 432.957 204.391C433.017 206.911 433.017 209.371 432.957 211.771C432.957 214.111 432.927 216.271 432.867 218.251C432.807 220.231 432.777 221.701 432.777 222.661C432.777 226.261 432.957 229.531 433.317 232.471C433.677 235.351 434.517 237.751 435.837 239.671C437.037 241.411 438.447 242.521 440.067 243.001C441.687 243.481 443.307 243.631 444.927 243.451C446.427 243.271 447.927 242.731 449.427 241.831C450.987 240.871 452.217 239.491 453.117 237.691C453.477 237.031 453.777 236.281 454.017 235.441C454.257 234.601 454.437 233.821 454.557 233.101C454.797 230.821 455.007 228.181 455.187 225.181C455.367 222.121 455.517 219.001 455.637 215.821C455.757 212.641 455.817 209.521 455.817 206.461C455.817 203.401 455.787 200.641 455.727 198.181C455.847 197.101 456.177 196.111 456.717 195.211C457.197 194.431 457.887 193.741 458.787 193.141C459.687 192.541 460.917 192.241 462.477 192.241C463.737 192.301 464.757 192.631 465.537 193.231C466.317 193.771 466.947 194.371 467.427 195.031C467.967 195.811 468.357 196.711 468.597 197.731ZM526.178 195.571C526.838 196.351 527.168 197.161 527.168 198.001C527.168 198.361 527.138 198.751 527.078 199.171C527.078 199.531 527.048 199.861 526.988 200.161C526.808 200.821 526.418 201.451 525.818 202.051C525.338 202.411 524.678 202.681 523.838 202.861C523.418 202.981 522.998 203.071 522.578 203.131C522.158 203.191 521.708 203.281 521.228 203.401C520.808 203.461 520.388 203.491 519.968 203.491C519.548 203.491 519.098 203.491 518.618 203.491H514.028C512.948 203.551 511.868 203.581 510.788 203.581C509.768 203.581 508.748 203.581 507.728 203.581C507.788 205.441 507.818 207.451 507.818 209.611C507.818 211.711 507.788 214.171 507.728 216.991C507.728 219.811 507.698 223.081 507.638 226.801C507.638 230.521 507.638 234.841 507.638 239.761V246.601C507.638 247.201 507.668 247.651 507.728 247.951C507.728 248.191 507.728 248.431 507.728 248.671C507.728 248.851 507.698 249.091 507.638 249.391C507.518 249.931 507.428 250.561 507.368 251.281C507.368 251.581 507.338 251.881 507.278 252.181C507.218 252.421 507.128 252.691 507.008 252.991C506.768 253.231 506.648 253.411 506.648 253.531L506.378 254.071C506.078 254.671 505.508 255.241 504.668 255.781C503.348 256.441 501.878 256.591 500.258 256.231C499.238 256.111 498.458 255.841 497.918 255.421C497.378 254.881 496.988 254.341 496.748 253.801C496.388 253.141 496.178 252.511 496.118 251.911C495.938 251.371 495.848 250.801 495.848 250.201V203.941C495.488 203.941 494.738 203.941 493.598 203.941C492.458 203.941 491.228 203.941 489.908 203.941C488.648 203.881 487.448 203.821 486.308 203.761C485.168 203.701 484.388 203.641 483.968 203.581C483.608 203.521 483.038 203.431 482.258 203.311C481.538 203.191 480.938 203.071 480.458 202.951C479.198 202.591 478.208 202.021 477.488 201.241C476.828 200.461 476.498 199.591 476.498 198.631C476.498 198.271 476.498 197.911 476.498 197.551C476.498 197.191 476.558 196.861 476.678 196.561C476.858 195.841 477.338 195.241 478.118 194.761C478.358 194.581 478.718 194.371 479.198 194.131C479.738 193.831 480.248 193.621 480.728 193.501C481.448 193.261 482.348 193.081 483.428 192.961C483.908 192.901 484.388 192.871 484.868 192.871C485.348 192.871 485.858 192.871 486.398 192.871C488.498 192.871 490.478 192.871 492.338 192.871C494.258 192.871 496.268 192.841 498.368 192.781C501.848 192.721 505.298 192.721 508.718 192.781C512.198 192.781 515.648 192.841 519.068 192.961C519.848 193.021 520.598 193.111 521.318 193.231C522.038 193.351 522.758 193.561 523.478 193.861C524.018 194.041 524.528 194.281 525.008 194.581C525.488 194.821 525.878 195.151 526.178 195.571ZM544.898 194.941C548.918 193.441 552.548 192.781 555.788 192.961C559.088 193.141 562.028 193.981 564.608 195.481C567.188 196.921 569.378 198.871 571.178 201.331C573.038 203.791 574.538 206.551 575.678 209.611C576.578 211.891 577.268 214.291 577.748 216.811C578.228 219.331 578.498 221.851 578.558 224.371C578.678 226.831 578.588 229.261 578.288 231.661C578.048 234.061 577.628 236.281 577.028 238.321C576.668 239.701 576.248 240.961 575.768 242.101C575.288 243.241 574.718 244.381 574.058 245.521C572.558 248.101 570.608 250.201 568.208 251.821C565.868 253.441 563.288 254.581 560.468 255.241C558.548 255.721 556.568 255.961 554.528 255.961C552.488 255.901 550.478 255.631 548.498 255.151C546.518 254.611 544.598 253.861 542.738 252.901C540.938 251.881 539.288 250.621 537.788 249.121C535.928 247.321 534.398 245.251 533.198 242.911C531.998 240.511 531.068 238.021 530.408 235.441C529.748 232.801 529.328 230.161 529.148 227.521C528.968 224.881 528.968 222.361 529.148 219.961C529.328 217.741 529.748 215.371 530.408 212.851C531.128 210.331 532.148 207.901 533.468 205.561C534.788 203.221 536.378 201.121 538.238 199.261C540.158 197.341 542.378 195.901 544.898 194.941ZM565.958 233.461C566.678 230.641 566.978 227.461 566.858 223.921C566.738 220.381 566.168 217.051 565.148 213.931C564.488 212.011 563.648 210.331 562.628 208.891C561.668 207.391 560.498 206.251 559.118 205.471C557.798 204.691 556.238 204.301 554.438 204.301C552.638 204.301 550.628 204.841 548.408 205.921C547.088 206.581 545.948 207.481 544.988 208.621C544.088 209.761 543.338 211.051 542.738 212.491C542.198 213.931 541.748 215.431 541.388 216.991C541.088 218.551 540.908 220.051 540.848 221.491C540.728 223.051 540.698 224.701 540.758 226.441C540.818 228.121 540.998 229.831 541.298 231.571C541.658 233.251 542.138 234.871 542.738 236.431C543.338 237.931 544.148 239.281 545.168 240.481C546.728 242.281 548.528 243.541 550.568 244.261C552.668 244.921 554.738 245.011 556.778 244.531C560.078 243.811 562.598 241.621 564.338 237.961C565.058 236.641 565.598 235.141 565.958 233.461ZM632.362 252.541C632.422 253.141 632.362 253.711 632.182 254.251C632.062 254.611 631.882 254.911 631.642 255.151C631.462 255.391 631.222 255.631 630.922 255.871C630.382 256.231 629.722 256.561 628.942 256.861C628.462 256.981 627.982 257.071 627.502 257.131C627.082 257.251 626.632 257.251 626.152 257.131C625.192 257.071 624.352 256.711 623.632 256.051C622.612 255.211 621.772 254.281 621.112 253.261C620.812 252.781 620.482 252.241 620.122 251.641C619.762 251.041 619.432 250.411 619.132 249.751L609.142 230.761C608.662 230.761 608.182 230.791 607.702 230.851C607.222 230.851 606.742 230.881 606.262 230.941C605.002 231.061 603.802 231.091 602.662 231.031C601.582 230.971 600.442 230.971 599.242 231.031H597.532V247.321C597.532 247.801 597.502 248.251 597.442 248.671C597.442 249.091 597.442 249.541 597.442 250.021C597.442 250.321 597.412 250.711 597.352 251.191C597.352 251.671 597.322 252.121 597.262 252.541C597.142 253.201 596.872 253.891 596.452 254.611C596.032 255.271 595.462 255.841 594.742 256.321C593.482 257.101 591.952 257.311 590.152 256.951C589.372 256.771 588.622 256.471 587.902 256.051C587.662 255.871 587.452 255.661 587.272 255.421C587.092 255.121 586.942 254.821 586.822 254.521C586.702 254.221 586.582 253.921 586.462 253.621C586.402 253.261 586.311 252.931 586.191 252.631C586.011 252.031 585.922 251.461 585.922 250.921V199.801C585.922 199.441 585.922 199.081 585.922 198.721C585.982 198.301 586.042 197.941 586.102 197.641C586.162 196.981 586.372 196.321 586.732 195.661C586.912 194.941 587.211 194.431 587.632 194.131C587.992 193.771 588.531 193.471 589.251 193.231C590.031 192.931 591.142 192.811 592.582 192.871C595.282 192.931 597.952 192.961 600.592 192.961C603.232 192.961 605.872 193.021 608.512 193.141C610.252 193.261 612.082 193.471 614.002 193.771C615.982 194.011 617.812 194.461 619.492 195.121C620.572 195.541 621.562 195.961 622.462 196.381C623.602 197.041 624.502 197.671 625.162 198.271C627.262 200.191 628.852 202.501 629.932 205.201C631.012 207.901 631.552 210.631 631.552 213.391C631.552 216.631 630.772 219.601 629.212 222.301C627.712 225.001 625.282 227.011 621.922 228.331C621.802 228.451 621.622 228.541 621.382 228.601C621.202 228.601 621.052 228.631 620.932 228.691L629.212 245.341L630.022 246.781C630.142 247.021 630.292 247.291 630.472 247.591C630.652 247.891 630.802 248.191 630.922 248.491C631.102 248.791 631.252 249.121 631.372 249.481C631.552 249.841 631.732 250.171 631.912 250.471C632.092 251.311 632.242 252.001 632.362 252.541ZM609.862 220.501C610.942 220.501 611.962 220.321 612.922 219.961C613.942 219.541 614.842 219.001 615.622 218.341C616.462 217.681 617.152 216.931 617.692 216.091C618.232 215.191 618.532 214.231 618.592 213.211C618.832 210.211 618.052 207.991 616.252 206.551C614.452 205.051 612.082 204.241 609.142 204.121C607.402 204.001 605.482 203.941 603.382 203.941C601.342 203.941 599.392 203.941 597.532 203.941C597.592 206.401 597.592 208.921 597.532 211.501C597.532 214.021 597.532 217.021 597.532 220.501H609.862Z" stroke="black" stroke-width="60" mask="url(#path-2-inside-1_1602_182)"/>
<path d="M282.281 195.571C282.941 196.351 283.271 197.161 283.271 198.001C283.271 198.361 283.241 198.751 283.181 199.171C283.181 199.531 283.151 199.861 283.091 200.161C282.911 200.821 282.521 201.451 281.921 202.051C281.441 202.411 280.781 202.681 279.941 202.861C279.521 202.981 279.101 203.071 278.681 203.131C278.261 203.191 277.811 203.281 277.331 203.401C276.911 203.461 276.491 203.491 276.071 203.491C275.651 203.491 275.201 203.491 274.721 203.491H270.131C269.051 203.551 267.971 203.581 266.891 203.581C265.871 203.581 264.851 203.581 263.831 203.581C263.891 205.441 263.921 207.451 263.921 209.611C263.921 211.711 263.891 214.171 263.831 216.991C263.831 219.811 263.801 223.081 263.741 226.801C263.741 230.521 263.741 234.841 263.741 239.761V246.601C263.741 247.201 263.771 247.651 263.831 247.951C263.831 248.191 263.831 248.431 263.831 248.671C263.831 248.851 263.801 249.091 263.741 249.391C263.621 249.931 263.531 250.561 263.471 251.281C263.471 251.581 263.441 251.881 263.381 252.181C263.321 252.421 263.231 252.691 263.111 252.991C262.871 253.231 262.751 253.411 262.751 253.531L262.481 254.071C262.181 254.671 261.611 255.241 260.771 255.781C259.451 256.441 257.981 256.591 256.361 256.231C255.341 256.111 254.561 255.841 254.021 255.421C253.481 254.881 253.091 254.341 252.851 253.801C252.491 253.141 252.281 252.511 252.221 251.911C252.041 251.371 251.951 250.801 251.951 250.201V203.941C251.591 203.941 250.841 203.941 249.701 203.941C248.561 203.941 247.331 203.941 246.011 203.941C244.751 203.881 243.551 203.821 242.411 203.761C241.271 203.701 240.491 203.641 240.071 203.581C239.711 203.521 239.141 203.431 238.361 203.311C237.641 203.191 237.041 203.071 236.561 202.951C235.301 202.591 234.311 202.021 233.591 201.241C232.931 200.461 232.601 199.591 232.601 198.631C232.601 198.271 232.601 197.911 232.601 197.551C232.601 197.191 232.661 196.861 232.781 196.561C232.961 195.841 233.441 195.241 234.221 194.761C234.461 194.581 234.821 194.371 235.301 194.131C235.841 193.831 236.351 193.621 236.831 193.501C237.551 193.261 238.451 193.081 239.531 192.961C240.011 192.901 240.491 192.871 240.971 192.871C241.451 192.871 241.961 192.871 242.501 192.871C244.601 192.871 246.581 192.871 248.441 192.871C250.361 192.871 252.371 192.841 254.471 192.781C257.951 192.721 261.401 192.721 264.821 192.781C268.301 192.781 271.751 192.841 275.171 192.961C275.951 193.021 276.701 193.111 277.421 193.231C278.141 193.351 278.861 193.561 279.581 193.861C280.121 194.041 280.631 194.281 281.111 194.581C281.591 194.821 281.981 195.151 282.281 195.571ZM336.873 252.541C336.933 253.141 336.873 253.711 336.693 254.251C336.573 254.611 336.393 254.911 336.153 255.151C335.973 255.391 335.733 255.631 335.433 255.871C334.893 256.231 334.233 256.561 333.453 256.861C332.973 256.981 332.493 257.071 332.013 257.131C331.593 257.251 331.143 257.251 330.663 257.131C329.703 257.071 328.863 256.711 328.143 256.051C327.123 255.211 326.283 254.281 325.623 253.261C325.323 252.781 324.993 252.241 324.633 251.641C324.273 251.041 323.943 250.411 323.643 249.751L313.653 230.761C313.173 230.761 312.693 230.791 312.213 230.851C311.733 230.851 311.253 230.881 310.773 230.941C309.513 231.061 308.313 231.091 307.173 231.031C306.093 230.971 304.953 230.971 303.753 231.031H302.043V247.321C302.043 247.801 302.013 248.251 301.953 248.671C301.953 249.091 301.953 249.541 301.953 250.021C301.953 250.321 301.923 250.711 301.863 251.191C301.863 251.671 301.833 252.121 301.773 252.541C301.653 253.201 301.383 253.891 300.963 254.611C300.543 255.271 299.973 255.841 299.253 256.321C297.993 257.101 296.463 257.311 294.663 256.951C293.883 256.771 293.133 256.471 292.413 256.051C292.173 255.871 291.963 255.661 291.783 255.421C291.603 255.121 291.453 254.821 291.333 254.521C291.213 254.221 291.093 253.921 290.973 253.621C290.913 253.261 290.823 252.931 290.703 252.631C290.523 252.031 290.433 251.461 290.433 250.921V199.801C290.433 199.441 290.433 199.081 290.433 198.721C290.493 198.301 290.553 197.941 290.613 197.641C290.673 196.981 290.883 196.321 291.243 195.661C291.423 194.941 291.723 194.431 292.143 194.131C292.503 193.771 293.043 193.471 293.763 193.231C294.543 192.931 295.653 192.811 297.093 192.871C299.793 192.931 302.463 192.961 305.103 192.961C307.743 192.961 310.383 193.021 313.023 193.141C314.763 193.261 316.593 193.471 318.513 193.771C320.493 194.011 322.323 194.461 324.003 195.121C325.083 195.541 326.073 195.961 326.973 196.381C328.113 197.041 329.013 197.671 329.673 198.271C331.773 200.191 333.363 202.501 334.443 205.201C335.523 207.901 336.063 210.631 336.063 213.391C336.063 216.631 335.283 219.601 333.723 222.301C332.223 225.001 329.793 227.011 326.433 228.331C326.313 228.451 326.133 228.541 325.893 228.601C325.713 228.601 325.563 228.631 325.443 228.691L333.723 245.341L334.533 246.781C334.653 247.021 334.803 247.291 334.983 247.591C335.163 247.891 335.313 248.191 335.433 248.491C335.613 248.791 335.763 249.121 335.883 249.481C336.063 249.841 336.243 250.171 336.423 250.471C336.603 251.311 336.753 252.001 336.873 252.541ZM314.373 220.501C315.453 220.501 316.473 220.321 317.433 219.961C318.453 219.541 319.353 219.001 320.133 218.341C320.973 217.681 321.663 216.931 322.203 216.091C322.743 215.191 323.043 214.231 323.103 213.211C323.343 210.211 322.563 207.991 320.763 206.551C318.963 205.051 316.593 204.241 313.653 204.121C311.913 204.001 309.993 203.941 307.893 203.941C305.853 203.941 303.903 203.941 302.043 203.941C302.103 206.401 302.103 208.921 302.043 211.501C302.043 214.021 302.043 217.021 302.043 220.501H314.373ZM346.924 246.961L347.014 239.851L347.104 226.621C347.164 224.701 347.194 222.721 347.194 220.681C347.194 218.641 347.194 216.541 347.194 214.381C347.194 212.221 347.194 210.301 347.194 208.621C347.194 206.941 347.254 205.051 347.374 202.951V202.591C347.434 201.991 347.464 201.391 347.464 200.791C347.524 200.131 347.554 199.471 347.554 198.811C347.614 197.731 347.944 196.561 348.544 195.301C348.964 194.461 349.594 193.741 350.434 193.141C351.394 192.661 352.324 192.421 353.224 192.421C353.704 192.421 354.124 192.451 354.484 192.511C354.904 192.511 355.294 192.541 355.654 192.601C356.434 192.721 357.124 193.081 357.724 193.681C358.084 193.981 358.414 194.461 358.714 195.121C358.834 195.481 358.924 195.841 358.984 196.201C359.104 196.501 359.194 196.831 359.254 197.191C359.314 197.611 359.344 198.001 359.344 198.361C359.404 198.721 359.434 199.081 359.434 199.441C359.434 199.861 359.404 200.251 359.344 200.611C359.344 200.911 359.344 201.241 359.344 201.601V203.131L358.804 249.841V250.741C358.804 250.921 358.774 251.161 358.714 251.461C358.714 251.701 358.684 252.001 358.624 252.361C358.504 252.661 358.384 252.991 358.264 253.351C358.204 253.651 358.114 253.981 357.994 254.341C357.814 254.641 357.604 254.941 357.364 255.241C357.184 255.481 356.944 255.721 356.644 255.961C356.164 256.441 355.384 256.771 354.304 256.951C352.684 257.311 351.154 257.161 349.714 256.501C348.994 256.021 348.484 255.421 348.184 254.701C348.004 254.521 347.914 254.341 347.914 254.161C347.854 254.041 347.794 253.951 347.734 253.891C347.674 253.831 347.614 253.741 347.554 253.621C347.434 253.321 347.344 253.021 347.284 252.721C347.224 252.361 347.194 252.001 347.194 251.641C347.134 251.341 347.074 251.041 347.014 250.741C347.014 250.441 346.984 250.141 346.924 249.841C346.864 249.361 346.864 248.851 346.924 248.311V246.961ZM404.819 223.291C406.559 224.431 408.029 225.781 409.229 227.341C410.489 228.841 411.479 230.701 412.199 232.921C412.979 235.381 413.369 237.871 413.369 240.391C413.429 242.851 412.979 245.161 412.019 247.321C411.119 249.421 409.649 251.281 407.609 252.901C405.629 254.461 403.019 255.571 399.779 256.231C398.039 256.651 395.999 256.981 393.659 257.221C391.319 257.461 389.219 257.581 387.359 257.581C385.019 257.641 382.589 257.641 380.069 257.581C377.609 257.581 375.209 257.341 372.869 256.861C371.849 256.561 371.099 256.051 370.619 255.331C370.199 254.551 369.899 253.681 369.719 252.721C369.479 252.181 369.359 251.641 369.359 251.101V199.981C369.359 198.301 369.689 197.011 370.349 196.111C371.069 195.151 371.999 194.461 373.139 194.041C374.279 193.561 375.569 193.291 377.009 193.231C378.449 193.111 379.949 193.051 381.509 193.051C382.709 193.051 383.909 193.051 385.109 193.051C386.369 192.991 387.629 192.991 388.889 193.051C390.869 193.111 392.909 193.291 395.009 193.591C397.169 193.831 399.209 194.311 401.129 195.031C402.029 195.331 402.989 195.751 404.009 196.291C405.029 196.771 405.839 197.371 406.439 198.091C408.359 199.831 409.769 201.871 410.669 204.211C411.629 206.491 412.049 208.831 411.929 211.231C411.809 213.571 411.149 215.821 409.949 217.981C408.809 220.141 407.099 221.911 404.819 223.291ZM389.069 247.141C390.929 247.021 392.819 246.811 394.739 246.511C396.659 246.211 397.979 245.641 398.699 244.801C399.479 243.841 400.019 242.731 400.319 241.471C400.679 240.151 400.769 238.831 400.589 237.511C400.469 236.131 400.079 234.841 399.419 233.641C398.819 232.381 398.009 231.391 396.989 230.671C395.609 229.591 394.019 228.901 392.219 228.601C390.419 228.241 388.649 228.061 386.909 228.061C386.069 228.061 385.289 228.091 384.569 228.151C383.909 228.151 383.309 228.241 382.769 228.421C382.289 228.541 381.929 228.811 381.689 229.231C381.449 229.651 381.329 230.281 381.329 231.121C381.449 232.681 381.449 234.241 381.329 235.801C381.209 237.361 381.149 238.861 381.149 240.301C381.149 241.141 381.119 242.071 381.059 243.091C381.059 244.051 381.389 244.861 382.049 245.521C382.709 246.181 383.669 246.631 384.929 246.871C386.189 247.111 387.569 247.201 389.069 247.141ZM390.869 203.941C389.009 203.881 387.449 203.851 386.189 203.851C384.989 203.791 384.029 203.881 383.309 204.121C382.649 204.301 382.169 204.751 381.869 205.471C381.629 206.131 381.539 207.151 381.599 208.531C381.599 209.671 381.569 210.811 381.509 211.951C381.509 213.031 381.509 214.111 381.509 215.191C381.509 216.391 381.899 217.291 382.679 217.891C383.459 218.431 384.419 218.761 385.559 218.881C386.759 219.001 387.989 219.001 389.249 218.881C390.569 218.761 391.709 218.611 392.669 218.431C394.829 218.071 396.479 217.351 397.619 216.271C398.819 215.131 399.509 213.481 399.689 211.321C399.929 208.621 399.209 206.761 397.529 205.741C395.909 204.661 393.689 204.061 390.869 203.941ZM468.597 197.731C468.957 200.611 469.167 203.971 469.227 207.811C469.287 211.591 469.227 215.431 469.047 219.331C468.927 223.171 468.657 226.831 468.237 230.311C467.817 233.731 467.307 236.491 466.707 238.591C466.287 239.851 465.777 241.171 465.177 242.551C464.637 243.871 464.037 245.071 463.377 246.151C462.417 247.771 461.247 249.211 459.867 250.471C458.487 251.671 456.957 252.721 455.277 253.621C453.657 254.461 451.917 255.121 450.057 255.601C448.257 256.081 446.457 256.351 444.657 256.411C441.477 256.531 438.447 256.081 435.567 255.061C432.747 253.981 430.137 252.301 427.737 250.021C425.937 248.281 424.497 246.421 423.417 244.441C422.337 242.461 421.497 240.391 420.897 238.231C420.297 236.011 419.907 233.731 419.727 231.391C419.607 229.051 419.547 226.651 419.547 224.191C419.547 223.051 419.517 221.641 419.457 219.961C419.457 218.221 419.457 216.451 419.457 214.651C419.457 212.791 419.457 210.991 419.457 209.251C419.457 207.511 419.487 206.041 419.547 204.841C419.547 204.061 419.547 203.221 419.547 202.321C419.547 201.361 419.577 200.431 419.637 199.531C419.757 198.571 419.937 197.671 420.177 196.831C420.417 195.931 420.777 195.121 421.257 194.401C421.797 193.621 422.547 193.051 423.507 192.691C424.467 192.331 425.457 192.151 426.477 192.151C427.557 192.151 428.577 192.361 429.537 192.781C430.497 193.201 431.277 193.801 431.877 194.581C432.177 195.061 432.387 195.541 432.507 196.021C432.627 196.501 432.717 197.041 432.777 197.641C432.897 199.621 432.957 201.871 432.957 204.391C433.017 206.911 433.017 209.371 432.957 211.771C432.957 214.111 432.927 216.271 432.867 218.251C432.807 220.231 432.777 221.701 432.777 222.661C432.777 226.261 432.957 229.531 433.317 232.471C433.677 235.351 434.517 237.751 435.837 239.671C437.037 241.411 438.447 242.521 440.067 243.001C441.687 243.481 443.307 243.631 444.927 243.451C446.427 243.271 447.927 242.731 449.427 241.831C450.987 240.871 452.217 239.491 453.117 237.691C453.477 237.031 453.777 236.281 454.017 235.441C454.257 234.601 454.437 233.821 454.557 233.101C454.797 230.821 455.007 228.181 455.187 225.181C455.367 222.121 455.517 219.001 455.637 215.821C455.757 212.641 455.817 209.521 455.817 206.461C455.817 203.401 455.787 200.641 455.727 198.181C455.847 197.101 456.177 196.111 456.717 195.211C457.197 194.431 457.887 193.741 458.787 193.141C459.687 192.541 460.917 192.241 462.477 192.241C463.737 192.301 464.757 192.631 465.537 193.231C466.317 193.771 466.947 194.371 467.427 195.031C467.967 195.811 468.357 196.711 468.597 197.731ZM526.178 195.571C526.838 196.351 527.168 197.161 527.168 198.001C527.168 198.361 527.138 198.751 527.078 199.171C527.078 199.531 527.048 199.861 526.988 200.161C526.808 200.821 526.418 201.451 525.818 202.051C525.338 202.411 524.678 202.681 523.838 202.861C523.418 202.981 522.998 203.071 522.578 203.131C522.158 203.191 521.708 203.281 521.228 203.401C520.808 203.461 520.388 203.491 519.968 203.491C519.548 203.491 519.098 203.491 518.618 203.491H514.028C512.948 203.551 511.868 203.581 510.788 203.581C509.768 203.581 508.748 203.581 507.728 203.581C507.788 205.441 507.818 207.451 507.818 209.611C507.818 211.711 507.788 214.171 507.728 216.991C507.728 219.811 507.698 223.081 507.638 226.801C507.638 230.521 507.638 234.841 507.638 239.761V246.601C507.638 247.201 507.668 247.651 507.728 247.951C507.728 248.191 507.728 248.431 507.728 248.671C507.728 248.851 507.698 249.091 507.638 249.391C507.518 249.931 507.428 250.561 507.368 251.281C507.368 251.581 507.338 251.881 507.278 252.181C507.218 252.421 507.128 252.691 507.008 252.991C506.768 253.231 506.648 253.411 506.648 253.531L506.378 254.071C506.078 254.671 505.508 255.241 504.668 255.781C503.348 256.441 501.878 256.591 500.258 256.231C499.238 256.111 498.458 255.841 497.918 255.421C497.378 254.881 496.988 254.341 496.748 253.801C496.388 253.141 496.178 252.511 496.118 251.911C495.938 251.371 495.848 250.801 495.848 250.201V203.941C495.488 203.941 494.738 203.941 493.598 203.941C492.458 203.941 491.228 203.941 489.908 203.941C488.648 203.881 487.448 203.821 486.308 203.761C485.168 203.701 484.388 203.641 483.968 203.581C483.608 203.521 483.038 203.431 482.258 203.311C481.538 203.191 480.938 203.071 480.458 202.951C479.198 202.591 478.208 202.021 477.488 201.241C476.828 200.461 476.498 199.591 476.498 198.631C476.498 198.271 476.498 197.911 476.498 197.551C476.498 197.191 476.558 196.861 476.678 196.561C476.858 195.841 477.338 195.241 478.118 194.761C478.358 194.581 478.718 194.371 479.198 194.131C479.738 193.831 480.248 193.621 480.728 193.501C481.448 193.261 482.348 193.081 483.428 192.961C483.908 192.901 484.388 192.871 484.868 192.871C485.348 192.871 485.858 192.871 486.398 192.871C488.498 192.871 490.478 192.871 492.338 192.871C494.258 192.871 496.268 192.841 498.368 192.781C501.848 192.721 505.298 192.721 508.718 192.781C512.198 192.781 515.648 192.841 519.068 192.961C519.848 193.021 520.598 193.111 521.318 193.231C522.038 193.351 522.758 193.561 523.478 193.861C524.018 194.041 524.528 194.281 525.008 194.581C525.488 194.821 525.878 195.151 526.178 195.571ZM544.898 194.941C548.918 193.441 552.548 192.781 555.788 192.961C559.088 193.141 562.028 193.981 564.608 195.481C567.188 196.921 569.378 198.871 571.178 201.331C573.038 203.791 574.538 206.551 575.678 209.611C576.578 211.891 577.268 214.291 577.748 216.811C578.228 219.331 578.498 221.851 578.558 224.371C578.678 226.831 578.588 229.261 578.288 231.661C578.048 234.061 577.628 236.281 577.028 238.321C576.668 239.701 576.248 240.961 575.768 242.101C575.288 243.241 574.718 244.381 574.058 245.521C572.558 248.101 570.608 250.201 568.208 251.821C565.868 253.441 563.288 254.581 560.468 255.241C558.548 255.721 556.568 255.961 554.528 255.961C552.488 255.901 550.478 255.631 548.498 255.151C546.518 254.611 544.598 253.861 542.738 252.901C540.938 251.881 539.288 250.621 537.788 249.121C535.928 247.321 534.398 245.251 533.198 242.911C531.998 240.511 531.068 238.021 530.408 235.441C529.748 232.801 529.328 230.161 529.148 227.521C528.968 224.881 528.968 222.361 529.148 219.961C529.328 217.741 529.748 215.371 530.408 212.851C531.128 210.331 532.148 207.901 533.468 205.561C534.788 203.221 536.378 201.121 538.238 199.261C540.158 197.341 542.378 195.901 544.898 194.941ZM565.958 233.461C566.678 230.641 566.978 227.461 566.858 223.921C566.738 220.381 566.168 217.051 565.148 213.931C564.488 212.011 563.648 210.331 562.628 208.891C561.668 207.391 560.498 206.251 559.118 205.471C557.798 204.691 556.238 204.301 554.438 204.301C552.638 204.301 550.628 204.841 548.408 205.921C547.088 206.581 545.948 207.481 544.988 208.621C544.088 209.761 543.338 211.051 542.738 212.491C542.198 213.931 541.748 215.431 541.388 216.991C541.088 218.551 540.908 220.051 540.848 221.491C540.728 223.051 540.698 224.701 540.758 226.441C540.818 228.121 540.998 229.831 541.298 231.571C541.658 233.251 542.138 234.871 542.738 236.431C543.338 237.931 544.148 239.281 545.168 240.481C546.728 242.281 548.528 243.541 550.568 244.261C552.668 244.921 554.738 245.011 556.778 244.531C560.078 243.811 562.598 241.621 564.338 237.961C565.058 236.641 565.598 235.141 565.958 233.461ZM632.362 252.541C632.422 253.141 632.362 253.711 632.182 254.251C632.062 254.611 631.882 254.911 631.642 255.151C631.462 255.391 631.222 255.631 630.922 255.871C630.382 256.231 629.722 256.561 628.942 256.861C628.462 256.981 627.982 257.071 627.502 257.131C627.082 257.251 626.632 257.251 626.152 257.131C625.192 257.071 624.352 256.711 623.632 256.051C622.612 255.211 621.772 254.281 621.112 253.261C620.812 252.781 620.482 252.241 620.122 251.641C619.762 251.041 619.432 250.411 619.132 249.751L609.142 230.761C608.662 230.761 608.182 230.791 607.702 230.851C607.222 230.851 606.742 230.881 606.262 230.941C605.002 231.061 603.802 231.091 602.662 231.031C601.582 230.971 600.442 230.971 599.242 231.031H597.532V247.321C597.532 247.801 597.502 248.251 597.442 248.671C597.442 249.091 597.442 249.541 597.442 250.021C597.442 250.321 597.412 250.711 597.352 251.191C597.352 251.671 597.322 252.121 597.262 252.541C597.142 253.201 596.872 253.891 596.452 254.611C596.032 255.271 595.462 255.841 594.742 256.321C593.482 257.101 591.952 257.311 590.152 256.951C589.372 256.771 588.622 256.471 587.902 256.051C587.662 255.871 587.452 255.661 587.272 255.421C587.092 255.121 586.942 254.821 586.822 254.521C586.702 254.221 586.582 253.921 586.462 253.621C586.402 253.261 586.311 252.931 586.191 252.631C586.011 252.031 585.922 251.461 585.922 250.921V199.801C585.922 199.441 585.922 199.081 585.922 198.721C585.982 198.301 586.042 197.941 586.102 197.641C586.162 196.981 586.372 196.321 586.732 195.661C586.912 194.941 587.211 194.431 587.632 194.131C587.992 193.771 588.531 193.471 589.251 193.231C590.031 192.931 591.142 192.811 592.582 192.871C595.282 192.931 597.952 192.961 600.592 192.961C603.232 192.961 605.872 193.021 608.512 193.141C610.252 193.261 612.082 193.471 614.002 193.771C615.982 194.011 617.812 194.461 619.492 195.121C620.572 195.541 621.562 195.961 622.462 196.381C623.602 197.041 624.502 197.671 625.162 198.271C627.262 200.191 628.852 202.501 629.932 205.201C631.012 207.901 631.552 210.631 631.552 213.391C631.552 216.631 630.772 219.601 629.212 222.301C627.712 225.001 625.282 227.011 621.922 228.331C621.802 228.451 621.622 228.541 621.382 228.601C621.202 228.601 621.052 228.631 620.932 228.691L629.212 245.341L630.022 246.781C630.142 247.021 630.292 247.291 630.472 247.591C630.652 247.891 630.802 248.191 630.922 248.491C631.102 248.791 631.252 249.121 631.372 249.481C631.552 249.841 631.732 250.171 631.912 250.471C632.092 251.311 632.242 252.001 632.362 252.541ZM609.862 220.501C610.942 220.501 611.962 220.321 612.922 219.961C613.942 219.541 614.842 219.001 615.622 218.341C616.462 217.681 617.152 216.931 617.692 216.091C618.232 215.191 618.532 214.231 618.592 213.211C618.832 210.211 618.052 207.991 616.252 206.551C614.452 205.051 612.082 204.241 609.142 204.121C607.402 204.001 605.482 203.941 603.382 203.941C601.342 203.941 599.392 203.941 597.532 203.941C597.592 206.401 597.592 208.921 597.532 211.501C597.532 214.021 597.532 217.021 597.532 220.501H609.862Z" stroke="url(#paint0_radial_1602_182)" stroke-width="60" mask="url(#path-2-inside-1_1602_182)"/>
<defs>
<radialGradient id="paint0_radial_1602_182" cx="0" cy="0" r="1" gradientUnits="userSpaceOnUse" gradientTransform="translate(433.001 229.754) rotate(90) scale(49.72 179.52)">
<stop stop-color="#FF221B"/>
<stop offset="1" stop-color="#BB0006"/>
</radialGradient>
</defs>
</svg>
