<svg width="86" height="15" viewBox="0 0 86 15" fill="none" xmlns="http://www.w3.org/2000/svg">
<mask id="path-1-inside-1_1663_162589" fill="white">
<path d="M11.3517 1.01799C11.4923 1.18418 11.5627 1.35677 11.5627 1.53574C11.5627 1.61245 11.5563 1.69554 11.5435 1.78503C11.5435 1.86173 11.5371 1.93205 11.5243 1.99597C11.486 2.13659 11.4029 2.27082 11.275 2.39866C11.1727 2.47536 11.0321 2.53289 10.8531 2.57124C10.7637 2.59681 10.6742 2.61599 10.5847 2.62877C10.4952 2.64156 10.3993 2.66073 10.297 2.6863C10.2076 2.69908 10.1181 2.70548 10.0286 2.70548C9.9391 2.70548 9.84322 2.70548 9.74094 2.70548H8.76297C8.53286 2.71826 8.30275 2.72465 8.07264 2.72465C7.85531 2.72465 7.63798 2.72465 7.42065 2.72465C7.43344 3.12095 7.43983 3.54922 7.43983 4.00944C7.43983 4.45688 7.43344 4.98102 7.42065 5.58187C7.42065 6.18271 7.41426 6.87944 7.40148 7.67205C7.40148 8.46465 7.40148 9.3851 7.40148 10.4334V11.8908C7.40148 12.0186 7.40787 12.1145 7.42065 12.1784C7.42065 12.2295 7.42065 12.2807 7.42065 12.3318C7.42065 12.3702 7.41426 12.4213 7.40148 12.4852C7.37591 12.6003 7.35674 12.7345 7.34395 12.8879C7.34395 12.9518 7.33756 13.0157 7.32478 13.0797C7.31199 13.1308 7.29282 13.1883 7.26725 13.2522C7.21611 13.3034 7.19054 13.3417 7.19054 13.3673L7.13302 13.4824C7.0691 13.6102 6.94765 13.7316 6.76867 13.8467C6.48743 13.9873 6.17422 14.0193 5.82905 13.9426C5.61172 13.917 5.44553 13.8595 5.33048 13.77C5.21542 13.6549 5.13233 13.5399 5.08119 13.4248C5.00449 13.2842 4.95974 13.15 4.94696 13.0221C4.90861 12.9071 4.88943 12.7856 4.88943 12.6578V2.80136C4.81273 2.80136 4.65293 2.80136 4.41003 2.80136C4.16714 2.80136 3.90506 2.80136 3.62382 2.80136C3.35535 2.78857 3.09967 2.77579 2.85678 2.763C2.61388 2.75022 2.44769 2.73744 2.35821 2.72465C2.2815 2.71187 2.16005 2.69269 1.99386 2.66712C1.84045 2.64156 1.71261 2.61599 1.61034 2.59042C1.34188 2.51372 1.13094 2.39227 0.977537 2.22608C0.836913 2.05989 0.766602 1.87452 0.766602 1.66998C0.766602 1.59327 0.766602 1.51657 0.766602 1.43986C0.766602 1.36316 0.779386 1.29285 0.804953 1.22893C0.843305 1.07552 0.945577 0.947681 1.11177 0.845409C1.1629 0.807057 1.23961 0.762314 1.34188 0.711178C1.45694 0.647258 1.5656 0.602514 1.66787 0.576946C1.82128 0.52581 2.01304 0.487458 2.24315 0.46189C2.34542 0.449106 2.44769 0.442715 2.54996 0.442715C2.65224 0.442715 2.7609 0.442715 2.87596 0.442715C3.32339 0.442715 3.74527 0.442715 4.14157 0.442715C4.55065 0.442715 4.97892 0.436323 5.42636 0.423539C6.16783 0.410754 6.9029 0.410754 7.63159 0.423539C8.37306 0.423539 9.10814 0.436323 9.83682 0.46189C10.003 0.474674 10.1628 0.49385 10.3162 0.519418C10.4696 0.544986 10.623 0.58973 10.7764 0.653649C10.8915 0.692002 11.0002 0.743138 11.1024 0.807057C11.2047 0.858193 11.2878 0.928505 11.3517 1.01799ZM22.9834 13.1564C22.9962 13.2842 22.9834 13.4057 22.9451 13.5207C22.9195 13.5974 22.8812 13.6613 22.83 13.7125C22.7917 13.7636 22.7405 13.8147 22.6766 13.8659C22.5616 13.9426 22.4209 14.0129 22.2547 14.0768C22.1525 14.1024 22.0502 14.1216 21.9479 14.1343C21.8584 14.1599 21.7626 14.1599 21.6603 14.1343C21.4558 14.1216 21.2768 14.0449 21.1234 13.9042C20.906 13.7253 20.7271 13.5271 20.5864 13.3098C20.5225 13.2075 20.4522 13.0924 20.3755 12.9646C20.2988 12.8368 20.2285 12.7025 20.1646 12.5619L18.036 8.51579C17.9338 8.51579 17.8315 8.52218 17.7292 8.53496C17.627 8.53496 17.5247 8.54135 17.4224 8.55414C17.1539 8.57971 16.8983 8.5861 16.6554 8.57332C16.4253 8.56053 16.1824 8.56053 15.9267 8.57332H15.5623V12.0442C15.5623 12.1464 15.556 12.2423 15.5432 12.3318C15.5432 12.4213 15.5432 12.5172 15.5432 12.6194C15.5432 12.6834 15.5368 12.7665 15.524 12.8687C15.524 12.971 15.5176 13.0669 15.5048 13.1564C15.4792 13.297 15.4217 13.444 15.3322 13.5974C15.2427 13.738 15.1213 13.8595 14.9679 13.9618C14.6994 14.1279 14.3734 14.1727 13.9899 14.096C13.8237 14.0576 13.6639 13.9937 13.5105 13.9042C13.4594 13.8659 13.4146 13.8211 13.3763 13.77C13.3379 13.7061 13.306 13.6422 13.2804 13.5782C13.2548 13.5143 13.2293 13.4504 13.2037 13.3865C13.1909 13.3098 13.1717 13.2395 13.1462 13.1755C13.1078 13.0477 13.0886 12.9263 13.0886 12.8112V1.91926C13.0886 1.84256 13.0886 1.76585 13.0886 1.68915C13.1014 1.59966 13.1142 1.52296 13.127 1.45904C13.1398 1.31842 13.1845 1.17779 13.2612 1.03717C13.2996 0.883761 13.3635 0.775097 13.453 0.711178C13.5297 0.634473 13.6447 0.570554 13.7982 0.519418C13.9643 0.455499 14.2008 0.429931 14.5077 0.442715C15.0829 0.455498 15.6518 0.46189 16.2143 0.46189C16.7768 0.46189 17.3393 0.474674 17.9018 0.500242C18.2725 0.52581 18.6625 0.570554 19.0715 0.634474C19.4934 0.68561 19.8833 0.781489 20.2413 0.922113C20.4714 1.0116 20.6823 1.10109 20.8741 1.19058C21.117 1.3312 21.3087 1.46543 21.4494 1.59327C21.8968 2.00236 22.2356 2.49454 22.4657 3.06982C22.6958 3.6451 22.8109 4.22677 22.8109 4.81483C22.8109 5.50516 22.6447 6.13797 22.3123 6.71325C21.9927 7.28853 21.4749 7.71679 20.759 7.99804C20.7335 8.0236 20.6951 8.04278 20.644 8.05556C20.6056 8.05556 20.5737 8.06196 20.5481 8.07474L22.3123 11.6223L22.4849 11.9291C22.5104 11.9802 22.5424 12.0378 22.5807 12.1017C22.6191 12.1656 22.6511 12.2295 22.6766 12.2934C22.715 12.3574 22.7469 12.4277 22.7725 12.5044C22.8108 12.5811 22.8492 12.6514 22.8876 12.7153C22.9259 12.8943 22.9579 13.0413 22.9834 13.1564ZM18.1894 6.32973C18.4196 6.32973 18.6369 6.29138 18.8414 6.21467C19.0588 6.12519 19.2505 6.01013 19.4167 5.86951C19.5957 5.72888 19.7427 5.56908 19.8578 5.39011C19.9728 5.19835 20.0367 4.99381 20.0495 4.77648C20.1006 4.13728 19.9345 3.66427 19.5509 3.35746C19.1674 3.03786 18.6625 2.86528 18.036 2.83971C17.6653 2.81414 17.2562 2.80136 16.8088 2.80136C16.3741 2.80136 15.9586 2.80136 15.5623 2.80136C15.5751 3.3255 15.5751 3.86242 15.5623 4.41214C15.5623 4.94906 15.5623 5.58826 15.5623 6.32973H18.1894ZM25.125 11.9675L25.1442 10.4526L25.1633 7.63369C25.1761 7.22461 25.1825 6.80274 25.1825 6.36808C25.1825 5.93343 25.1825 5.48599 25.1825 5.02577C25.1825 4.56554 25.1825 4.15646 25.1825 3.79851C25.1825 3.44055 25.1953 3.03786 25.2209 2.59042V2.51372C25.2337 2.38588 25.2401 2.25804 25.2401 2.1302C25.2528 1.98957 25.2592 1.84895 25.2592 1.70833C25.272 1.47822 25.3423 1.22893 25.4702 0.960465C25.5597 0.78149 25.6939 0.628082 25.8729 0.500242C26.0774 0.39797 26.2756 0.346835 26.4673 0.346835C26.5696 0.346835 26.6591 0.353227 26.7358 0.366011C26.8253 0.366011 26.9084 0.372402 26.9851 0.385186C27.1513 0.410755 27.2983 0.487459 27.4261 0.615298C27.5028 0.679218 27.5731 0.781489 27.637 0.922113C27.6626 0.998816 27.6818 1.07552 27.6946 1.15222C27.7201 1.21614 27.7393 1.28646 27.7521 1.36316C27.7649 1.45265 27.7713 1.53574 27.7713 1.61245C27.7841 1.68915 27.7905 1.76585 27.7905 1.84256C27.7905 1.93205 27.7841 2.01514 27.7713 2.09185C27.7713 2.15576 27.7713 2.22608 27.7713 2.30278V2.62877L27.6562 12.5811V12.7728C27.6562 12.8112 27.6498 12.8623 27.637 12.9263C27.637 12.9774 27.6307 13.0413 27.6179 13.118C27.5923 13.1819 27.5667 13.2522 27.5412 13.3289C27.5284 13.3929 27.5092 13.4632 27.4836 13.5399C27.4453 13.6038 27.4005 13.6677 27.3494 13.7316C27.3111 13.7828 27.2599 13.8339 27.196 13.8851C27.0937 13.9873 26.9275 14.0576 26.6974 14.096C26.3523 14.1727 26.0263 14.1407 25.7195 14.0001C25.566 13.8978 25.4574 13.77 25.3935 13.6166C25.3551 13.5782 25.3359 13.5399 25.3359 13.5015C25.3231 13.476 25.3104 13.4568 25.2976 13.444C25.2848 13.4312 25.272 13.412 25.2592 13.3865C25.2337 13.3226 25.2145 13.2586 25.2017 13.1947C25.1889 13.118 25.1825 13.0413 25.1825 12.9646C25.1697 12.9007 25.157 12.8368 25.1442 12.7728C25.1442 12.7089 25.1378 12.645 25.125 12.5811C25.1122 12.4788 25.1122 12.3702 25.125 12.2551V11.9675ZM37.4604 6.92418C37.8311 7.16708 38.1443 7.45472 38.4 7.7871C38.6685 8.1067 38.8794 8.503 39.0328 8.97601C39.199 9.50015 39.2821 10.0307 39.2821 10.5676C39.2949 11.0918 39.199 11.5839 38.9944 12.0442C38.8027 12.4916 38.4895 12.8879 38.0548 13.2331C37.633 13.5655 37.0769 13.802 36.3865 13.9426C36.0158 14.0321 35.5811 14.1024 35.0826 14.1535C34.584 14.2047 34.1365 14.2302 33.7402 14.2302C33.2417 14.243 32.7239 14.243 32.187 14.2302C31.6628 14.2302 31.1515 14.1791 30.6529 14.0768C30.4356 14.0129 30.2758 13.9042 30.1735 13.7508C30.084 13.5846 30.0201 13.3993 29.9818 13.1947C29.9306 13.0797 29.9051 12.9646 29.9051 12.8496V1.95761C29.9051 1.59966 29.9754 1.32481 30.116 1.13305C30.2694 0.928505 30.4675 0.781489 30.7104 0.692002C30.9533 0.58973 31.2282 0.532202 31.535 0.519418C31.8418 0.49385 32.1614 0.481066 32.4938 0.481066C32.7495 0.481066 33.0052 0.481066 33.2608 0.481066C33.5293 0.468282 33.7978 0.468282 34.0662 0.481066C34.4881 0.49385 34.9228 0.532201 35.3702 0.596121C35.8304 0.647257 36.2651 0.749529 36.6742 0.902937C36.8659 0.966857 37.0705 1.05634 37.2878 1.1714C37.5051 1.27367 37.6777 1.40151 37.8055 1.55492C38.2146 1.92565 38.5151 2.36031 38.7068 2.85888C38.9114 3.34467 39.0008 3.84325 38.9753 4.35461C38.9497 4.85318 38.8091 5.33258 38.5534 5.7928C38.3105 6.25303 37.9462 6.63015 37.4604 6.92418ZM34.1046 12.0058C34.5009 11.9802 34.9036 11.9355 35.3127 11.8716C35.7218 11.8077 36.003 11.6862 36.1564 11.5072C36.3226 11.3027 36.4377 11.0662 36.5016 10.7977C36.5783 10.5165 36.5975 10.2352 36.5591 9.95398C36.5335 9.65995 36.4504 9.3851 36.3098 9.12942C36.182 8.86096 36.0094 8.65002 35.7921 8.49661C35.498 8.2665 35.1593 8.11948 34.7757 8.05556C34.3922 7.97886 34.0151 7.94051 33.6444 7.94051C33.4654 7.94051 33.2992 7.9469 33.1458 7.95968C33.0052 7.95968 32.8773 7.97886 32.7623 8.01721C32.66 8.04278 32.5833 8.10031 32.5322 8.1898C32.481 8.27928 32.4555 8.41352 32.4555 8.59249C32.481 8.92487 32.481 9.25726 32.4555 9.58964C32.4299 9.92202 32.4171 10.2416 32.4171 10.5484C32.4171 10.7274 32.4107 10.9256 32.3979 11.1429C32.3979 11.3474 32.4682 11.52 32.6089 11.6606C32.7495 11.8013 32.954 11.8971 33.2225 11.9483C33.491 11.9994 33.785 12.0186 34.1046 12.0058ZM34.4881 2.80136C34.0918 2.78857 33.7594 2.78218 33.491 2.78218C33.2353 2.7694 33.0307 2.78857 32.8773 2.83971C32.7367 2.87806 32.6344 2.97394 32.5705 3.12735C32.5194 3.26797 32.5002 3.4853 32.513 3.77933C32.513 4.02222 32.5066 4.26512 32.4938 4.50801C32.4938 4.73813 32.4938 4.96824 32.4938 5.19835C32.4938 5.45403 32.5769 5.64579 32.7431 5.77363C32.9093 5.88868 33.1138 5.95899 33.3567 5.98456C33.6124 6.01013 33.8745 6.01013 34.1429 5.98456C34.4242 5.95899 34.6671 5.92704 34.8716 5.88868C35.3318 5.81198 35.6834 5.65857 35.9263 5.42846C36.182 5.18556 36.329 4.83401 36.3673 4.37378C36.4185 3.7985 36.2651 3.4022 35.9071 3.18487C35.562 2.95476 35.0889 2.82692 34.4881 2.80136ZM51.0492 1.47821C51.1259 2.09185 51.1707 2.80775 51.1835 3.62592C51.1962 4.43131 51.1835 5.24948 51.1451 6.08044C51.1195 6.89862 51.062 7.67844 50.9725 8.41991C50.883 9.14859 50.7744 9.73666 50.6465 10.1841C50.557 10.4526 50.4484 10.7338 50.3205 11.0278C50.2055 11.3091 50.0776 11.5648 49.937 11.7949C49.7325 12.14 49.4832 12.4469 49.1892 12.7153C48.8951 12.971 48.5691 13.1947 48.2112 13.3865C47.866 13.5655 47.4953 13.7061 47.099 13.8083C46.7155 13.9106 46.3319 13.9681 45.9484 13.9809C45.2709 14.0065 44.6253 13.9106 44.0117 13.6933C43.4108 13.4632 42.8547 13.1052 42.3433 12.6194C41.9598 12.2487 41.653 11.8524 41.4229 11.4305C41.1928 11.0087 41.0138 10.5676 40.886 10.1074C40.7581 9.63438 40.675 9.14859 40.6367 8.65002C40.6111 8.15144 40.5983 7.64009 40.5983 7.11594C40.5983 6.87305 40.5919 6.57262 40.5792 6.21467C40.5792 5.84394 40.5792 5.46681 40.5792 5.08329C40.5792 4.68699 40.5792 4.30347 40.5792 3.93274C40.5792 3.562 40.5856 3.24879 40.5983 2.99312C40.5983 2.82692 40.5983 2.64795 40.5983 2.45619C40.5983 2.25164 40.6047 2.05349 40.6175 1.86173C40.6431 1.65719 40.6814 1.46543 40.7326 1.28646C40.7837 1.0947 40.8604 0.922113 40.9627 0.768705C41.0777 0.602514 41.2375 0.481066 41.4421 0.404362C41.6466 0.327658 41.8576 0.289307 42.0749 0.289307C42.305 0.289307 42.5223 0.334051 42.7269 0.423539C42.9314 0.513026 43.0976 0.640866 43.2254 0.807057C43.2894 0.909329 43.3341 1.0116 43.3597 1.11387C43.3852 1.21614 43.4044 1.3312 43.4172 1.45904C43.4428 1.88091 43.4556 2.36031 43.4556 2.89723C43.4683 3.43416 43.4683 3.9583 43.4556 4.46966C43.4556 4.96824 43.4492 5.42846 43.4364 5.85033C43.4236 6.2722 43.4172 6.58541 43.4172 6.78995C43.4172 7.55699 43.4556 8.25372 43.5323 8.88013C43.609 9.49376 43.7879 10.0051 44.0692 10.4142C44.3249 10.7849 44.6253 11.0214 44.9705 11.1237C45.3156 11.226 45.6608 11.2579 46.006 11.2196C46.3256 11.1812 46.6452 11.0662 46.9648 10.8744C47.2971 10.6699 47.5592 10.3759 47.751 9.99234C47.8277 9.85171 47.8916 9.69191 47.9427 9.51294C47.9939 9.33396 48.0322 9.16777 48.0578 9.01436C48.1089 8.52857 48.1537 7.96608 48.192 7.32688C48.2304 6.6749 48.2623 6.01013 48.2879 5.33258C48.3135 4.65503 48.3262 3.99026 48.3262 3.33828C48.3262 2.6863 48.3199 2.09824 48.3071 1.5741C48.3326 1.34398 48.4029 1.13305 48.518 0.941288C48.6203 0.775098 48.7673 0.628082 48.9591 0.500242C49.1508 0.372402 49.4129 0.308482 49.7453 0.308482C50.0137 0.321266 50.2311 0.391578 50.3972 0.519418C50.5634 0.634474 50.6977 0.762314 50.7999 0.902937C50.915 1.06913 50.9981 1.26089 51.0492 1.47821ZM63.3178 1.01799C63.4584 1.18418 63.5287 1.35677 63.5287 1.53574C63.5287 1.61245 63.5223 1.69554 63.5095 1.78503C63.5095 1.86173 63.5032 1.93205 63.4904 1.99597C63.452 2.13659 63.3689 2.27082 63.2411 2.39866C63.1388 2.47536 62.9982 2.53289 62.8192 2.57124C62.7297 2.59681 62.6402 2.61599 62.5508 2.62877C62.4613 2.64156 62.3654 2.66073 62.2631 2.6863C62.1736 2.69908 62.0841 2.70548 61.9946 2.70548C61.9052 2.70548 61.8093 2.70548 61.707 2.70548H60.729C60.4989 2.71826 60.2688 2.72465 60.0387 2.72465C59.8214 2.72465 59.604 2.72465 59.3867 2.72465C59.3995 3.12095 59.4059 3.54922 59.4059 4.00944C59.4059 4.45688 59.3995 4.98102 59.3867 5.58187C59.3867 6.18271 59.3803 6.87944 59.3675 7.67205C59.3675 8.46465 59.3675 9.3851 59.3675 10.4334V11.8908C59.3675 12.0186 59.3739 12.1145 59.3867 12.1784C59.3867 12.2295 59.3867 12.2807 59.3867 12.3318C59.3867 12.3702 59.3803 12.4213 59.3675 12.4852C59.342 12.6003 59.3228 12.7345 59.31 12.8879C59.31 12.9518 59.3036 13.0157 59.2908 13.0797C59.2781 13.1308 59.2589 13.1883 59.2333 13.2522C59.1822 13.3034 59.1566 13.3417 59.1566 13.3673L59.0991 13.4824C59.0352 13.6102 58.9137 13.7316 58.7347 13.8467C58.4535 13.9873 58.1403 14.0193 57.7951 13.9426C57.5778 13.917 57.4116 13.8595 57.2965 13.77C57.1815 13.6549 57.0984 13.5399 57.0473 13.4248C56.9705 13.2842 56.9258 13.15 56.913 13.0221C56.8747 12.9071 56.8555 12.7856 56.8555 12.6578V2.80136C56.7788 2.80136 56.619 2.80136 56.3761 2.80136C56.1332 2.80136 55.8711 2.80136 55.5899 2.80136C55.3214 2.78857 55.0657 2.77579 54.8228 2.763C54.58 2.75022 54.4138 2.73744 54.3243 2.72465C54.2476 2.71187 54.1261 2.69269 53.9599 2.66712C53.8065 2.64156 53.6787 2.61599 53.5764 2.59042C53.3079 2.51372 53.097 2.39227 52.9436 2.22608C52.803 2.05989 52.7327 1.87452 52.7327 1.66998C52.7327 1.59327 52.7327 1.51657 52.7327 1.43986C52.7327 1.36316 52.7455 1.29285 52.771 1.22893C52.8094 1.07552 52.9116 0.947681 53.0778 0.845409C53.129 0.807057 53.2057 0.762314 53.3079 0.711178C53.423 0.647258 53.5317 0.602514 53.6339 0.576946C53.7873 0.52581 53.9791 0.487458 54.2092 0.46189C54.3115 0.449106 54.4138 0.442715 54.516 0.442715C54.6183 0.442715 54.727 0.442715 54.842 0.442715C55.2895 0.442715 55.7113 0.442715 56.1076 0.442715C56.5167 0.442715 56.945 0.436323 57.3924 0.423539C58.1339 0.410754 58.869 0.410754 59.5977 0.423539C60.3391 0.423539 61.0742 0.436323 61.8029 0.46189C61.9691 0.474674 62.1289 0.49385 62.2823 0.519418C62.4357 0.544986 62.5891 0.58973 62.7425 0.653649C62.8576 0.692002 62.9662 0.743138 63.0685 0.807057C63.1708 0.858193 63.2539 0.928505 63.3178 1.01799ZM67.3065 0.883761C68.1631 0.564162 68.9365 0.423538 69.6268 0.46189C70.3299 0.500242 70.9564 0.679218 71.5061 0.998817C72.0558 1.30563 72.5224 1.72111 72.9059 2.24525C73.3022 2.7694 73.6218 3.35746 73.8647 4.00944C74.0565 4.49523 74.2035 5.00659 74.3058 5.54352C74.408 6.08044 74.4656 6.61737 74.4783 7.1543C74.5039 7.67844 74.4847 8.19619 74.4208 8.70755C74.3697 9.21891 74.2802 9.69191 74.1523 10.1266C74.0756 10.4206 73.9862 10.6891 73.8839 10.932C73.7816 11.1749 73.6602 11.4177 73.5195 11.6606C73.1999 12.2104 72.7845 12.6578 72.2731 13.003C71.7745 13.3481 71.2248 13.591 70.624 13.7316C70.2149 13.8339 69.793 13.8851 69.3584 13.8851C68.9237 13.8723 68.4954 13.8147 68.0736 13.7125C67.6517 13.5974 67.2426 13.4376 66.8463 13.2331C66.4628 13.0157 66.1112 12.7473 65.7916 12.4277C65.3953 12.0442 65.0693 11.6031 64.8137 11.1045C64.558 10.5932 64.3598 10.0626 64.2192 9.51294C64.0786 8.95044 63.9891 8.38795 63.9507 7.82545C63.9124 7.26296 63.9124 6.72603 63.9507 6.21467C63.9891 5.74167 64.0786 5.2367 64.2192 4.69977C64.3726 4.16285 64.5899 3.6451 64.8712 3.14652C65.1524 2.64795 65.4912 2.20051 65.8875 1.80421C66.2966 1.39512 66.7696 1.0883 67.3065 0.883761ZM71.7937 9.09107C71.9471 8.49022 72.011 7.81267 71.9855 7.05842C71.9599 6.30416 71.8385 5.59465 71.6211 4.92989C71.4805 4.5208 71.3015 4.16285 71.0842 3.85603C70.8797 3.53643 70.6304 3.29354 70.3363 3.12735C70.0551 2.96115 69.7227 2.87806 69.3392 2.87806C68.9557 2.87806 68.5274 2.99311 68.0544 3.22323C67.7732 3.36385 67.5302 3.55561 67.3257 3.79851C67.1339 4.0414 66.9742 4.31626 66.8463 4.62307C66.7313 4.92989 66.6354 5.24948 66.5587 5.58187C66.4948 5.91425 66.4564 6.23385 66.4436 6.54066C66.4181 6.87305 66.4117 7.22461 66.4244 7.59534C66.4372 7.95329 66.4756 8.31764 66.5395 8.68837C66.6162 9.04632 66.7185 9.39149 66.8463 9.72387C66.9742 10.0435 67.1467 10.3311 67.3641 10.5868C67.6964 10.9703 68.08 11.2388 68.5146 11.3922C68.9621 11.5328 69.4031 11.552 69.8378 11.4497C70.5409 11.2963 71.0778 10.8297 71.4485 10.0499C71.6019 9.76862 71.717 9.44902 71.7937 9.09107ZM85.942 13.1564C85.9547 13.2842 85.942 13.4057 85.9036 13.5207C85.878 13.5974 85.8397 13.6613 85.7885 13.7125C85.7502 13.7636 85.6991 13.8147 85.6351 13.8659C85.5201 13.9426 85.3795 14.0129 85.2133 14.0768C85.111 14.1024 85.0087 14.1216 84.9065 14.1343C84.817 14.1599 84.7211 14.1599 84.6188 14.1343C84.4143 14.1216 84.2353 14.0449 84.0819 13.9042C83.8646 13.7253 83.6856 13.5271 83.545 13.3098C83.481 13.2075 83.4107 13.0924 83.334 12.9646C83.2573 12.8368 83.187 12.7025 83.1231 12.5619L80.9946 8.51579C80.8923 8.51579 80.79 8.52218 80.6877 8.53496C80.5855 8.53496 80.4832 8.54135 80.3809 8.55414C80.1125 8.57971 79.8568 8.5861 79.6139 8.57332C79.3838 8.56053 79.1409 8.56053 78.8852 8.57332H78.5209V12.0442C78.5209 12.1464 78.5145 12.2423 78.5017 12.3318C78.5017 12.4213 78.5017 12.5172 78.5017 12.6194C78.5017 12.6834 78.4953 12.7665 78.4825 12.8687C78.4825 12.971 78.4761 13.0669 78.4633 13.1564C78.4378 13.297 78.3802 13.444 78.2907 13.5974C78.2013 13.738 78.0798 13.8595 77.9264 13.9618C77.6579 14.1279 77.332 14.1727 76.9484 14.096C76.7822 14.0576 76.6224 13.9937 76.469 13.9042C76.4179 13.8659 76.3732 13.8211 76.3348 13.77C76.2964 13.7061 76.2645 13.6422 76.2389 13.5782C76.2134 13.5143 76.1878 13.4504 76.1622 13.3865C76.1494 13.3098 76.1303 13.2395 76.1047 13.1755C76.0663 13.0477 76.0472 12.9263 76.0472 12.8112V1.91926C76.0472 1.84256 76.0472 1.76585 76.0472 1.68915C76.0599 1.59966 76.0727 1.52296 76.0855 1.45904C76.0983 1.31842 76.143 1.17779 76.2197 1.03717C76.2581 0.883761 76.322 0.775097 76.4115 0.711178C76.4882 0.634473 76.6033 0.570554 76.7567 0.519418C76.9229 0.455499 77.1594 0.429931 77.4662 0.442715C78.0415 0.455498 78.6103 0.46189 79.1728 0.46189C79.7353 0.46189 80.2978 0.474674 80.8603 0.500242C81.2311 0.52581 81.621 0.570554 82.0301 0.634474C82.4519 0.68561 82.8418 0.781489 83.1998 0.922113C83.4299 1.0116 83.6408 1.10109 83.8326 1.19058C84.0755 1.3312 84.2673 1.46543 84.4079 1.59327C84.8553 2.00236 85.1941 2.49454 85.4242 3.06982C85.6543 3.6451 85.7694 4.22677 85.7694 4.81483C85.7694 5.50516 85.6032 6.13797 85.2708 6.71325C84.9512 7.28853 84.4334 7.71679 83.7175 7.99804C83.692 8.0236 83.6536 8.04278 83.6025 8.05556C83.5641 8.05556 83.5322 8.06196 83.5066 8.07474L85.2708 11.6223L85.4434 11.9291C85.4689 11.9802 85.5009 12.0378 85.5393 12.1017C85.5776 12.1656 85.6096 12.2295 85.6351 12.2934C85.6735 12.3574 85.7055 12.4277 85.731 12.5044C85.7694 12.5811 85.8077 12.6514 85.8461 12.7153C85.8844 12.8943 85.9164 13.0413 85.942 13.1564ZM81.148 6.32973C81.3781 6.32973 81.5954 6.29138 81.7999 6.21467C82.0173 6.12519 82.209 6.01013 82.3752 5.86951C82.5542 5.72888 82.7012 5.56908 82.8163 5.39011C82.9313 5.19835 82.9952 4.99381 83.008 4.77648C83.0592 4.13728 82.893 3.66427 82.5095 3.35746C82.1259 3.03786 81.621 2.86528 80.9946 2.83971C80.6238 2.81414 80.2147 2.80136 79.7673 2.80136C79.3326 2.80136 78.9172 2.80136 78.5209 2.80136C78.5336 3.3255 78.5336 3.86242 78.5209 4.41214C78.5209 4.94906 78.5209 5.58826 78.5209 6.32973H81.148Z"/>
</mask>
<path d="M11.3517 1.01799C11.4923 1.18418 11.5627 1.35677 11.5627 1.53574C11.5627 1.61245 11.5563 1.69554 11.5435 1.78503C11.5435 1.86173 11.5371 1.93205 11.5243 1.99597C11.486 2.13659 11.4029 2.27082 11.275 2.39866C11.1727 2.47536 11.0321 2.53289 10.8531 2.57124C10.7637 2.59681 10.6742 2.61599 10.5847 2.62877C10.4952 2.64156 10.3993 2.66073 10.297 2.6863C10.2076 2.69908 10.1181 2.70548 10.0286 2.70548C9.9391 2.70548 9.84322 2.70548 9.74094 2.70548H8.76297C8.53286 2.71826 8.30275 2.72465 8.07264 2.72465C7.85531 2.72465 7.63798 2.72465 7.42065 2.72465C7.43344 3.12095 7.43983 3.54922 7.43983 4.00944C7.43983 4.45688 7.43344 4.98102 7.42065 5.58187C7.42065 6.18271 7.41426 6.87944 7.40148 7.67205C7.40148 8.46465 7.40148 9.3851 7.40148 10.4334V11.8908C7.40148 12.0186 7.40787 12.1145 7.42065 12.1784C7.42065 12.2295 7.42065 12.2807 7.42065 12.3318C7.42065 12.3702 7.41426 12.4213 7.40148 12.4852C7.37591 12.6003 7.35674 12.7345 7.34395 12.8879C7.34395 12.9518 7.33756 13.0157 7.32478 13.0797C7.31199 13.1308 7.29282 13.1883 7.26725 13.2522C7.21611 13.3034 7.19054 13.3417 7.19054 13.3673L7.13302 13.4824C7.0691 13.6102 6.94765 13.7316 6.76867 13.8467C6.48743 13.9873 6.17422 14.0193 5.82905 13.9426C5.61172 13.917 5.44553 13.8595 5.33048 13.77C5.21542 13.6549 5.13233 13.5399 5.08119 13.4248C5.00449 13.2842 4.95974 13.15 4.94696 13.0221C4.90861 12.9071 4.88943 12.7856 4.88943 12.6578V2.80136C4.81273 2.80136 4.65293 2.80136 4.41003 2.80136C4.16714 2.80136 3.90506 2.80136 3.62382 2.80136C3.35535 2.78857 3.09967 2.77579 2.85678 2.763C2.61388 2.75022 2.44769 2.73744 2.35821 2.72465C2.2815 2.71187 2.16005 2.69269 1.99386 2.66712C1.84045 2.64156 1.71261 2.61599 1.61034 2.59042C1.34188 2.51372 1.13094 2.39227 0.977537 2.22608C0.836913 2.05989 0.766602 1.87452 0.766602 1.66998C0.766602 1.59327 0.766602 1.51657 0.766602 1.43986C0.766602 1.36316 0.779386 1.29285 0.804953 1.22893C0.843305 1.07552 0.945577 0.947681 1.11177 0.845409C1.1629 0.807057 1.23961 0.762314 1.34188 0.711178C1.45694 0.647258 1.5656 0.602514 1.66787 0.576946C1.82128 0.52581 2.01304 0.487458 2.24315 0.46189C2.34542 0.449106 2.44769 0.442715 2.54996 0.442715C2.65224 0.442715 2.7609 0.442715 2.87596 0.442715C3.32339 0.442715 3.74527 0.442715 4.14157 0.442715C4.55065 0.442715 4.97892 0.436323 5.42636 0.423539C6.16783 0.410754 6.9029 0.410754 7.63159 0.423539C8.37306 0.423539 9.10814 0.436323 9.83682 0.46189C10.003 0.474674 10.1628 0.49385 10.3162 0.519418C10.4696 0.544986 10.623 0.58973 10.7764 0.653649C10.8915 0.692002 11.0002 0.743138 11.1024 0.807057C11.2047 0.858193 11.2878 0.928505 11.3517 1.01799ZM22.9834 13.1564C22.9962 13.2842 22.9834 13.4057 22.9451 13.5207C22.9195 13.5974 22.8812 13.6613 22.83 13.7125C22.7917 13.7636 22.7405 13.8147 22.6766 13.8659C22.5616 13.9426 22.4209 14.0129 22.2547 14.0768C22.1525 14.1024 22.0502 14.1216 21.9479 14.1343C21.8584 14.1599 21.7626 14.1599 21.6603 14.1343C21.4558 14.1216 21.2768 14.0449 21.1234 13.9042C20.906 13.7253 20.7271 13.5271 20.5864 13.3098C20.5225 13.2075 20.4522 13.0924 20.3755 12.9646C20.2988 12.8368 20.2285 12.7025 20.1646 12.5619L18.036 8.51579C17.9338 8.51579 17.8315 8.52218 17.7292 8.53496C17.627 8.53496 17.5247 8.54135 17.4224 8.55414C17.1539 8.57971 16.8983 8.5861 16.6554 8.57332C16.4253 8.56053 16.1824 8.56053 15.9267 8.57332H15.5623V12.0442C15.5623 12.1464 15.556 12.2423 15.5432 12.3318C15.5432 12.4213 15.5432 12.5172 15.5432 12.6194C15.5432 12.6834 15.5368 12.7665 15.524 12.8687C15.524 12.971 15.5176 13.0669 15.5048 13.1564C15.4792 13.297 15.4217 13.444 15.3322 13.5974C15.2427 13.738 15.1213 13.8595 14.9679 13.9618C14.6994 14.1279 14.3734 14.1727 13.9899 14.096C13.8237 14.0576 13.6639 13.9937 13.5105 13.9042C13.4594 13.8659 13.4146 13.8211 13.3763 13.77C13.3379 13.7061 13.306 13.6422 13.2804 13.5782C13.2548 13.5143 13.2293 13.4504 13.2037 13.3865C13.1909 13.3098 13.1717 13.2395 13.1462 13.1755C13.1078 13.0477 13.0886 12.9263 13.0886 12.8112V1.91926C13.0886 1.84256 13.0886 1.76585 13.0886 1.68915C13.1014 1.59966 13.1142 1.52296 13.127 1.45904C13.1398 1.31842 13.1845 1.17779 13.2612 1.03717C13.2996 0.883761 13.3635 0.775097 13.453 0.711178C13.5297 0.634473 13.6447 0.570554 13.7982 0.519418C13.9643 0.455499 14.2008 0.429931 14.5077 0.442715C15.0829 0.455498 15.6518 0.46189 16.2143 0.46189C16.7768 0.46189 17.3393 0.474674 17.9018 0.500242C18.2725 0.52581 18.6625 0.570554 19.0715 0.634474C19.4934 0.68561 19.8833 0.781489 20.2413 0.922113C20.4714 1.0116 20.6823 1.10109 20.8741 1.19058C21.117 1.3312 21.3087 1.46543 21.4494 1.59327C21.8968 2.00236 22.2356 2.49454 22.4657 3.06982C22.6958 3.6451 22.8109 4.22677 22.8109 4.81483C22.8109 5.50516 22.6447 6.13797 22.3123 6.71325C21.9927 7.28853 21.4749 7.71679 20.759 7.99804C20.7335 8.0236 20.6951 8.04278 20.644 8.05556C20.6056 8.05556 20.5737 8.06196 20.5481 8.07474L22.3123 11.6223L22.4849 11.9291C22.5104 11.9802 22.5424 12.0378 22.5807 12.1017C22.6191 12.1656 22.6511 12.2295 22.6766 12.2934C22.715 12.3574 22.7469 12.4277 22.7725 12.5044C22.8108 12.5811 22.8492 12.6514 22.8876 12.7153C22.9259 12.8943 22.9579 13.0413 22.9834 13.1564ZM18.1894 6.32973C18.4196 6.32973 18.6369 6.29138 18.8414 6.21467C19.0588 6.12519 19.2505 6.01013 19.4167 5.86951C19.5957 5.72888 19.7427 5.56908 19.8578 5.39011C19.9728 5.19835 20.0367 4.99381 20.0495 4.77648C20.1006 4.13728 19.9345 3.66427 19.5509 3.35746C19.1674 3.03786 18.6625 2.86528 18.036 2.83971C17.6653 2.81414 17.2562 2.80136 16.8088 2.80136C16.3741 2.80136 15.9586 2.80136 15.5623 2.80136C15.5751 3.3255 15.5751 3.86242 15.5623 4.41214C15.5623 4.94906 15.5623 5.58826 15.5623 6.32973H18.1894ZM25.125 11.9675L25.1442 10.4526L25.1633 7.63369C25.1761 7.22461 25.1825 6.80274 25.1825 6.36808C25.1825 5.93343 25.1825 5.48599 25.1825 5.02577C25.1825 4.56554 25.1825 4.15646 25.1825 3.79851C25.1825 3.44055 25.1953 3.03786 25.2209 2.59042V2.51372C25.2337 2.38588 25.2401 2.25804 25.2401 2.1302C25.2528 1.98957 25.2592 1.84895 25.2592 1.70833C25.272 1.47822 25.3423 1.22893 25.4702 0.960465C25.5597 0.78149 25.6939 0.628082 25.8729 0.500242C26.0774 0.39797 26.2756 0.346835 26.4673 0.346835C26.5696 0.346835 26.6591 0.353227 26.7358 0.366011C26.8253 0.366011 26.9084 0.372402 26.9851 0.385186C27.1513 0.410755 27.2983 0.487459 27.4261 0.615298C27.5028 0.679218 27.5731 0.781489 27.637 0.922113C27.6626 0.998816 27.6818 1.07552 27.6946 1.15222C27.7201 1.21614 27.7393 1.28646 27.7521 1.36316C27.7649 1.45265 27.7713 1.53574 27.7713 1.61245C27.7841 1.68915 27.7905 1.76585 27.7905 1.84256C27.7905 1.93205 27.7841 2.01514 27.7713 2.09185C27.7713 2.15576 27.7713 2.22608 27.7713 2.30278V2.62877L27.6562 12.5811V12.7728C27.6562 12.8112 27.6498 12.8623 27.637 12.9263C27.637 12.9774 27.6307 13.0413 27.6179 13.118C27.5923 13.1819 27.5667 13.2522 27.5412 13.3289C27.5284 13.3929 27.5092 13.4632 27.4836 13.5399C27.4453 13.6038 27.4005 13.6677 27.3494 13.7316C27.3111 13.7828 27.2599 13.8339 27.196 13.8851C27.0937 13.9873 26.9275 14.0576 26.6974 14.096C26.3523 14.1727 26.0263 14.1407 25.7195 14.0001C25.566 13.8978 25.4574 13.77 25.3935 13.6166C25.3551 13.5782 25.3359 13.5399 25.3359 13.5015C25.3231 13.476 25.3104 13.4568 25.2976 13.444C25.2848 13.4312 25.272 13.412 25.2592 13.3865C25.2337 13.3226 25.2145 13.2586 25.2017 13.1947C25.1889 13.118 25.1825 13.0413 25.1825 12.9646C25.1697 12.9007 25.157 12.8368 25.1442 12.7728C25.1442 12.7089 25.1378 12.645 25.125 12.5811C25.1122 12.4788 25.1122 12.3702 25.125 12.2551V11.9675ZM37.4604 6.92418C37.8311 7.16708 38.1443 7.45472 38.4 7.7871C38.6685 8.1067 38.8794 8.503 39.0328 8.97601C39.199 9.50015 39.2821 10.0307 39.2821 10.5676C39.2949 11.0918 39.199 11.5839 38.9944 12.0442C38.8027 12.4916 38.4895 12.8879 38.0548 13.2331C37.633 13.5655 37.0769 13.802 36.3865 13.9426C36.0158 14.0321 35.5811 14.1024 35.0826 14.1535C34.584 14.2047 34.1365 14.2302 33.7402 14.2302C33.2417 14.243 32.7239 14.243 32.187 14.2302C31.6628 14.2302 31.1515 14.1791 30.6529 14.0768C30.4356 14.0129 30.2758 13.9042 30.1735 13.7508C30.084 13.5846 30.0201 13.3993 29.9818 13.1947C29.9306 13.0797 29.9051 12.9646 29.9051 12.8496V1.95761C29.9051 1.59966 29.9754 1.32481 30.116 1.13305C30.2694 0.928505 30.4675 0.781489 30.7104 0.692002C30.9533 0.58973 31.2282 0.532202 31.535 0.519418C31.8418 0.49385 32.1614 0.481066 32.4938 0.481066C32.7495 0.481066 33.0052 0.481066 33.2608 0.481066C33.5293 0.468282 33.7978 0.468282 34.0662 0.481066C34.4881 0.49385 34.9228 0.532201 35.3702 0.596121C35.8304 0.647257 36.2651 0.749529 36.6742 0.902937C36.8659 0.966857 37.0705 1.05634 37.2878 1.1714C37.5051 1.27367 37.6777 1.40151 37.8055 1.55492C38.2146 1.92565 38.5151 2.36031 38.7068 2.85888C38.9114 3.34467 39.0008 3.84325 38.9753 4.35461C38.9497 4.85318 38.8091 5.33258 38.5534 5.7928C38.3105 6.25303 37.9462 6.63015 37.4604 6.92418ZM34.1046 12.0058C34.5009 11.9802 34.9036 11.9355 35.3127 11.8716C35.7218 11.8077 36.003 11.6862 36.1564 11.5072C36.3226 11.3027 36.4377 11.0662 36.5016 10.7977C36.5783 10.5165 36.5975 10.2352 36.5591 9.95398C36.5335 9.65995 36.4504 9.3851 36.3098 9.12942C36.182 8.86096 36.0094 8.65002 35.7921 8.49661C35.498 8.2665 35.1593 8.11948 34.7757 8.05556C34.3922 7.97886 34.0151 7.94051 33.6444 7.94051C33.4654 7.94051 33.2992 7.9469 33.1458 7.95968C33.0052 7.95968 32.8773 7.97886 32.7623 8.01721C32.66 8.04278 32.5833 8.10031 32.5322 8.1898C32.481 8.27928 32.4555 8.41352 32.4555 8.59249C32.481 8.92487 32.481 9.25726 32.4555 9.58964C32.4299 9.92202 32.4171 10.2416 32.4171 10.5484C32.4171 10.7274 32.4107 10.9256 32.3979 11.1429C32.3979 11.3474 32.4682 11.52 32.6089 11.6606C32.7495 11.8013 32.954 11.8971 33.2225 11.9483C33.491 11.9994 33.785 12.0186 34.1046 12.0058ZM34.4881 2.80136C34.0918 2.78857 33.7594 2.78218 33.491 2.78218C33.2353 2.7694 33.0307 2.78857 32.8773 2.83971C32.7367 2.87806 32.6344 2.97394 32.5705 3.12735C32.5194 3.26797 32.5002 3.4853 32.513 3.77933C32.513 4.02222 32.5066 4.26512 32.4938 4.50801C32.4938 4.73813 32.4938 4.96824 32.4938 5.19835C32.4938 5.45403 32.5769 5.64579 32.7431 5.77363C32.9093 5.88868 33.1138 5.95899 33.3567 5.98456C33.6124 6.01013 33.8745 6.01013 34.1429 5.98456C34.4242 5.95899 34.6671 5.92704 34.8716 5.88868C35.3318 5.81198 35.6834 5.65857 35.9263 5.42846C36.182 5.18556 36.329 4.83401 36.3673 4.37378C36.4185 3.7985 36.2651 3.4022 35.9071 3.18487C35.562 2.95476 35.0889 2.82692 34.4881 2.80136ZM51.0492 1.47821C51.1259 2.09185 51.1707 2.80775 51.1835 3.62592C51.1962 4.43131 51.1835 5.24948 51.1451 6.08044C51.1195 6.89862 51.062 7.67844 50.9725 8.41991C50.883 9.14859 50.7744 9.73666 50.6465 10.1841C50.557 10.4526 50.4484 10.7338 50.3205 11.0278C50.2055 11.3091 50.0776 11.5648 49.937 11.7949C49.7325 12.14 49.4832 12.4469 49.1892 12.7153C48.8951 12.971 48.5691 13.1947 48.2112 13.3865C47.866 13.5655 47.4953 13.7061 47.099 13.8083C46.7155 13.9106 46.3319 13.9681 45.9484 13.9809C45.2709 14.0065 44.6253 13.9106 44.0117 13.6933C43.4108 13.4632 42.8547 13.1052 42.3433 12.6194C41.9598 12.2487 41.653 11.8524 41.4229 11.4305C41.1928 11.0087 41.0138 10.5676 40.886 10.1074C40.7581 9.63438 40.675 9.14859 40.6367 8.65002C40.6111 8.15144 40.5983 7.64009 40.5983 7.11594C40.5983 6.87305 40.5919 6.57262 40.5792 6.21467C40.5792 5.84394 40.5792 5.46681 40.5792 5.08329C40.5792 4.68699 40.5792 4.30347 40.5792 3.93274C40.5792 3.562 40.5856 3.24879 40.5983 2.99312C40.5983 2.82692 40.5983 2.64795 40.5983 2.45619C40.5983 2.25164 40.6047 2.05349 40.6175 1.86173C40.6431 1.65719 40.6814 1.46543 40.7326 1.28646C40.7837 1.0947 40.8604 0.922113 40.9627 0.768705C41.0777 0.602514 41.2375 0.481066 41.4421 0.404362C41.6466 0.327658 41.8576 0.289307 42.0749 0.289307C42.305 0.289307 42.5223 0.334051 42.7269 0.423539C42.9314 0.513026 43.0976 0.640866 43.2254 0.807057C43.2894 0.909329 43.3341 1.0116 43.3597 1.11387C43.3852 1.21614 43.4044 1.3312 43.4172 1.45904C43.4428 1.88091 43.4556 2.36031 43.4556 2.89723C43.4683 3.43416 43.4683 3.9583 43.4556 4.46966C43.4556 4.96824 43.4492 5.42846 43.4364 5.85033C43.4236 6.2722 43.4172 6.58541 43.4172 6.78995C43.4172 7.55699 43.4556 8.25372 43.5323 8.88013C43.609 9.49376 43.7879 10.0051 44.0692 10.4142C44.3249 10.7849 44.6253 11.0214 44.9705 11.1237C45.3156 11.226 45.6608 11.2579 46.006 11.2196C46.3256 11.1812 46.6452 11.0662 46.9648 10.8744C47.2971 10.6699 47.5592 10.3759 47.751 9.99234C47.8277 9.85171 47.8916 9.69191 47.9427 9.51294C47.9939 9.33396 48.0322 9.16777 48.0578 9.01436C48.1089 8.52857 48.1537 7.96608 48.192 7.32688C48.2304 6.6749 48.2623 6.01013 48.2879 5.33258C48.3135 4.65503 48.3262 3.99026 48.3262 3.33828C48.3262 2.6863 48.3199 2.09824 48.3071 1.5741C48.3326 1.34398 48.4029 1.13305 48.518 0.941288C48.6203 0.775098 48.7673 0.628082 48.9591 0.500242C49.1508 0.372402 49.4129 0.308482 49.7453 0.308482C50.0137 0.321266 50.2311 0.391578 50.3972 0.519418C50.5634 0.634474 50.6977 0.762314 50.7999 0.902937C50.915 1.06913 50.9981 1.26089 51.0492 1.47821ZM63.3178 1.01799C63.4584 1.18418 63.5287 1.35677 63.5287 1.53574C63.5287 1.61245 63.5223 1.69554 63.5095 1.78503C63.5095 1.86173 63.5032 1.93205 63.4904 1.99597C63.452 2.13659 63.3689 2.27082 63.2411 2.39866C63.1388 2.47536 62.9982 2.53289 62.8192 2.57124C62.7297 2.59681 62.6402 2.61599 62.5508 2.62877C62.4613 2.64156 62.3654 2.66073 62.2631 2.6863C62.1736 2.69908 62.0841 2.70548 61.9946 2.70548C61.9052 2.70548 61.8093 2.70548 61.707 2.70548H60.729C60.4989 2.71826 60.2688 2.72465 60.0387 2.72465C59.8214 2.72465 59.604 2.72465 59.3867 2.72465C59.3995 3.12095 59.4059 3.54922 59.4059 4.00944C59.4059 4.45688 59.3995 4.98102 59.3867 5.58187C59.3867 6.18271 59.3803 6.87944 59.3675 7.67205C59.3675 8.46465 59.3675 9.3851 59.3675 10.4334V11.8908C59.3675 12.0186 59.3739 12.1145 59.3867 12.1784C59.3867 12.2295 59.3867 12.2807 59.3867 12.3318C59.3867 12.3702 59.3803 12.4213 59.3675 12.4852C59.342 12.6003 59.3228 12.7345 59.31 12.8879C59.31 12.9518 59.3036 13.0157 59.2908 13.0797C59.2781 13.1308 59.2589 13.1883 59.2333 13.2522C59.1822 13.3034 59.1566 13.3417 59.1566 13.3673L59.0991 13.4824C59.0352 13.6102 58.9137 13.7316 58.7347 13.8467C58.4535 13.9873 58.1403 14.0193 57.7951 13.9426C57.5778 13.917 57.4116 13.8595 57.2965 13.77C57.1815 13.6549 57.0984 13.5399 57.0473 13.4248C56.9705 13.2842 56.9258 13.15 56.913 13.0221C56.8747 12.9071 56.8555 12.7856 56.8555 12.6578V2.80136C56.7788 2.80136 56.619 2.80136 56.3761 2.80136C56.1332 2.80136 55.8711 2.80136 55.5899 2.80136C55.3214 2.78857 55.0657 2.77579 54.8228 2.763C54.58 2.75022 54.4138 2.73744 54.3243 2.72465C54.2476 2.71187 54.1261 2.69269 53.9599 2.66712C53.8065 2.64156 53.6787 2.61599 53.5764 2.59042C53.3079 2.51372 53.097 2.39227 52.9436 2.22608C52.803 2.05989 52.7327 1.87452 52.7327 1.66998C52.7327 1.59327 52.7327 1.51657 52.7327 1.43986C52.7327 1.36316 52.7455 1.29285 52.771 1.22893C52.8094 1.07552 52.9116 0.947681 53.0778 0.845409C53.129 0.807057 53.2057 0.762314 53.3079 0.711178C53.423 0.647258 53.5317 0.602514 53.6339 0.576946C53.7873 0.52581 53.9791 0.487458 54.2092 0.46189C54.3115 0.449106 54.4138 0.442715 54.516 0.442715C54.6183 0.442715 54.727 0.442715 54.842 0.442715C55.2895 0.442715 55.7113 0.442715 56.1076 0.442715C56.5167 0.442715 56.945 0.436323 57.3924 0.423539C58.1339 0.410754 58.869 0.410754 59.5977 0.423539C60.3391 0.423539 61.0742 0.436323 61.8029 0.46189C61.9691 0.474674 62.1289 0.49385 62.2823 0.519418C62.4357 0.544986 62.5891 0.58973 62.7425 0.653649C62.8576 0.692002 62.9662 0.743138 63.0685 0.807057C63.1708 0.858193 63.2539 0.928505 63.3178 1.01799ZM67.3065 0.883761C68.1631 0.564162 68.9365 0.423538 69.6268 0.46189C70.3299 0.500242 70.9564 0.679218 71.5061 0.998817C72.0558 1.30563 72.5224 1.72111 72.9059 2.24525C73.3022 2.7694 73.6218 3.35746 73.8647 4.00944C74.0565 4.49523 74.2035 5.00659 74.3058 5.54352C74.408 6.08044 74.4656 6.61737 74.4783 7.1543C74.5039 7.67844 74.4847 8.19619 74.4208 8.70755C74.3697 9.21891 74.2802 9.69191 74.1523 10.1266C74.0756 10.4206 73.9862 10.6891 73.8839 10.932C73.7816 11.1749 73.6602 11.4177 73.5195 11.6606C73.1999 12.2104 72.7845 12.6578 72.2731 13.003C71.7745 13.3481 71.2248 13.591 70.624 13.7316C70.2149 13.8339 69.793 13.8851 69.3584 13.8851C68.9237 13.8723 68.4954 13.8147 68.0736 13.7125C67.6517 13.5974 67.2426 13.4376 66.8463 13.2331C66.4628 13.0157 66.1112 12.7473 65.7916 12.4277C65.3953 12.0442 65.0693 11.6031 64.8137 11.1045C64.558 10.5932 64.3598 10.0626 64.2192 9.51294C64.0786 8.95044 63.9891 8.38795 63.9507 7.82545C63.9124 7.26296 63.9124 6.72603 63.9507 6.21467C63.9891 5.74167 64.0786 5.2367 64.2192 4.69977C64.3726 4.16285 64.5899 3.6451 64.8712 3.14652C65.1524 2.64795 65.4912 2.20051 65.8875 1.80421C66.2966 1.39512 66.7696 1.0883 67.3065 0.883761ZM71.7937 9.09107C71.9471 8.49022 72.011 7.81267 71.9855 7.05842C71.9599 6.30416 71.8385 5.59465 71.6211 4.92989C71.4805 4.5208 71.3015 4.16285 71.0842 3.85603C70.8797 3.53643 70.6304 3.29354 70.3363 3.12735C70.0551 2.96115 69.7227 2.87806 69.3392 2.87806C68.9557 2.87806 68.5274 2.99311 68.0544 3.22323C67.7732 3.36385 67.5302 3.55561 67.3257 3.79851C67.1339 4.0414 66.9742 4.31626 66.8463 4.62307C66.7313 4.92989 66.6354 5.24948 66.5587 5.58187C66.4948 5.91425 66.4564 6.23385 66.4436 6.54066C66.4181 6.87305 66.4117 7.22461 66.4244 7.59534C66.4372 7.95329 66.4756 8.31764 66.5395 8.68837C66.6162 9.04632 66.7185 9.39149 66.8463 9.72387C66.9742 10.0435 67.1467 10.3311 67.3641 10.5868C67.6964 10.9703 68.08 11.2388 68.5146 11.3922C68.9621 11.5328 69.4031 11.552 69.8378 11.4497C70.5409 11.2963 71.0778 10.8297 71.4485 10.0499C71.6019 9.76862 71.717 9.44902 71.7937 9.09107ZM85.942 13.1564C85.9547 13.2842 85.942 13.4057 85.9036 13.5207C85.878 13.5974 85.8397 13.6613 85.7885 13.7125C85.7502 13.7636 85.6991 13.8147 85.6351 13.8659C85.5201 13.9426 85.3795 14.0129 85.2133 14.0768C85.111 14.1024 85.0087 14.1216 84.9065 14.1343C84.817 14.1599 84.7211 14.1599 84.6188 14.1343C84.4143 14.1216 84.2353 14.0449 84.0819 13.9042C83.8646 13.7253 83.6856 13.5271 83.545 13.3098C83.481 13.2075 83.4107 13.0924 83.334 12.9646C83.2573 12.8368 83.187 12.7025 83.1231 12.5619L80.9946 8.51579C80.8923 8.51579 80.79 8.52218 80.6877 8.53496C80.5855 8.53496 80.4832 8.54135 80.3809 8.55414C80.1125 8.57971 79.8568 8.5861 79.6139 8.57332C79.3838 8.56053 79.1409 8.56053 78.8852 8.57332H78.5209V12.0442C78.5209 12.1464 78.5145 12.2423 78.5017 12.3318C78.5017 12.4213 78.5017 12.5172 78.5017 12.6194C78.5017 12.6834 78.4953 12.7665 78.4825 12.8687C78.4825 12.971 78.4761 13.0669 78.4633 13.1564C78.4378 13.297 78.3802 13.444 78.2907 13.5974C78.2013 13.738 78.0798 13.8595 77.9264 13.9618C77.6579 14.1279 77.332 14.1727 76.9484 14.096C76.7822 14.0576 76.6224 13.9937 76.469 13.9042C76.4179 13.8659 76.3732 13.8211 76.3348 13.77C76.2964 13.7061 76.2645 13.6422 76.2389 13.5782C76.2134 13.5143 76.1878 13.4504 76.1622 13.3865C76.1494 13.3098 76.1303 13.2395 76.1047 13.1755C76.0663 13.0477 76.0472 12.9263 76.0472 12.8112V1.91926C76.0472 1.84256 76.0472 1.76585 76.0472 1.68915C76.0599 1.59966 76.0727 1.52296 76.0855 1.45904C76.0983 1.31842 76.143 1.17779 76.2197 1.03717C76.2581 0.883761 76.322 0.775097 76.4115 0.711178C76.4882 0.634473 76.6033 0.570554 76.7567 0.519418C76.9229 0.455499 77.1594 0.429931 77.4662 0.442715C78.0415 0.455498 78.6103 0.46189 79.1728 0.46189C79.7353 0.46189 80.2978 0.474674 80.8603 0.500242C81.2311 0.52581 81.621 0.570554 82.0301 0.634474C82.4519 0.68561 82.8418 0.781489 83.1998 0.922113C83.4299 1.0116 83.6408 1.10109 83.8326 1.19058C84.0755 1.3312 84.2673 1.46543 84.4079 1.59327C84.8553 2.00236 85.1941 2.49454 85.4242 3.06982C85.6543 3.6451 85.7694 4.22677 85.7694 4.81483C85.7694 5.50516 85.6032 6.13797 85.2708 6.71325C84.9512 7.28853 84.4334 7.71679 83.7175 7.99804C83.692 8.0236 83.6536 8.04278 83.6025 8.05556C83.5641 8.05556 83.5322 8.06196 83.5066 8.07474L85.2708 11.6223L85.4434 11.9291C85.4689 11.9802 85.5009 12.0378 85.5393 12.1017C85.5776 12.1656 85.6096 12.2295 85.6351 12.2934C85.6735 12.3574 85.7055 12.4277 85.731 12.5044C85.7694 12.5811 85.8077 12.6514 85.8461 12.7153C85.8844 12.8943 85.9164 13.0413 85.942 13.1564ZM81.148 6.32973C81.3781 6.32973 81.5954 6.29138 81.7999 6.21467C82.0173 6.12519 82.209 6.01013 82.3752 5.86951C82.5542 5.72888 82.7012 5.56908 82.8163 5.39011C82.9313 5.19835 82.9952 4.99381 83.008 4.77648C83.0592 4.13728 82.893 3.66427 82.5095 3.35746C82.1259 3.03786 81.621 2.86528 80.9946 2.83971C80.6238 2.81414 80.2147 2.80136 79.7673 2.80136C79.3326 2.80136 78.9172 2.80136 78.5209 2.80136C78.5336 3.3255 78.5336 3.86242 78.5209 4.41214C78.5209 4.94906 78.5209 5.58826 78.5209 6.32973H81.148Z" stroke="black" stroke-width="12.784" mask="url(#path-1-inside-1_1663_162589)"/>
<path d="M11.3517 1.01799C11.4923 1.18418 11.5627 1.35677 11.5627 1.53574C11.5627 1.61245 11.5563 1.69554 11.5435 1.78503C11.5435 1.86173 11.5371 1.93205 11.5243 1.99597C11.486 2.13659 11.4029 2.27082 11.275 2.39866C11.1727 2.47536 11.0321 2.53289 10.8531 2.57124C10.7637 2.59681 10.6742 2.61599 10.5847 2.62877C10.4952 2.64156 10.3993 2.66073 10.297 2.6863C10.2076 2.69908 10.1181 2.70548 10.0286 2.70548C9.9391 2.70548 9.84322 2.70548 9.74094 2.70548H8.76297C8.53286 2.71826 8.30275 2.72465 8.07264 2.72465C7.85531 2.72465 7.63798 2.72465 7.42065 2.72465C7.43344 3.12095 7.43983 3.54922 7.43983 4.00944C7.43983 4.45688 7.43344 4.98102 7.42065 5.58187C7.42065 6.18271 7.41426 6.87944 7.40148 7.67205C7.40148 8.46465 7.40148 9.3851 7.40148 10.4334V11.8908C7.40148 12.0186 7.40787 12.1145 7.42065 12.1784C7.42065 12.2295 7.42065 12.2807 7.42065 12.3318C7.42065 12.3702 7.41426 12.4213 7.40148 12.4852C7.37591 12.6003 7.35674 12.7345 7.34395 12.8879C7.34395 12.9518 7.33756 13.0157 7.32478 13.0797C7.31199 13.1308 7.29282 13.1883 7.26725 13.2522C7.21611 13.3034 7.19054 13.3417 7.19054 13.3673L7.13302 13.4824C7.0691 13.6102 6.94765 13.7316 6.76867 13.8467C6.48743 13.9873 6.17422 14.0193 5.82905 13.9426C5.61172 13.917 5.44553 13.8595 5.33048 13.77C5.21542 13.6549 5.13233 13.5399 5.08119 13.4248C5.00449 13.2842 4.95974 13.15 4.94696 13.0221C4.90861 12.9071 4.88943 12.7856 4.88943 12.6578V2.80136C4.81273 2.80136 4.65293 2.80136 4.41003 2.80136C4.16714 2.80136 3.90506 2.80136 3.62382 2.80136C3.35535 2.78857 3.09967 2.77579 2.85678 2.763C2.61388 2.75022 2.44769 2.73744 2.35821 2.72465C2.2815 2.71187 2.16005 2.69269 1.99386 2.66712C1.84045 2.64156 1.71261 2.61599 1.61034 2.59042C1.34188 2.51372 1.13094 2.39227 0.977537 2.22608C0.836913 2.05989 0.766602 1.87452 0.766602 1.66998C0.766602 1.59327 0.766602 1.51657 0.766602 1.43986C0.766602 1.36316 0.779386 1.29285 0.804953 1.22893C0.843305 1.07552 0.945577 0.947681 1.11177 0.845409C1.1629 0.807057 1.23961 0.762314 1.34188 0.711178C1.45694 0.647258 1.5656 0.602514 1.66787 0.576946C1.82128 0.52581 2.01304 0.487458 2.24315 0.46189C2.34542 0.449106 2.44769 0.442715 2.54996 0.442715C2.65224 0.442715 2.7609 0.442715 2.87596 0.442715C3.32339 0.442715 3.74527 0.442715 4.14157 0.442715C4.55065 0.442715 4.97892 0.436323 5.42636 0.423539C6.16783 0.410754 6.9029 0.410754 7.63159 0.423539C8.37306 0.423539 9.10814 0.436323 9.83682 0.46189C10.003 0.474674 10.1628 0.49385 10.3162 0.519418C10.4696 0.544986 10.623 0.58973 10.7764 0.653649C10.8915 0.692002 11.0002 0.743138 11.1024 0.807057C11.2047 0.858193 11.2878 0.928505 11.3517 1.01799ZM22.9834 13.1564C22.9962 13.2842 22.9834 13.4057 22.9451 13.5207C22.9195 13.5974 22.8812 13.6613 22.83 13.7125C22.7917 13.7636 22.7405 13.8147 22.6766 13.8659C22.5616 13.9426 22.4209 14.0129 22.2547 14.0768C22.1525 14.1024 22.0502 14.1216 21.9479 14.1343C21.8584 14.1599 21.7626 14.1599 21.6603 14.1343C21.4558 14.1216 21.2768 14.0449 21.1234 13.9042C20.906 13.7253 20.7271 13.5271 20.5864 13.3098C20.5225 13.2075 20.4522 13.0924 20.3755 12.9646C20.2988 12.8368 20.2285 12.7025 20.1646 12.5619L18.036 8.51579C17.9338 8.51579 17.8315 8.52218 17.7292 8.53496C17.627 8.53496 17.5247 8.54135 17.4224 8.55414C17.1539 8.57971 16.8983 8.5861 16.6554 8.57332C16.4253 8.56053 16.1824 8.56053 15.9267 8.57332H15.5623V12.0442C15.5623 12.1464 15.556 12.2423 15.5432 12.3318C15.5432 12.4213 15.5432 12.5172 15.5432 12.6194C15.5432 12.6834 15.5368 12.7665 15.524 12.8687C15.524 12.971 15.5176 13.0669 15.5048 13.1564C15.4792 13.297 15.4217 13.444 15.3322 13.5974C15.2427 13.738 15.1213 13.8595 14.9679 13.9618C14.6994 14.1279 14.3734 14.1727 13.9899 14.096C13.8237 14.0576 13.6639 13.9937 13.5105 13.9042C13.4594 13.8659 13.4146 13.8211 13.3763 13.77C13.3379 13.7061 13.306 13.6422 13.2804 13.5782C13.2548 13.5143 13.2293 13.4504 13.2037 13.3865C13.1909 13.3098 13.1717 13.2395 13.1462 13.1755C13.1078 13.0477 13.0886 12.9263 13.0886 12.8112V1.91926C13.0886 1.84256 13.0886 1.76585 13.0886 1.68915C13.1014 1.59966 13.1142 1.52296 13.127 1.45904C13.1398 1.31842 13.1845 1.17779 13.2612 1.03717C13.2996 0.883761 13.3635 0.775097 13.453 0.711178C13.5297 0.634473 13.6447 0.570554 13.7982 0.519418C13.9643 0.455499 14.2008 0.429931 14.5077 0.442715C15.0829 0.455498 15.6518 0.46189 16.2143 0.46189C16.7768 0.46189 17.3393 0.474674 17.9018 0.500242C18.2725 0.52581 18.6625 0.570554 19.0715 0.634474C19.4934 0.68561 19.8833 0.781489 20.2413 0.922113C20.4714 1.0116 20.6823 1.10109 20.8741 1.19058C21.117 1.3312 21.3087 1.46543 21.4494 1.59327C21.8968 2.00236 22.2356 2.49454 22.4657 3.06982C22.6958 3.6451 22.8109 4.22677 22.8109 4.81483C22.8109 5.50516 22.6447 6.13797 22.3123 6.71325C21.9927 7.28853 21.4749 7.71679 20.759 7.99804C20.7335 8.0236 20.6951 8.04278 20.644 8.05556C20.6056 8.05556 20.5737 8.06196 20.5481 8.07474L22.3123 11.6223L22.4849 11.9291C22.5104 11.9802 22.5424 12.0378 22.5807 12.1017C22.6191 12.1656 22.6511 12.2295 22.6766 12.2934C22.715 12.3574 22.7469 12.4277 22.7725 12.5044C22.8108 12.5811 22.8492 12.6514 22.8876 12.7153C22.9259 12.8943 22.9579 13.0413 22.9834 13.1564ZM18.1894 6.32973C18.4196 6.32973 18.6369 6.29138 18.8414 6.21467C19.0588 6.12519 19.2505 6.01013 19.4167 5.86951C19.5957 5.72888 19.7427 5.56908 19.8578 5.39011C19.9728 5.19835 20.0367 4.99381 20.0495 4.77648C20.1006 4.13728 19.9345 3.66427 19.5509 3.35746C19.1674 3.03786 18.6625 2.86528 18.036 2.83971C17.6653 2.81414 17.2562 2.80136 16.8088 2.80136C16.3741 2.80136 15.9586 2.80136 15.5623 2.80136C15.5751 3.3255 15.5751 3.86242 15.5623 4.41214C15.5623 4.94906 15.5623 5.58826 15.5623 6.32973H18.1894ZM25.125 11.9675L25.1442 10.4526L25.1633 7.63369C25.1761 7.22461 25.1825 6.80274 25.1825 6.36808C25.1825 5.93343 25.1825 5.48599 25.1825 5.02577C25.1825 4.56554 25.1825 4.15646 25.1825 3.79851C25.1825 3.44055 25.1953 3.03786 25.2209 2.59042V2.51372C25.2337 2.38588 25.2401 2.25804 25.2401 2.1302C25.2528 1.98957 25.2592 1.84895 25.2592 1.70833C25.272 1.47822 25.3423 1.22893 25.4702 0.960465C25.5597 0.78149 25.6939 0.628082 25.8729 0.500242C26.0774 0.39797 26.2756 0.346835 26.4673 0.346835C26.5696 0.346835 26.6591 0.353227 26.7358 0.366011C26.8253 0.366011 26.9084 0.372402 26.9851 0.385186C27.1513 0.410755 27.2983 0.487459 27.4261 0.615298C27.5028 0.679218 27.5731 0.781489 27.637 0.922113C27.6626 0.998816 27.6818 1.07552 27.6946 1.15222C27.7201 1.21614 27.7393 1.28646 27.7521 1.36316C27.7649 1.45265 27.7713 1.53574 27.7713 1.61245C27.7841 1.68915 27.7905 1.76585 27.7905 1.84256C27.7905 1.93205 27.7841 2.01514 27.7713 2.09185C27.7713 2.15576 27.7713 2.22608 27.7713 2.30278V2.62877L27.6562 12.5811V12.7728C27.6562 12.8112 27.6498 12.8623 27.637 12.9263C27.637 12.9774 27.6307 13.0413 27.6179 13.118C27.5923 13.1819 27.5667 13.2522 27.5412 13.3289C27.5284 13.3929 27.5092 13.4632 27.4836 13.5399C27.4453 13.6038 27.4005 13.6677 27.3494 13.7316C27.3111 13.7828 27.2599 13.8339 27.196 13.8851C27.0937 13.9873 26.9275 14.0576 26.6974 14.096C26.3523 14.1727 26.0263 14.1407 25.7195 14.0001C25.566 13.8978 25.4574 13.77 25.3935 13.6166C25.3551 13.5782 25.3359 13.5399 25.3359 13.5015C25.3231 13.476 25.3104 13.4568 25.2976 13.444C25.2848 13.4312 25.272 13.412 25.2592 13.3865C25.2337 13.3226 25.2145 13.2586 25.2017 13.1947C25.1889 13.118 25.1825 13.0413 25.1825 12.9646C25.1697 12.9007 25.157 12.8368 25.1442 12.7728C25.1442 12.7089 25.1378 12.645 25.125 12.5811C25.1122 12.4788 25.1122 12.3702 25.125 12.2551V11.9675ZM37.4604 6.92418C37.8311 7.16708 38.1443 7.45472 38.4 7.7871C38.6685 8.1067 38.8794 8.503 39.0328 8.97601C39.199 9.50015 39.2821 10.0307 39.2821 10.5676C39.2949 11.0918 39.199 11.5839 38.9944 12.0442C38.8027 12.4916 38.4895 12.8879 38.0548 13.2331C37.633 13.5655 37.0769 13.802 36.3865 13.9426C36.0158 14.0321 35.5811 14.1024 35.0826 14.1535C34.584 14.2047 34.1365 14.2302 33.7402 14.2302C33.2417 14.243 32.7239 14.243 32.187 14.2302C31.6628 14.2302 31.1515 14.1791 30.6529 14.0768C30.4356 14.0129 30.2758 13.9042 30.1735 13.7508C30.084 13.5846 30.0201 13.3993 29.9818 13.1947C29.9306 13.0797 29.9051 12.9646 29.9051 12.8496V1.95761C29.9051 1.59966 29.9754 1.32481 30.116 1.13305C30.2694 0.928505 30.4675 0.781489 30.7104 0.692002C30.9533 0.58973 31.2282 0.532202 31.535 0.519418C31.8418 0.49385 32.1614 0.481066 32.4938 0.481066C32.7495 0.481066 33.0052 0.481066 33.2608 0.481066C33.5293 0.468282 33.7978 0.468282 34.0662 0.481066C34.4881 0.49385 34.9228 0.532201 35.3702 0.596121C35.8304 0.647257 36.2651 0.749529 36.6742 0.902937C36.8659 0.966857 37.0705 1.05634 37.2878 1.1714C37.5051 1.27367 37.6777 1.40151 37.8055 1.55492C38.2146 1.92565 38.5151 2.36031 38.7068 2.85888C38.9114 3.34467 39.0008 3.84325 38.9753 4.35461C38.9497 4.85318 38.8091 5.33258 38.5534 5.7928C38.3105 6.25303 37.9462 6.63015 37.4604 6.92418ZM34.1046 12.0058C34.5009 11.9802 34.9036 11.9355 35.3127 11.8716C35.7218 11.8077 36.003 11.6862 36.1564 11.5072C36.3226 11.3027 36.4377 11.0662 36.5016 10.7977C36.5783 10.5165 36.5975 10.2352 36.5591 9.95398C36.5335 9.65995 36.4504 9.3851 36.3098 9.12942C36.182 8.86096 36.0094 8.65002 35.7921 8.49661C35.498 8.2665 35.1593 8.11948 34.7757 8.05556C34.3922 7.97886 34.0151 7.94051 33.6444 7.94051C33.4654 7.94051 33.2992 7.9469 33.1458 7.95968C33.0052 7.95968 32.8773 7.97886 32.7623 8.01721C32.66 8.04278 32.5833 8.10031 32.5322 8.1898C32.481 8.27928 32.4555 8.41352 32.4555 8.59249C32.481 8.92487 32.481 9.25726 32.4555 9.58964C32.4299 9.92202 32.4171 10.2416 32.4171 10.5484C32.4171 10.7274 32.4107 10.9256 32.3979 11.1429C32.3979 11.3474 32.4682 11.52 32.6089 11.6606C32.7495 11.8013 32.954 11.8971 33.2225 11.9483C33.491 11.9994 33.785 12.0186 34.1046 12.0058ZM34.4881 2.80136C34.0918 2.78857 33.7594 2.78218 33.491 2.78218C33.2353 2.7694 33.0307 2.78857 32.8773 2.83971C32.7367 2.87806 32.6344 2.97394 32.5705 3.12735C32.5194 3.26797 32.5002 3.4853 32.513 3.77933C32.513 4.02222 32.5066 4.26512 32.4938 4.50801C32.4938 4.73813 32.4938 4.96824 32.4938 5.19835C32.4938 5.45403 32.5769 5.64579 32.7431 5.77363C32.9093 5.88868 33.1138 5.95899 33.3567 5.98456C33.6124 6.01013 33.8745 6.01013 34.1429 5.98456C34.4242 5.95899 34.6671 5.92704 34.8716 5.88868C35.3318 5.81198 35.6834 5.65857 35.9263 5.42846C36.182 5.18556 36.329 4.83401 36.3673 4.37378C36.4185 3.7985 36.2651 3.4022 35.9071 3.18487C35.562 2.95476 35.0889 2.82692 34.4881 2.80136ZM51.0492 1.47821C51.1259 2.09185 51.1707 2.80775 51.1835 3.62592C51.1962 4.43131 51.1835 5.24948 51.1451 6.08044C51.1195 6.89862 51.062 7.67844 50.9725 8.41991C50.883 9.14859 50.7744 9.73666 50.6465 10.1841C50.557 10.4526 50.4484 10.7338 50.3205 11.0278C50.2055 11.3091 50.0776 11.5648 49.937 11.7949C49.7325 12.14 49.4832 12.4469 49.1892 12.7153C48.8951 12.971 48.5691 13.1947 48.2112 13.3865C47.866 13.5655 47.4953 13.7061 47.099 13.8083C46.7155 13.9106 46.3319 13.9681 45.9484 13.9809C45.2709 14.0065 44.6253 13.9106 44.0117 13.6933C43.4108 13.4632 42.8547 13.1052 42.3433 12.6194C41.9598 12.2487 41.653 11.8524 41.4229 11.4305C41.1928 11.0087 41.0138 10.5676 40.886 10.1074C40.7581 9.63438 40.675 9.14859 40.6367 8.65002C40.6111 8.15144 40.5983 7.64009 40.5983 7.11594C40.5983 6.87305 40.5919 6.57262 40.5792 6.21467C40.5792 5.84394 40.5792 5.46681 40.5792 5.08329C40.5792 4.68699 40.5792 4.30347 40.5792 3.93274C40.5792 3.562 40.5856 3.24879 40.5983 2.99312C40.5983 2.82692 40.5983 2.64795 40.5983 2.45619C40.5983 2.25164 40.6047 2.05349 40.6175 1.86173C40.6431 1.65719 40.6814 1.46543 40.7326 1.28646C40.7837 1.0947 40.8604 0.922113 40.9627 0.768705C41.0777 0.602514 41.2375 0.481066 41.4421 0.404362C41.6466 0.327658 41.8576 0.289307 42.0749 0.289307C42.305 0.289307 42.5223 0.334051 42.7269 0.423539C42.9314 0.513026 43.0976 0.640866 43.2254 0.807057C43.2894 0.909329 43.3341 1.0116 43.3597 1.11387C43.3852 1.21614 43.4044 1.3312 43.4172 1.45904C43.4428 1.88091 43.4556 2.36031 43.4556 2.89723C43.4683 3.43416 43.4683 3.9583 43.4556 4.46966C43.4556 4.96824 43.4492 5.42846 43.4364 5.85033C43.4236 6.2722 43.4172 6.58541 43.4172 6.78995C43.4172 7.55699 43.4556 8.25372 43.5323 8.88013C43.609 9.49376 43.7879 10.0051 44.0692 10.4142C44.3249 10.7849 44.6253 11.0214 44.9705 11.1237C45.3156 11.226 45.6608 11.2579 46.006 11.2196C46.3256 11.1812 46.6452 11.0662 46.9648 10.8744C47.2971 10.6699 47.5592 10.3759 47.751 9.99234C47.8277 9.85171 47.8916 9.69191 47.9427 9.51294C47.9939 9.33396 48.0322 9.16777 48.0578 9.01436C48.1089 8.52857 48.1537 7.96608 48.192 7.32688C48.2304 6.6749 48.2623 6.01013 48.2879 5.33258C48.3135 4.65503 48.3262 3.99026 48.3262 3.33828C48.3262 2.6863 48.3199 2.09824 48.3071 1.5741C48.3326 1.34398 48.4029 1.13305 48.518 0.941288C48.6203 0.775098 48.7673 0.628082 48.9591 0.500242C49.1508 0.372402 49.4129 0.308482 49.7453 0.308482C50.0137 0.321266 50.2311 0.391578 50.3972 0.519418C50.5634 0.634474 50.6977 0.762314 50.7999 0.902937C50.915 1.06913 50.9981 1.26089 51.0492 1.47821ZM63.3178 1.01799C63.4584 1.18418 63.5287 1.35677 63.5287 1.53574C63.5287 1.61245 63.5223 1.69554 63.5095 1.78503C63.5095 1.86173 63.5032 1.93205 63.4904 1.99597C63.452 2.13659 63.3689 2.27082 63.2411 2.39866C63.1388 2.47536 62.9982 2.53289 62.8192 2.57124C62.7297 2.59681 62.6402 2.61599 62.5508 2.62877C62.4613 2.64156 62.3654 2.66073 62.2631 2.6863C62.1736 2.69908 62.0841 2.70548 61.9946 2.70548C61.9052 2.70548 61.8093 2.70548 61.707 2.70548H60.729C60.4989 2.71826 60.2688 2.72465 60.0387 2.72465C59.8214 2.72465 59.604 2.72465 59.3867 2.72465C59.3995 3.12095 59.4059 3.54922 59.4059 4.00944C59.4059 4.45688 59.3995 4.98102 59.3867 5.58187C59.3867 6.18271 59.3803 6.87944 59.3675 7.67205C59.3675 8.46465 59.3675 9.3851 59.3675 10.4334V11.8908C59.3675 12.0186 59.3739 12.1145 59.3867 12.1784C59.3867 12.2295 59.3867 12.2807 59.3867 12.3318C59.3867 12.3702 59.3803 12.4213 59.3675 12.4852C59.342 12.6003 59.3228 12.7345 59.31 12.8879C59.31 12.9518 59.3036 13.0157 59.2908 13.0797C59.2781 13.1308 59.2589 13.1883 59.2333 13.2522C59.1822 13.3034 59.1566 13.3417 59.1566 13.3673L59.0991 13.4824C59.0352 13.6102 58.9137 13.7316 58.7347 13.8467C58.4535 13.9873 58.1403 14.0193 57.7951 13.9426C57.5778 13.917 57.4116 13.8595 57.2965 13.77C57.1815 13.6549 57.0984 13.5399 57.0473 13.4248C56.9705 13.2842 56.9258 13.15 56.913 13.0221C56.8747 12.9071 56.8555 12.7856 56.8555 12.6578V2.80136C56.7788 2.80136 56.619 2.80136 56.3761 2.80136C56.1332 2.80136 55.8711 2.80136 55.5899 2.80136C55.3214 2.78857 55.0657 2.77579 54.8228 2.763C54.58 2.75022 54.4138 2.73744 54.3243 2.72465C54.2476 2.71187 54.1261 2.69269 53.9599 2.66712C53.8065 2.64156 53.6787 2.61599 53.5764 2.59042C53.3079 2.51372 53.097 2.39227 52.9436 2.22608C52.803 2.05989 52.7327 1.87452 52.7327 1.66998C52.7327 1.59327 52.7327 1.51657 52.7327 1.43986C52.7327 1.36316 52.7455 1.29285 52.771 1.22893C52.8094 1.07552 52.9116 0.947681 53.0778 0.845409C53.129 0.807057 53.2057 0.762314 53.3079 0.711178C53.423 0.647258 53.5317 0.602514 53.6339 0.576946C53.7873 0.52581 53.9791 0.487458 54.2092 0.46189C54.3115 0.449106 54.4138 0.442715 54.516 0.442715C54.6183 0.442715 54.727 0.442715 54.842 0.442715C55.2895 0.442715 55.7113 0.442715 56.1076 0.442715C56.5167 0.442715 56.945 0.436323 57.3924 0.423539C58.1339 0.410754 58.869 0.410754 59.5977 0.423539C60.3391 0.423539 61.0742 0.436323 61.8029 0.46189C61.9691 0.474674 62.1289 0.49385 62.2823 0.519418C62.4357 0.544986 62.5891 0.58973 62.7425 0.653649C62.8576 0.692002 62.9662 0.743138 63.0685 0.807057C63.1708 0.858193 63.2539 0.928505 63.3178 1.01799ZM67.3065 0.883761C68.1631 0.564162 68.9365 0.423538 69.6268 0.46189C70.3299 0.500242 70.9564 0.679218 71.5061 0.998817C72.0558 1.30563 72.5224 1.72111 72.9059 2.24525C73.3022 2.7694 73.6218 3.35746 73.8647 4.00944C74.0565 4.49523 74.2035 5.00659 74.3058 5.54352C74.408 6.08044 74.4656 6.61737 74.4783 7.1543C74.5039 7.67844 74.4847 8.19619 74.4208 8.70755C74.3697 9.21891 74.2802 9.69191 74.1523 10.1266C74.0756 10.4206 73.9862 10.6891 73.8839 10.932C73.7816 11.1749 73.6602 11.4177 73.5195 11.6606C73.1999 12.2104 72.7845 12.6578 72.2731 13.003C71.7745 13.3481 71.2248 13.591 70.624 13.7316C70.2149 13.8339 69.793 13.8851 69.3584 13.8851C68.9237 13.8723 68.4954 13.8147 68.0736 13.7125C67.6517 13.5974 67.2426 13.4376 66.8463 13.2331C66.4628 13.0157 66.1112 12.7473 65.7916 12.4277C65.3953 12.0442 65.0693 11.6031 64.8137 11.1045C64.558 10.5932 64.3598 10.0626 64.2192 9.51294C64.0786 8.95044 63.9891 8.38795 63.9507 7.82545C63.9124 7.26296 63.9124 6.72603 63.9507 6.21467C63.9891 5.74167 64.0786 5.2367 64.2192 4.69977C64.3726 4.16285 64.5899 3.6451 64.8712 3.14652C65.1524 2.64795 65.4912 2.20051 65.8875 1.80421C66.2966 1.39512 66.7696 1.0883 67.3065 0.883761ZM71.7937 9.09107C71.9471 8.49022 72.011 7.81267 71.9855 7.05842C71.9599 6.30416 71.8385 5.59465 71.6211 4.92989C71.4805 4.5208 71.3015 4.16285 71.0842 3.85603C70.8797 3.53643 70.6304 3.29354 70.3363 3.12735C70.0551 2.96115 69.7227 2.87806 69.3392 2.87806C68.9557 2.87806 68.5274 2.99311 68.0544 3.22323C67.7732 3.36385 67.5302 3.55561 67.3257 3.79851C67.1339 4.0414 66.9742 4.31626 66.8463 4.62307C66.7313 4.92989 66.6354 5.24948 66.5587 5.58187C66.4948 5.91425 66.4564 6.23385 66.4436 6.54066C66.4181 6.87305 66.4117 7.22461 66.4244 7.59534C66.4372 7.95329 66.4756 8.31764 66.5395 8.68837C66.6162 9.04632 66.7185 9.39149 66.8463 9.72387C66.9742 10.0435 67.1467 10.3311 67.3641 10.5868C67.6964 10.9703 68.08 11.2388 68.5146 11.3922C68.9621 11.5328 69.4031 11.552 69.8378 11.4497C70.5409 11.2963 71.0778 10.8297 71.4485 10.0499C71.6019 9.76862 71.717 9.44902 71.7937 9.09107ZM85.942 13.1564C85.9547 13.2842 85.942 13.4057 85.9036 13.5207C85.878 13.5974 85.8397 13.6613 85.7885 13.7125C85.7502 13.7636 85.6991 13.8147 85.6351 13.8659C85.5201 13.9426 85.3795 14.0129 85.2133 14.0768C85.111 14.1024 85.0087 14.1216 84.9065 14.1343C84.817 14.1599 84.7211 14.1599 84.6188 14.1343C84.4143 14.1216 84.2353 14.0449 84.0819 13.9042C83.8646 13.7253 83.6856 13.5271 83.545 13.3098C83.481 13.2075 83.4107 13.0924 83.334 12.9646C83.2573 12.8368 83.187 12.7025 83.1231 12.5619L80.9946 8.51579C80.8923 8.51579 80.79 8.52218 80.6877 8.53496C80.5855 8.53496 80.4832 8.54135 80.3809 8.55414C80.1125 8.57971 79.8568 8.5861 79.6139 8.57332C79.3838 8.56053 79.1409 8.56053 78.8852 8.57332H78.5209V12.0442C78.5209 12.1464 78.5145 12.2423 78.5017 12.3318C78.5017 12.4213 78.5017 12.5172 78.5017 12.6194C78.5017 12.6834 78.4953 12.7665 78.4825 12.8687C78.4825 12.971 78.4761 13.0669 78.4633 13.1564C78.4378 13.297 78.3802 13.444 78.2907 13.5974C78.2013 13.738 78.0798 13.8595 77.9264 13.9618C77.6579 14.1279 77.332 14.1727 76.9484 14.096C76.7822 14.0576 76.6224 13.9937 76.469 13.9042C76.4179 13.8659 76.3732 13.8211 76.3348 13.77C76.2964 13.7061 76.2645 13.6422 76.2389 13.5782C76.2134 13.5143 76.1878 13.4504 76.1622 13.3865C76.1494 13.3098 76.1303 13.2395 76.1047 13.1755C76.0663 13.0477 76.0472 12.9263 76.0472 12.8112V1.91926C76.0472 1.84256 76.0472 1.76585 76.0472 1.68915C76.0599 1.59966 76.0727 1.52296 76.0855 1.45904C76.0983 1.31842 76.143 1.17779 76.2197 1.03717C76.2581 0.883761 76.322 0.775097 76.4115 0.711178C76.4882 0.634473 76.6033 0.570554 76.7567 0.519418C76.9229 0.455499 77.1594 0.429931 77.4662 0.442715C78.0415 0.455498 78.6103 0.46189 79.1728 0.46189C79.7353 0.46189 80.2978 0.474674 80.8603 0.500242C81.2311 0.52581 81.621 0.570554 82.0301 0.634474C82.4519 0.68561 82.8418 0.781489 83.1998 0.922113C83.4299 1.0116 83.6408 1.10109 83.8326 1.19058C84.0755 1.3312 84.2673 1.46543 84.4079 1.59327C84.8553 2.00236 85.1941 2.49454 85.4242 3.06982C85.6543 3.6451 85.7694 4.22677 85.7694 4.81483C85.7694 5.50516 85.6032 6.13797 85.2708 6.71325C84.9512 7.28853 84.4334 7.71679 83.7175 7.99804C83.692 8.0236 83.6536 8.04278 83.6025 8.05556C83.5641 8.05556 83.5322 8.06196 83.5066 8.07474L85.2708 11.6223L85.4434 11.9291C85.4689 11.9802 85.5009 12.0378 85.5393 12.1017C85.5776 12.1656 85.6096 12.2295 85.6351 12.2934C85.6735 12.3574 85.7055 12.4277 85.731 12.5044C85.7694 12.5811 85.8077 12.6514 85.8461 12.7153C85.8844 12.8943 85.9164 13.0413 85.942 13.1564ZM81.148 6.32973C81.3781 6.32973 81.5954 6.29138 81.7999 6.21467C82.0173 6.12519 82.209 6.01013 82.3752 5.86951C82.5542 5.72888 82.7012 5.56908 82.8163 5.39011C82.9313 5.19835 82.9952 4.99381 83.008 4.77648C83.0592 4.13728 82.893 3.66427 82.5095 3.35746C82.1259 3.03786 81.621 2.86528 80.9946 2.83971C80.6238 2.81414 80.2147 2.80136 79.7673 2.80136C79.3326 2.80136 78.9172 2.80136 78.5209 2.80136C78.5336 3.3255 78.5336 3.86242 78.5209 4.41214C78.5209 4.94906 78.5209 5.58826 78.5209 6.32973H81.148Z" stroke="url(#paint0_radial_1663_162589)" stroke-width="12.784" mask="url(#path-1-inside-1_1663_162589)"/>
<defs>
<radialGradient id="paint0_radial_1663_162589" cx="0" cy="0" r="1" gradientUnits="userSpaceOnUse" gradientTransform="translate(43.5 8.16) rotate(90) scale(10.56 38.28)">
<stop stop-color="#FF221B"/>
<stop offset="1" stop-color="#BB0006"/>
</radialGradient>
</defs>
</svg>
